<?xml version="1.0" standalone="no"?><!DOCTYPE svg PUBLIC "-//W3C//DTD SVG 1.1//EN" "http://www.w3.org/Graphics/SVG/1.1/DTD/svg11.dtd"><svg t="1618390080479" class="icon" viewBox="0 0 1024 1024" version="1.1" xmlns="http://www.w3.org/2000/svg" p-id="2548" xmlns:xlink="http://www.w3.org/1999/xlink" width="200" height="200"><defs><style type="text/css"></style></defs><path d="M871.808 165.504m-129.92 0a129.92 129.92 0 1 0 259.84 0 129.92 129.92 0 1 0-259.84 0Z" fill="#55AEFF" p-id="2549"></path><path d="M874.624 304.768c39.424-0.768 76.544-16.64 104.448-44.544 27.904-27.904 43.776-65.024 44.544-104.448v-0.128-0.128c0.64-33.408-9.472-65.28-28.672-91.776 7.04-0.64 14.08-3.712 19.456-9.088 12.288-12.288 12.288-32.384 0-44.8s-32.384-12.288-44.8 0c-5.376 5.376-8.448 12.288-9.088 19.456C934.016 10.112 902.272 0.128 868.864 0.64h-0.128-0.128c-39.424 0.768-76.544 16.512-104.576 44.544-27.904 27.904-43.776 65.024-44.544 104.448v0.256c-0.512 29.056 7.04 56.832 21.504 81.024L724.48 247.424c-2.432 2.432-3.2 5.888-2.432 8.96l-37.504 37.504c-3.072-0.768-6.528 0-8.96 2.432L208.896 763.264c-2.432 2.432-3.2 5.888-2.432 8.96l-20.352 20.352c-3.712-3.328-9.344-3.2-12.8 0.384-3.584 3.584-3.712 9.216-0.384 12.8l-19.072 19.072c-3.712-3.328-9.344-3.2-12.8 0.384-0.768 0.768-1.28 1.536-1.664 2.304-7.68-1.92-14.72-1.152-19.712 3.968-5.76 5.76-6.016 14.08-2.944 23.168-6.144-2.048-13.312-2.048-21.376 1.664-13.312 6.016-32.768 40.32-68.864 110.08-9.344 18.176-18.304 35.456-21.632 40.192v0.128c-0.128 0.128-0.128 0.256-0.256 0.256-0.128 0.128-0.128 0.256-0.256 0.384-0.128 0.128-0.128 0.256-0.256 0.384 0 0.128-0.128 0.128-0.128 0.256 0 0 0 0.128-0.128 0.128-0.128 0.128-0.128 0.256-0.128 0.384 0 0.128-0.128 0.256-0.128 0.384 0 0.128-0.128 0.384-0.128 0.512V1009.792c0 0.128-0.128 0.256-0.128 0.512V1012.864c0 0.128 0 0.384 0.128 0.512v0.384c0 0.128 0.128 0.256 0.128 0.384v0.128c0 0.128 0 0.256 0.128 0.256 0 0.128 0.128 0.256 0.128 0.512 0 0.128 0.128 0.256 0.128 0.384 0 0.128 0.128 0.128 0.128 0.256 0 0 0 0.128 0.128 0.128 0.128 0.128 0.128 0.256 0.256 0.512 0 0.128 0.128 0.256 0.256 0.384 0.128 0.128 0.128 0.256 0.256 0.384 0 0 0 0.128 0.128 0.128l0.128 0.128c0.256 0.384 0.512 0.768 0.896 1.024 0.384 0.384 0.64 0.64 1.024 0.896l0.128 0.128s0.128 0 0.128 0.128c0.128 0.128 0.256 0.128 0.384 0.256 0.128 0.128 0.256 0.128 0.384 0.256 0.128 0.128 0.256 0.128 0.512 0.256 0 0 0.128 0 0.128 0.128 0.128 0 0.128 0.128 0.256 0.128s0.256 0.128 0.384 0.128c0.128 0 0.256 0.128 0.512 0.128 0.128 0 0.256 0 0.256 0.128h0.128c0.128 0 0.256 0.128 0.384 0.128h0.384c0.128 0 0.384 0 0.512 0.128h2.56c0.128 0 0.384-0.128 0.512-0.128H15.104c0.128 0 0.384-0.128 0.512-0.128 0.128 0 0.256-0.128 0.384-0.128 0.128 0 0.256-0.128 0.384-0.128 0 0 0.128 0 0.128-0.128 0.128 0 0.128-0.128 0.256-0.128 0.128-0.128 0.256-0.128 0.384-0.256 0.128-0.128 0.256-0.128 0.384-0.256 0.128-0.128 0.256-0.128 0.256-0.256h0.128c4.736-3.456 22.016-12.288 40.192-21.632 69.76-35.968 103.936-55.424 110.08-68.864 3.712-8.064 3.712-15.36 1.664-21.376 9.088 3.072 17.408 2.816 23.168-2.944 4.992-4.992 5.888-12.032 3.968-19.712 0.896-0.384 1.664-1.024 2.304-1.664 3.584-3.584 3.712-9.216 0.384-12.8l19.072-19.072c3.712 3.328 9.344 3.2 12.8-0.384 3.584-3.584 3.712-9.216 0.384-12.8l20.352-20.352c3.072 0.768 6.528 0 8.96-2.432l466.816-466.816c2.432-2.432 3.2-5.888 2.432-8.96l37.504-37.504c3.072 0.768 6.528 0 8.96-2.432l16.512-16.512c24.192 14.592 51.968 22.144 81.024 21.632h0.128v-0.256z m-95.872-56.576c-0.896-0.896-1.792-1.664-2.56-2.56l-0.128-0.128c-10.112-10.368-18.304-22.144-24.448-34.816 3.84 5.248 7.936 10.496 12.16 15.488 5.12 6.144 10.752 12.16 16.512 18.048 5.888 5.888 11.904 11.392 17.92 16.512 4.992 4.224 10.24 8.32 15.488 12.16-12.672-6.272-24.576-14.464-34.944-24.704zM964.608 57.216c0.384 0.384 0.896 0.768 1.28 1.28 10.752 10.752 19.456 23.04 25.856 36.352-3.84-5.248-7.936-10.496-12.16-15.488l-0.128-0.128c-10.24-12.16-22.144-24.064-34.176-34.176 0 0-0.128 0-0.128-0.128-4.992-4.224-10.24-8.32-15.488-12.16 12.672 6.016 24.448 14.336 34.944 24.448zM835.712 265.216c-4.608-2.944-9.088-6.144-13.568-9.472 26.112-13.312 57.216-37.12 86.272-66.176 29.056-29.056 52.864-60.288 66.176-86.272 3.328 4.48 6.528 8.96 9.472 13.568-2.816 33.024-21.376 69.504-50.048 98.304-29.184 29.184-64.896 47.232-98.304 50.048z m-54.016-46.848c11.136-25.472 35.456-58.368 66.304-89.216 30.848-30.848 63.744-55.296 89.216-66.304 8.448 7.424 16.768 15.744 24.32 24.32-11.008 25.472-35.456 58.368-66.304 89.216-30.848 30.848-63.744 55.296-89.216 66.304-8.576-7.552-16.768-15.872-24.32-24.32zM907.52 40.192c4.608 2.944 9.088 6.144 13.568 9.472-25.984 13.312-57.216 37.12-86.272 66.176-29.056 29.056-52.864 60.288-66.176 86.272-3.328-4.48-6.528-8.96-9.472-13.568 2.688-33.408 20.864-69.12 50.048-98.304 28.8-28.672 65.28-47.232 98.304-50.048z m-31.616 245.76c-4.736-1.92-9.6-3.968-14.336-6.272 30.08-7.936 60.288-25.856 85.76-51.328 25.472-25.472 43.392-55.68 51.328-85.76 2.304 4.736 4.352 9.6 6.144 14.336-1.024 34.048-14.848 65.92-38.912 89.984-24.064 24.192-56.064 37.888-89.984 39.04z m125.312-262.784c4.992 4.992 4.992 13.184 0 18.176s-13.184 4.992-18.176 0c-4.992-4.992-4.992-13.184 0-18.176 4.992-4.992 13.184-4.992 18.176 0z m-133.76-3.584c4.736 1.92 9.6 3.968 14.336 6.144-30.208 7.936-60.288 25.856-85.76 51.328-25.472 25.472-43.392 55.68-51.328 85.76-2.304-4.736-4.352-9.6-6.144-14.336 1.024-34.048 14.848-65.92 38.912-89.984 24.064-24.192 55.936-37.888 89.984-38.912zM151.168 873.088c-12.16-12.16-17.024-23.04-17.792-27.52 4.48 0.768 15.36 5.632 27.52 17.792s17.024 23.04 17.792 27.52c-4.48-0.64-15.232-5.504-27.52-17.792z m15.872-34.816l19.072-19.072 19.072 19.072-19.072 19.072-19.072-19.072z m51.456-13.312l-19.072-19.072 19.072-19.072 19.072 19.072-19.072 19.072z m35.968-29.44l-25.728-25.728L682.24 316.288l25.728 25.728-453.504 453.504zM718.336 325.12l-19.072-19.072 35.072-35.072 19.072 19.072-35.072 35.072z m51.968-45.312l-25.728-25.728 4.352-4.352 25.728 25.728-4.352 4.352z m-692.48 630.144c17.92-31.36 24.192-35.84 25.088-36.352 8.704-3.968 13.184 2.048 15.104 6.016 1.536 3.328 4.736 5.248 8.192 5.376l-75.776 75.776c8.704-16.896 18.432-35.328 27.392-50.816z m36.608 36.608c-15.488 8.96-33.92 18.56-50.688 27.264l75.776-75.776c0.128 3.456 2.176 6.656 5.504 8.192 0 0 2.944 1.536 5.12 4.096 1.792 2.304 3.328 5.376 0.896 10.88-0.768 1.28-5.248 7.424-36.608 25.344z" fill="#002C5B" p-id="2550"></path><path d="M154.88 165.504m-129.92 0a129.92 129.92 0 1 0 259.84 0 129.92 129.92 0 1 0-259.84 0Z" fill="#55AEFF" p-id="2551"></path><path d="M1023.744 1011.328c0-0.256 0-0.384-0.128-0.512v-0.384c0-0.128-0.128-0.384-0.128-0.512v-0.128-0.128-0.128c0-0.128-0.128-0.384-0.128-0.512 0-0.128-0.128-0.256-0.128-0.384 0-0.128-0.128-0.256-0.128-0.384 0 0 0-0.128-0.128-0.128 0-0.128-0.128-0.128-0.128-0.256s-0.128-0.256-0.256-0.384c-0.128-0.128-0.128-0.256-0.256-0.384 0-0.128-0.128-0.256-0.256-0.256-3.456-4.864-12.288-22.016-21.632-40.192-35.968-69.76-55.424-103.936-68.864-109.952-8.064-3.712-15.36-3.712-21.376-1.664 3.072-9.088 2.816-17.408-2.944-23.168-4.992-4.992-12.032-5.888-19.712-3.84-0.384-0.896-1.024-1.664-1.664-2.304-3.584-3.584-9.216-3.712-12.8-0.384L853.76 805.888c3.328-3.712 3.2-9.344-0.384-12.8-3.584-3.584-9.216-3.584-12.8-0.384l-20.352-20.352c0.768-3.072 0-6.528-2.432-8.96L350.976 296.448c-2.432-2.432-5.888-3.2-8.96-2.432l-37.504-37.504c0.768-3.072 0-6.528-2.432-9.088l-16.64-16.512c14.592-24.192 22.144-51.968 21.504-81.024v-0.128c-0.768-39.424-16.512-76.544-44.544-104.448C234.496 17.408 197.376 1.536 157.824 0.768h-0.128-0.128C124.416 0.128 92.544 10.112 66.048 29.312c-0.64-7.04-3.712-14.08-9.088-19.456-12.288-12.288-32.384-12.288-44.8 0s-12.416 32.384 0 44.8c5.376 5.376 12.288 8.448 19.456 9.088-19.2 26.496-29.184 58.368-28.672 91.776v0.256c0.768 39.424 16.512 76.544 44.544 104.448 27.904 27.904 65.024 43.648 104.448 44.544h0.256c29.056 0.512 56.832-7.04 81.024-21.504l16.512 16.512c2.432 2.432 5.888 3.2 8.96 2.432l37.504 37.504c-0.768 3.072 0 6.528 2.432 8.96L765.44 815.488c2.432 2.432 5.888 3.2 9.088 2.432l20.352 20.352c-3.328 3.712-3.2 9.344 0.384 12.8 3.584 3.584 9.216 3.584 12.8 0.384l19.072 19.072c-3.2 3.712-3.2 9.344 0.384 12.8 0.768 0.64 1.536 1.28 2.304 1.664-1.92 7.68-1.152 14.72 3.968 19.712 5.76 5.76 14.08 6.016 23.04 2.944-2.048 6.144-2.048 13.312 1.664 21.376 6.016 13.312 40.32 32.768 110.08 68.864 18.176 9.472 35.456 18.304 40.192 21.632h0.128c0.128 0 0.128 0.128 0.256 0.128 0.128 0.128 0.256 0.128 0.384 0.256 0.128 0 0.256 0.128 0.384 0.256 0.128 0 0.128 0.128 0.256 0.128h0.128c0.128 0 0.256 0.128 0.384 0.256 0.128 0 0.256 0.128 0.384 0.128 0.128 0 0.384 0.128 0.512 0.128H1011.968c0.128 0 0.384 0.128 0.512 0.128H1015.04c0.128 0 0.384 0 0.512-0.128h0.384c0.128 0 0.256 0 0.512-0.128h0.128c0.128 0 0.256 0 0.256-0.128 0.128 0 0.256-0.128 0.384-0.128 0.128 0 0.256-0.128 0.384-0.128 0.128 0 0.128 0 0.256-0.128 0 0 0.128 0 0.128-0.128l0.512-0.256c0.128 0 0.256-0.128 0.384-0.256 0.128-0.128 0.256-0.128 0.384-0.256 0 0 0.128 0 0.128-0.128 0 0 0.128 0 0.128-0.128 0.384-0.256 0.768-0.512 1.024-0.896 0.384-0.384 0.64-0.64 0.896-1.024 0 0 0-0.128 0.128-0.128 0 0 0-0.128 0.128-0.128 0.128-0.128 0.128-0.256 0.256-0.384 0-0.128 0.128-0.256 0.256-0.384 0.128-0.128 0.128-0.256 0.256-0.512 0 0 0-0.128 0.128-0.128 0-0.128 0-0.128 0.128-0.256 0-0.128 0.128-0.256 0.128-0.384 0-0.128 0.128-0.256 0.128-0.512 0-0.128 0-0.128 0.128-0.256v-0.128c0-0.128 0.128-0.256 0.128-0.384v-0.384c0-0.128 0-0.384 0.128-0.512V1012.224v-0.896c0.384 0.256 0.384 0.128 0.384 0zM159.232 19.584c34.048 1.024 65.92 14.848 90.112 38.912 24.064 24.064 37.888 56.064 38.912 89.984-1.152 2.944-2.432 5.888-3.712 8.96-0.768 1.792-1.664 3.584-2.56 5.504-7.936-30.08-25.856-60.288-51.328-85.76-16.768-16.768-35.712-30.336-55.168-39.808-10.112-4.864-20.352-8.704-30.592-11.52 4.736-2.432 9.472-4.48 14.336-6.272zM89.344 62.848c25.472 11.008 58.24 35.456 89.216 66.304 30.848 30.848 55.296 63.744 66.304 89.216-7.424 8.448-15.744 16.768-24.32 24.32-25.472-11.136-58.368-35.456-89.216-66.432-30.72-30.848-55.168-63.744-66.176-89.216 7.424-8.448 15.744-16.768 24.192-24.192zM51.968 103.296c13.312 26.112 37.12 57.216 66.176 86.272s60.288 52.864 86.272 66.176c-4.48 3.328-8.96 6.528-13.568 9.472-33.408-2.816-68.992-20.864-98.304-50.048-28.8-28.8-47.36-65.28-50.048-98.304 3.072-4.608 6.144-9.216 9.472-13.568z m161.024 169.6c5.248-3.84 10.496-7.936 15.616-12.16 6.144-5.12 12.16-10.624 17.92-16.512s11.392-11.904 16.512-18.048c4.224-4.992 8.32-10.24 12.16-15.488-6.144 12.672-14.336 24.448-24.448 34.816l-0.128 0.128c-0.896 0.896-1.664 1.792-2.56 2.56-5.248 5.12-10.752 9.728-16.64 13.824s-12.16 7.808-18.432 10.88zM119.168 40.192c0.256 0 0.64 0 0.896 0.128 32.768 3.072 68.864 21.504 97.28 50.048 29.184 29.184 47.36 64.896 50.048 98.304-2.944 4.608-6.144 9.088-9.472 13.568-13.312-25.984-37.12-57.216-66.176-86.272-29.184-29.056-60.288-52.864-86.272-66.176 4.224-3.072 8.32-6.016 12.672-8.832 0.384-0.256 0.64-0.512 1.024-0.768zM60.8 58.496c0.384-0.384 0.896-0.768 1.28-1.28 10.496-10.24 22.272-18.432 35.072-24.704-5.248 3.84-10.496 7.936-15.488 12.16l-0.128 0.128C69.504 55.04 57.472 66.944 47.36 78.976l-0.128 0.128c-4.224 4.992-8.32 10.24-12.16 15.488 6.272-13.056 14.976-25.344 25.728-36.096zM25.472 41.344C20.48 36.352 20.48 28.16 25.472 23.168c4.992-4.992 13.184-4.992 18.176 0 4.992 4.992 4.992 13.184 0 18.176-4.992 5.12-13.184 5.12-18.176 0z m-3.584 115.584c1.408-3.584 2.944-7.296 4.608-10.88 0.512-1.152 1.024-2.304 1.664-3.456 7.936 30.208 25.856 60.288 51.328 85.76 25.472 25.472 55.68 43.392 85.76 51.328-4.736 2.304-9.6 4.352-14.336 6.272-34.048-1.024-65.92-14.848-89.984-38.912-15.36-15.36-26.624-33.92-32.896-54.272-3.712-11.52-5.76-23.552-6.144-35.84z m234.496 122.88l-4.352-4.352 25.728-25.6 4.352 4.352-25.728 25.6z m16.896 10.24l19.072-19.072 35.072 35.072-19.072 19.072-35.072-35.072z m498.944 505.472L318.72 342.016l25.728-25.6 453.504 453.504-25.728 25.6z m16.896 10.368l19.072-19.072 19.072 19.072-19.072 19.072-19.072-19.072z m51.456 51.456l-19.072-19.072 19.072-19.072 19.072 19.072-19.072 19.072z m7.296 33.664c0.768-4.48 5.632-15.36 17.792-27.52s23.04-17.024 27.52-17.792c-0.768 4.48-5.632 15.36-17.792 27.52s-22.912 17.024-27.52 17.792z m64.384 55.552c-31.36-17.92-35.84-24.064-36.48-25.216-2.56-5.504-1.024-8.576 0.896-10.88 2.176-2.688 5.12-4.096 5.12-4.096 3.328-1.536 5.376-4.736 5.504-8.192l75.648 75.776c-16.768-8.704-35.2-18.432-50.688-27.392z m-11.776-61.696c3.456-0.128 6.656-2.048 8.192-5.376 1.92-3.968 6.4-9.984 15.104-6.016 1.024 0.512 7.168 4.992 25.088 36.352 8.96 15.488 18.56 33.92 27.264 50.688l-75.648-75.648z" fill="#002C5B" p-id="2552"></path><path d="M797.824 769.92l-25.6 25.6L318.72 342.016l25.6-25.6z" fill="#FFFFFF" p-id="2553"></path></svg>