<?xml version="1.0" standalone="no"?><!DOCTYPE svg PUBLIC "-//W3C//DTD SVG 1.1//EN" "http://www.w3.org/Graphics/SVG/1.1/DTD/svg11.dtd"><svg t="1618391364041" class="icon" viewBox="0 0 1024 1024" version="1.1" xmlns="http://www.w3.org/2000/svg" p-id="13918" xmlns:xlink="http://www.w3.org/1999/xlink" width="200" height="200"><defs><style type="text/css"></style></defs><path d="M739.98396 320.757L104.59596 956.273l-53.48 14.296 16.72-51.056 635.516-635.516" p-id="13919" fill="#2c2c2c"></path><path d="M853.32796 386.62l6.254-52.843c1.277-10.977-2.425-23.358-9.062-29.996l-35.101-35.1 120.874-120.875c1.021-1.02 2.043-2.17 2.936-3.446 0.383 0.383 0.638 0.766 1.021 1.149 3.064 3.063 6.637 5.616 10.594 7.403 21.954 10.339 48.375 0.893 58.714-21.188 7.02-14.934 6.638-31.655-0.638-45.95 17.614-19.785 16.848-50.29-2.042-69.309-19.018-19.018-49.652-19.656-69.436-1.914a52.102 52.102 0 0 0-45.057-0.383c-10.721 4.978-18.763 13.913-22.72 24.89-3.956 11.104-3.446 23.102 1.532 33.696 1.915 3.957 4.34 7.531 7.403 10.594 0.383 0.383 0.766 0.766 1.15 1.022-1.15 0.893-2.298 1.786-3.447 2.935L755.42896 208.18l-35.101-35.101c-6.637-6.637-19.018-10.339-29.995-9.063l-52.843 6.255c-14.04 1.659-23.741 7.53-26.804 16.082-2.17 6.127-0.383 12.892 4.722 17.87l57.31 57.31-639.855 640.11c-1.404 1.405-2.298 3.064-2.808 4.85L0.44096 1009.627c-1.148 3.957 0 8.17 2.809 11.105 2.935 2.936 7.147 3.957 11.104 2.808l103.133-29.485c1.787-0.51 3.574-1.531 4.85-2.808l639.728-639.855 57.31 57.31c5.105 5.105 11.743 6.765 17.87 4.722 8.679-2.935 14.423-12.763 16.082-26.804zM841.20096 211.114l-13.53 13.53-28.336-28.336 13.53-13.53 28.336 28.336z m-12.38-44.29l13.529-13.53 28.336 28.336-13.53 13.53-28.336-28.337z m57.692-1.15l-28.336-28.335 13.53-13.53 28.336 28.336-13.53 13.53z m-103.005 46.589l28.336 28.336-9.573 9.573-28.336-28.336 9.573-9.573z m136.83-93.815c3.701 3.702 3.701 9.828 0 13.53l-4.34 4.34-28.336-28.336 4.34-4.34c3.701-3.701 9.828-3.701 13.53 0l14.805 14.806z m-28.975-55.012c-2.425-5.234-2.68-11.105-0.765-16.466 1.914-5.36 5.87-9.7 11.104-12.253 10.084-4.723 21.826-3.446 30.761 3.318h0.128c0.127 0.128 0.255 0.128 0.383 0.256 0.127 0.127 0.255 0.255 0.51 0.255 0.128 0.128 0.383 0.128 0.51 0.255 0.128 0.128 0.384 0.128 0.511 0.256 0.128 0.127 0.383 0.127 0.511 0.255s0.383 0.128 0.51 0.255c0.128 0 0.383 0.128 0.511 0.128s0.383 0.127 0.51 0.127c0.128 0 0.384 0.128 0.511 0.128 0.128 0 0.383 0.128 0.51 0.128h3.064c0.128 0 0.383 0 0.51-0.128 0.128 0 0.384-0.128 0.511-0.128 0.128 0 0.383-0.127 0.51-0.127 0.128 0 0.384-0.128 0.511-0.128 0.128 0 0.383-0.127 0.51-0.255 0.129-0.128 0.384-0.128 0.511-0.255 0.128-0.128 0.383-0.128 0.511-0.256 0.128-0.127 0.383-0.127 0.51-0.255 0.128-0.128 0.256-0.255 0.511-0.255 0.128-0.128 0.255-0.128 0.51-0.256 0.128-0.127 0.256-0.255 0.511-0.382l0.383-0.383 0.383-0.383 0.383-0.383c0.128-0.128 0.255-0.255 0.383-0.51 0.128-0.128 0.255-0.256 0.255-0.384v-0.127c0.894-1.149 1.787-2.298 2.808-3.319 10.977-10.977 28.72-10.977 39.568 0s10.977 28.719 0 39.568c-1.02 1.021-2.17 1.915-3.19 2.808l-0.128 0.128-0.128 0.128-0.255 0.255-0.383 0.383-0.383 0.383-0.383 0.383-0.383 0.383a1.762 1.762 0 0 0-0.383 0.51c-0.127 0.128-0.255 0.255-0.255 0.51-0.128 0.128-0.255 0.256-0.255 0.511-0.128 0.128-0.128 0.383-0.256 0.51-0.127 0.128-0.127 0.256-0.255 0.511-0.127 0.128-0.127 0.383-0.255 0.51 0 0.129-0.128 0.384-0.128 0.511 0 0.128-0.127 0.383-0.127 0.511s-0.128 0.383-0.128 0.51c0 0.128-0.128 0.383-0.128 0.511s0 0.383-0.127 0.51v2.553c0 0.128 0 0.383 0.127 0.511 0 0.128 0 0.383 0.128 0.51 0 0.128 0.128 0.383 0.128 0.511s0.127 0.383 0.127 0.51c0 0.128 0.128 0.384 0.128 0.511 0.128 0.128 0.128 0.383 0.255 0.51 0.128 0.128 0.128 0.384 0.255 0.511 0.128 0.128 0.128 0.383 0.256 0.51 0.127 0.129 0.127 0.256 0.255 0.511 0.128 0.128 0.255 0.383 0.383 0.511s0.128 0.255 0.255 0.255l0.128 0.128 0.127 0.128c7.148 8.934 8.552 20.805 3.702 31.144-5.106 10.721-17.87 15.444-28.719 10.338-3.574-1.659-6.382-4.722-7.786-8.424-1.404-3.829-1.149-7.786 0.51-11.487 2.681-5.872 5.106-7.02 11.871-6 6.127 1.022 11.998-3.19 13.02-9.317 1.02-6.127-3.192-11.998-9.318-13.02-15.445-2.552-27.315 2.936-34.59 15.956l-10.595-10.594c13.02-7.148 18.508-19.019 15.955-34.59a11.306 11.306 0 0 0-13.019-9.318 11.306 11.306 0 0 0-9.318 13.019c1.15 6.637-0.127 9.062-5.999 11.87-3.573 1.66-7.658 1.915-11.487 0.51-3.574-0.637-6.51-3.318-8.297-7.02zM108.42496 973.122L27.63096 996.224 50.73096 915.43l637.686-637.686 57.693 57.693-637.686 637.686z m527.789-779.493a23.771 23.771 0 0 1 3.829-0.638l52.842-6.255c4.723-0.51 10.211 1.404 11.488 2.68l130.32 130.32c1.276 1.277 3.19 6.638 2.68 11.488l-6.254 52.842c-0.128 1.404-0.383 2.68-0.639 3.83L636.21396 193.629z" p-id="13920" fill="#2c2c2c"></path><path d="M185.26396 862.075c4.34 4.34 11.488 4.34 15.955 0l502.643-502.643c4.34-4.34 4.34-11.487 0-15.955-4.34-4.34-11.487-4.34-15.955 0L185.26396 846.12c-4.34 4.34-4.34 11.488 0 15.955z" p-id="13921" fill="#2c2c2c"></path></svg>