<?xml version="1.0" standalone="no"?><!DOCTYPE svg PUBLIC "-//W3C//DTD SVG 1.1//EN" "http://www.w3.org/Graphics/SVG/1.1/DTD/svg11.dtd"><svg t="1618391899328" class="icon" viewBox="0 0 1024 1024" version="1.1" xmlns="http://www.w3.org/2000/svg" p-id="19147" data-spm-anchor-id="a313x.7781069.0.i141" xmlns:xlink="http://www.w3.org/1999/xlink" width="200" height="200"><defs><style type="text/css"></style></defs><path d="M770.355366 326.016L559.283366 537.088 251.955366 844.416c-119.04 119.04-213.12 103.424-213.12 103.424 94.208-59.008 145.92-123.136 145.92-123.136l324.864-324.864 217.216-217.216" fill="#e6e6e6" p-id="19148" data-spm-anchor-id="a313x.7781069.0.i140" class=""></path><path d="M864.307366 385.792l5.248-44.672c1.152-9.344-2.048-19.968-7.808-25.6l-29.312-29.312 101.76-101.76c2.56-2.56 4.48-5.504 5.888-8.832 22.144 5.632 46.592-0.256 63.872-17.536 26.112-26.112 26.112-68.608 0-94.592s-68.608-26.112-94.592 0c-17.28 17.28-23.04 41.728-17.536 63.872-3.328 1.408-6.272 3.328-8.832 5.888l-101.76 101.76-29.44-29.44c-5.632-5.632-16.256-8.832-25.6-7.808l-44.672 5.248c-12.032 1.408-20.352 6.4-22.912 13.696-1.792 5.376-0.384 11.136 3.968 15.488l49.664 49.664-541.696 542.08c-0.768 0.768-73.856 73.344-165.888 131.072-3.2 2.048-4.992 5.632-4.608 9.344 0.256 2.304 1.28 4.352 2.816 6.016 1.024 1.024 2.176 1.792 3.456 2.304 1.152 0.512 30.08 11.136 74.24 6.4 40.192-4.352 101.376-22.784 164.864-86.272l538.88-538.88 50.688 50.688c4.352 4.352 10.112 5.888 15.488 3.968 7.424-2.56 12.416-10.88 13.824-22.784zM842.291366 248.448l-23.424-23.424 10.88-10.88 23.424 23.424-10.88 10.88z m24.832-24.832l-23.424-23.424 10.88-10.88 23.424 23.424-10.88 10.88z m-62.08 15.36l23.424 23.424-7.68 7.68-23.424-23.424 7.68-7.68z m86.912-40.192L868.659366 175.36l10.88-10.88 23.424 23.424-11.008 10.88z m98.048-121.472c18.432 18.432 18.432 48.384 0 66.816-18.432 18.432-48.384 18.432-66.816 0-18.432-18.432-18.432-48.384 0-66.816 18.432-18.304 48.384-18.304 66.816 0z m-80.64 80.768c3.84 3.84 8.192 7.168 12.672 9.856-0.384 0.896-0.896 1.792-1.664 2.432l-3.456 3.456-23.424-23.296 3.456-3.456c0.768-0.768 1.536-1.28 2.432-1.664 2.688 4.48 6.016 8.832 9.984 12.672z m-677.76 720.64c-59.008 59.008-115.2 76.288-151.936 80.512-18.048 2.048-33.408 1.152-44.8-0.384 84.48-56.32 148.864-120.32 149.504-120.96l541.952-541.952 44.032 44.032-538.752 538.752z m449.792-655.744c0.768-0.128 1.664-0.256 2.56-0.384l44.672-5.248c3.84-0.512 8.32 1.152 9.344 2.176l109.952 109.952c1.024 1.024 2.56 5.504 2.176 9.344l-5.248 44.672c-0.128 0.896-0.256 1.792-0.384 2.56L681.395366 222.976z m160.64 174.592l6.912-6.912-6.912 6.912z" fill="#2c2c2c" p-id="19149"></path><path d="M299.827366 787.2c3.84 3.84 10.112 3.84 13.952 0l424.192-424.192c3.84-3.84 3.84-10.112 0-13.952s-10.112-3.84-13.952 0L299.827366 773.248c-3.84 3.84-3.84 10.112 0 13.952zM928.691366 138.624c15.36 15.36 40.32 15.36 55.68 0s15.36-40.32 0-55.68-40.32-15.36-55.68 0-15.36 40.32 0 55.68z m41.856-41.856c7.68 7.68 7.68 20.224 0 27.904s-20.224 7.68-27.904 0-7.68-20.224 0-27.904 20.224-7.68 27.904 0z" fill="#707070" p-id="19150" data-spm-anchor-id="a313x.7781069.0.i139" class=""></path></svg>