<?xml version="1.0" standalone="no"?><!DOCTYPE svg PUBLIC "-//W3C//DTD SVG 1.1//EN" "http://www.w3.org/Graphics/SVG/1.1/DTD/svg11.dtd"><svg t="1618390422892" class="icon" viewBox="0 0 1024 1024" version="1.1" xmlns="http://www.w3.org/2000/svg" p-id="7788" xmlns:xlink="http://www.w3.org/1999/xlink" width="200" height="200"><defs><style type="text/css"></style></defs><path d="M39.909133 14.079282c7.679609 10.367472 36.478141 72.444308 93.563232 102.650769 3.455824 1.791909 6.783654 3.455824 10.111485 4.863752l-14.33527 26.49465C99.938074 139.51289 74.595365 128.505451 64.227894 122.105777 46.820781 111.482319 23.269981 84.731682 19.55817 79.355956c-25.470702-37.246102 3.071843-61.436869 4.095792-64.124732 1.023948-2.687863 8.575563-11.519413 16.255171-1.151942zM1009.971696 984.013852c-10.367472-7.679609-72.444308-36.478141-102.650768-93.563232-1.791909-3.455824-3.455824-6.783654-4.863752-10.111484L875.962526 894.674405c8.447569 29.310506 19.583002 54.653215 25.854682 65.020687 10.623459 17.407113 37.374095 40.957913 42.749821 44.669723 37.246102 25.470702 61.436869-3.071843 64.124733-4.095791 2.687863-1.023948 11.519413-8.575563 1.279934-16.255172zM699.459521 366.573319c15.743198 12.799348 38.27005 28.926526 62.20483 48.25354L735.169701 449.257105c-4.991746-2.687863-10.111485-5.375726-15.10323-8.063589-8.191583-4.351778-15.487211-7.935596-22.014878-11.007439-17.919087-8.447569-30.206461-13.311322-41.597881-20.350963-2.303883-1.535922-4.479772-3.199837-6.65566-4.991746-6.527667-5.119739-11.903393-9.855498-16.511159-14.207276-4.351778-4.607765-9.087537-9.983491-14.207276-16.511158-1.791909-2.175889-3.455824-4.479772-4.991745-6.655661-7.039641-11.263426-11.7754-23.5508-20.350963-41.59788-3.071843-6.527667-6.655661-13.823296-11.007439-22.014878-2.687863-4.991746-5.375726-10.111485-8.063589-15.103231l34.430245-26.494649c19.327015 23.93478 35.454193 46.461632 48.253541 62.076836 6.399674 7.807602 13.055335 15.359217 19.838989 22.398859 6.911648 6.911648 14.463263 13.567309 22.270865 19.838989z" fill="#2c2c2c" p-id="7789"></path><path d="M730.049962 378.860692c-9.21553-6.911648-17.791093-13.567309-24.830735-19.199021-7.167635-5.8877-14.463263-12.287374-21.630897-19.199022-6.783654-7.167635-13.311322-14.463263-19.199022-21.630897-5.759706-7.039641-12.287374-15.743198-19.199022-24.830735-8.575563-11.263426-18.303067-24.062774-28.926525-37.246102-29.310506-36.350148-75.004178-87.419545-132.473249-112.250279-65.276673-28.286558-162.551716-19.966982-170.999286-19.199022-17.407113 0-33.278304 0.767961-48.637521 1.407928-44.15775 2.047896-79.099969 3.583817-116.730051-13.311321-3.071843-1.407928-6.399674-2.94385-9.599511-4.607765-45.437684-23.93478-72.828288-70.396412-84.475695-90.235402-2.687863-4.479772-4.479772-7.679609-6.015693-9.727504C41.061074 0.38398 33.89344-0.127993 30.181629 0.511974c-7.295628 0.767961-12.287374 6.27168-14.33527 10.367472-0.127993 0.255987-0.38398 0.511974-0.639967 0.76796C12.006555 15.359217 4.710927 24.062774 1.51109 36.606134-2.328714 52.349332 1.12711 68.348517 12.134549 84.475695c3.839804 5.50372 28.286558 33.662284 47.48558 45.309691 3.967798 2.431876 9.855498 5.50372 17.279119 8.703556L885.30605 947.151731c3.199837 7.167635 6.27168 13.055335 8.831549 17.279119 11.7754 19.199022 39.805971 43.645776 45.309691 47.48558 15.999185 11.007439 32.126363 14.463263 47.869561 10.495465 12.543361-3.199837 21.374911-10.495465 25.086721-13.567308 0.255987-0.255987 0.511974-0.511974 0.767961-0.639968 1.535922-0.767961 3.455824-2.047896 5.119739-3.839804 2.55987-2.55987 4.863752-6.143687 5.375726-10.367472 0.511974-3.711811 0.127993-10.879446-8.447569-17.151126-2.047896-1.535922-5.247733-3.455824-9.727504-6.015693-19.838989-11.647406-66.300621-39.038011-90.235402-84.475695-21.758891-41.341893-20.094976-78.843982-17.919087-126.329562 0.639967-15.359217 1.407928-31.230408 1.407929-48.637521 0.767961-8.447569 9.087537-105.722612-19.199022-170.999286-24.830735-57.341078-76.028125-103.034749-112.250279-132.473248-13.183328-10.751452-25.982676-20.478956-37.246102-29.05452zM90.338563 144.248649c10.751452 4.223785 23.166819 8.575563 36.478141 12.415367 23.294813 6.655661 44.54173 10.623459 63.356771 11.647406 62.332823 3.455824 104.698664 0.639967 138.616936-1.535921 43.773769-2.815856 72.572302-4.735759 113.786201 8.447569 67.452562 21.630898 98.426984 70.140425 124.281666 117.881993 2.815856 5.119739 5.50372 10.239478 7.935596 14.975236 3.711811 7.167635 7.295628 14.207276 10.879446 21.758892 2.431876 5.247733 4.607765 9.855498 6.65566 14.463262 4.991746 10.879446 8.959543 19.583002 14.079283 28.030572 0.127993 0.127993 0.127993 0.255987 0.255987 0.38398 1.663915 2.431876 3.455824 4.863752 5.375726 7.167635 5.375726 6.655661 10.111485 12.287374 14.71925 17.151126l0.255987 0.255987c4.863752 4.607765 10.367472 9.343524 17.151126 14.71925 2.303883 1.791909 4.607765 3.583817 7.167634 5.375726 0.127993 0.127993 0.255987 0.255987 0.383981 0.255987 8.447569 5.247733 17.023132 9.21553 28.030571 14.079282 4.479772 2.047896 9.21553 4.223785 14.463263 6.655661 7.551615 3.583817 14.591256 7.039641 21.758891 10.879446 4.735759 2.55987 9.855498 5.247733 14.975237 7.935595 47.741567 25.854682 96.123101 56.829104 117.881993 124.281667 13.183328 41.2139 11.391419 70.012432 8.447569 113.786201-2.175889 33.918271-4.991746 76.156119-1.535922 138.616936 1.791909 33.406298 13.183328 71.932334 24.062774 99.706918L90.338563 144.248649z m772.696622 403.179453c27.134617 62.58881 17.919087 161.527768 17.791093 162.551716v0.895954c0 17.151126-0.767961 33.022317-1.407928 48.253541-2.175889 48.253541-4.095791 89.851421 19.966982 135.545092 26.366656 50.04545 75.900132 79.227962 97.019056 91.64333 3.711811 2.175889 6.911648 4.095791 8.191582 4.991745 0.255987 0.255987 0.511974 0.38398 0.639968 0.511974-0.127993 0-0.127993 0.127993-0.127994 0.127994-1.535922 0.639967-2.687863 1.663915-4.223785 2.94385-6.655661 5.50372-24.318761 20.350963-51.069397 2.047895-5.119739-3.583817-30.590441-26.366656-40.189952-41.98186-9.087537-14.975237-33.150311-73.212269-35.966167-122.105777-3.32783-61.308876-0.639967-102.906756 1.535922-136.441047 2.94385-44.15775 4.991746-76.028125-9.343524-120.441862-23.678793-73.852236-77.692041-108.154488-126.457555-134.649138-5.247733-2.815856-10.367472-5.50372-15.231224-8.063589-7.295628-3.839804-14.71925-7.551615-22.398859-11.135432-5.375726-2.55987-10.367472-4.735759-14.71925-6.783655-10.239478-4.607765-18.303067-8.319576-25.726688-12.927341-2.047896-1.535922-4.095791-2.94385-6.015694-4.479772-6.27168-4.991746-11.391419-9.343524-15.743198-13.567308-4.223785-4.351778-8.575563-9.599511-13.567308-15.743198-1.535922-1.919902-3.071843-3.967798-4.479772-6.015693-4.607765-7.423622-8.191583-15.487211-12.927341-25.726689-2.047896-4.351778-4.223785-9.343524-6.783654-14.71925-3.583817-7.679609-7.295628-15.10323-11.135433-22.398859-2.55987-4.863752-5.247733-9.983491-8.063589-15.231223-26.49465-48.765515-60.796902-102.650769-134.649138-126.457556-44.413737-14.335269-76.284112-12.15938-120.441862-9.343524-33.534291 2.175889-75.132171 4.991746-136.441046 1.535922-17.151126-0.895954-37.630082-4.735759-59.26098-11.007439-30.718435-8.83155-54.397228-19.710995-62.844798-24.958728C53.348448 104.954651 30.565609 79.483949 26.981792 74.236217c-18.303067-26.750637-3.583817-44.413737 2.047896-51.069398 1.279935-1.535922 2.303883-2.687863 2.94385-4.223784l0.127993-0.127994c0.127993 0.127993 0.38398 0.38398 0.511974 0.639968 1.023948 1.279935 2.815856 4.479772 4.991746 8.191582 12.415367 21.118924 41.59788 70.652399 91.643329 97.019056 3.583817 1.919902 7.167635 3.583817 10.623459 5.119739 41.469887 18.559054 80.123917 16.895139 124.921633 14.847243 15.231224-0.639967 31.102415-1.407928 48.253541-1.407928h0.895955c1.023948-0.127993 99.962906-9.343524 162.551716 17.791093 53.75726 23.294813 97.403036 72.316315 125.561601 107.130541 10.495465 12.927341 20.094976 25.598695 28.670539 36.862121 7.039641 9.343524 13.695302 18.04708 19.583002 25.342708 6.27168 7.679609 13.055335 15.359217 20.222969 22.910833 0.127993 0.127993 0.127993 0.255987 0.255987 0.255987 7.551615 7.295628 15.359217 14.079282 22.910832 20.222969 7.295628 5.8877 15.999185 12.543361 25.342709 19.583002 11.135433 8.447569 23.93478 18.175074 36.862121 28.670539 34.814226 28.030571 83.835728 71.676347 107.130541 125.433608z" fill="#2c2c2c" p-id="7790"></path><path d="M358.740885 671.965755l-76.284113 76.284112-66.684601-5.503719 76.284112-76.284113z" fill="#2c2c2c" p-id="7791"></path><path d="M350.933283 664.158153l-76.284113 76.284112 5.50372 66.684602 76.284112-76.284113z" fill="#2c2c2c" p-id="7792"></path><path d="M942.39114 70.140425l-112.762253 38.398044c-3.839804 1.279935-6.399674 5.119739-6.143687 9.21553 0.255987 4.095791 3.32783 7.423622 7.423622 8.191582l46.205645 8.191583-523.237334 523.109341-76.92408-6.399674c-2.687863-0.255987-5.247733 0.767961-7.167635 2.55987L173.40633 750.041776c-2.431876 2.431876-3.32783 6.143687-2.047896 9.471517 1.151941 3.32783 4.223785 5.631713 7.679609 5.8877l61.820849 5.119739c-2.815856 3.583817-2.55987 8.703556 0.767961 11.903394 3.199837 3.199837 8.447569 3.455824 11.903393 0.767961l5.11974 61.820849c0.255987 3.455824 2.55987 6.527667 5.887699 7.679609 3.32783 1.151941 7.039641 0.38398 9.471518-2.047896l96.507082-96.507082c1.919902-1.919902 2.815856-4.479772 2.559869-7.167634l-6.399674-76.92408 526.309178-526.309178 8.959544 50.941404c0.511974 3.071843 3.199837 5.50372 6.27168 5.759706 2.047896 0.127993 4.095791-0.639967 5.375726-2.047895 0.767961-0.767961 1.279935-1.663915 1.663915-2.687863l38.398043-112.762254c0.255987-0.895954 0.38398-1.791909 0.383981-2.687863 0.38398-2.175889 0-4.351778-1.151942-6.27168-2.175889-3.583817-6.527667-5.119739-10.495465-3.839805z m-30.974421 29.566494l-18.815041 18.815041-24.062774-4.223785 42.877815-14.591256zM279.640916 669.149898l57.469071 4.863753-18.431061 18.43106h-38.014062c-3.839804 0-6.911648 3.071843-6.911648 6.911648 0 3.839804 3.071843 6.911648 6.911648 6.911648H304.855631l-13.567309 13.567308h-38.014063c-3.839804 0-6.911648 3.071843-6.911647 6.911648 0 3.839804 3.071843 6.911648 6.911647 6.911648h24.190768L257.498044 753.625593l-57.469071-4.863752 79.611943-79.611943z m75.132171 75.132172l-79.739936 79.739936-4.863753-57.469071 30.334455-30.334455v27.134618c0 3.839804 3.071843 6.911648 6.911647 6.911647 1.919902 0 3.711811-0.767961 4.863752-2.047895 1.279935-1.279935 2.047896-2.94385 2.047896-4.863752v-40.957913l13.567309-13.567309V735.962494c0 3.839804 3.071843 6.911648 6.911647 6.911647 1.919902 0 3.711811-0.767961 4.863753-2.047895 1.279935-1.279935 2.047896-2.94385 2.047895-4.863752v-40.957913l8.191583-8.191583 4.863752 57.469072z m556.259651-578.658511l-5.887699-33.022317 25.982675-25.982676-20.094976 59.004993z" fill="#2c2c2c" p-id="7793"></path></svg>