<?xml version="1.0" standalone="no"?><!DOCTYPE svg PUBLIC "-//W3C//DTD SVG 1.1//EN" "http://www.w3.org/Graphics/SVG/1.1/DTD/svg11.dtd"><svg t="1618390977954" class="icon" viewBox="0 0 1024 1024" version="1.1" xmlns="http://www.w3.org/2000/svg" p-id="10898" xmlns:xlink="http://www.w3.org/1999/xlink" width="200" height="200"><defs><style type="text/css"></style></defs><path d="M975.232 136.576c-7.424-4.864-88.064-51.84-192.896 15.616-62.72 40.448-197.504 202.24-197.504 202.24l25.984 25.984S719.872 293.12 759.808 295.68c39.936 2.56 44.544 5.376 44.544 5.376s-4.864-23.168-30.336-31.488l-18.048-3.584s15.744-52.48 98.176-85.504c65.792-26.624 121.088-43.904 121.088-43.904z" fill="#2c2c2c" p-id="10899"></path><path d="M1016.32 130.688c3.456-0.64 6.272-3.2 6.912-6.656 0.768-3.456-0.768-7.04-3.712-8.96-3.968-2.688-99.072-64-214.912-18.304-80.64 31.744-232.448 221.696-242.432 234.24l-20.48 20.48-1.024-1.024c-3.328-3.328-8.832-3.328-12.16 0-3.328 3.328-3.328 8.832 0 12.16l12.288 12.288L70.272 845.44c-2.304-0.896-5.12-0.384-7.04 1.536l-13.056 13.056c-2.56 2.56-2.56 6.784 0 9.344-1.408 0.128-2.688 0.768-3.712 1.792-1.28 1.28-1.92 3.072-1.92 4.864l-31.488 11.904c-1.792 0.64-3.072 2.048-3.84 3.712l-6.784 16.896c-3.968 9.728-1.792 20.48 5.632 27.904l0.128 0.128c7.424 7.424 18.048 9.6 27.776 5.76l17.152-6.784c1.792-0.64 3.072-2.048 3.712-3.84l11.776-30.976c2.048 0.256 4.096-0.256 5.632-1.792 1.152-1.152 1.664-2.56 1.92-3.968 2.56 1.664 6.144 1.408 8.32-0.768l13.056-13.056c1.92-1.92 2.432-4.608 1.536-7.04L569.6 403.584l16.256 16.256c3.328 3.328 8.832 3.328 12.16 0 3.328-3.328 3.328-8.832 0-12.16l-1.024-1.024 20.608-20.608c26.112-22.912 100.608-81.152 135.552-78.976 38.656 2.56 47.616 5.12 48.768 5.504 2.816 1.28 6.016 0.896 8.576-0.896 2.816-2.048 4.096-5.376 3.456-8.704-0.256-1.28-7.04-31.872-40.96-43.008-0.384-0.128-0.64-0.256-1.024-0.256l-6.144-1.28c18.944-19.84 65.28-62.592 134.656-90.496 74.24-29.952 115.456-37.248 115.84-37.248zM79.744 880.128l-15.488-15.488 3.584-3.584 15.488 15.488-3.584 3.584z m-48.64 49.92c-4.864 1.92-9.856 0.896-13.568-2.816-3.712-3.712-4.736-8.832-2.688-13.696l5.76-14.208 32.512-12.288 4.736 4.736-12.288 32.512-14.464 5.76z m59.008-65.792l-9.984-9.984 470.016-470.016 9.984 9.984L90.112 864.256z m478.464-515.328l30.72 30.72-6.656 6.656-30.72-30.72 6.656-6.656zM742.4 258.56c-1.92 2.304-2.432 5.504-1.408 8.32 1.024 2.816 3.456 4.864 6.4 5.504l20.48 4.096c11.264 3.84 18.304 10.496 22.656 16.64-10.88-1.408-24.448-2.432-36.48-3.2-21.248-1.408-52.736 12.416-93.824 40.96-21.12 14.72-39.168 29.44-48.256 37.12l-31.744-31.744C607.232 302.848 741.248 140.16 811.136 112.64c79.104-31.232 147.584-8.704 179.712 6.272-19.84 5.248-52.48 15.232-97.024 33.024-96.768 38.912-149.248 103.808-151.424 106.624z" fill="#2c2c2c" p-id="10900"></path></svg>