<?xml version="1.0" standalone="no"?><!DOCTYPE svg PUBLIC "-//W3C//DTD SVG 1.1//EN" "http://www.w3.org/Graphics/SVG/1.1/DTD/svg11.dtd"><svg t="1618391197251" class="icon" viewBox="0 0 1024 1024" version="1.1" xmlns="http://www.w3.org/2000/svg" p-id="12193" xmlns:xlink="http://www.w3.org/1999/xlink" width="200" height="200"><defs><style type="text/css"></style></defs><path d="M178.81345363 373.85683912c-2.3302696 0.73587461-3.86334171 3.00482133-3.55672727 5.39641381 3.00482133 25.81693329 13.49103405 49.67153381 29.49630634 67.02590956 9.62769235 10.36356695 20.84977967 18.028927 32.93038785 22.62814332l0 25.26502734c-4.47657054-0.55190596-15.6986574-1.9623323-17.53834487-2.20762384-10.6088585-2.51423779-19.37803093-11.03811869-24.95841244-17.72231306-1.71704075-2.08497805-4.72186207-2.51423825-6.86816256-0.8585199-3.00482133 2.14630094-18.39686478 10.5475356-21.83094628 10.67018138-7.66536053-0.18396865-12.93912808-7.42006851-12.93912761-7.420069-0.91984327-1.28778056-2.45291538-2.08497805-4.10863323-2.14630095-1.59439499 0-3.18878997 0.73587461-4.10863326 2.0236552-5.8869964 7.97197446-24.65179801 12.8778052-31.39731527 13.98161711-46.5440672 8.1559436-81.49810975 15.88262654-85.36145146 16.67982402-1.53307211 0.30661442-2.75952979 1.28778056-3.43408104 2.69820642-0.67455172 1.41042635-0.67455172 3.00482133-0.06132289 4.35392477 0.61322885 1.22645768 1.65571787 2.14630094 2.94349845 2.57556116l0.55190596 0.18396865c6.43890284 1.41042635 40.77971655 8.89181772 85.36145098 16.67982353 6.74551726 1.22645768 25.57164174 6.07096553 31.45863815 14.04294001 0.91984327 1.28778056 2.51423825 2.02365518 4.10863326 2.02365519 1.59439499 0 3.12746709-0.79719748 4.04731035-2.08497807 0.06132289-0.06132289 5.33509044-7.29742274 12.93912809-7.42006851 3.4954044 0.18396865 18.82612497 8.52388042 21.76962245 10.60885849 2.14630094 1.65571787 5.21244515 1.28778056 6.92948591-0.79719749 5.5190591-6.74551679 14.34955442-15.2080748 24.95841292-17.72231259 1.83968653-0.24529153 13.06177337-1.65571787 17.53834392-2.20762383L237.74474297 555.31124629c-12.0806077 4.59921583-23.30269504 12.26457588-32.93038739 22.62814284-16.00527229 17.35437575-26.55280791 41.14765338-29.55762875 66.96458715-0.30661442 2.39159248 1.22645768 4.66053921 3.5567268 5.39641334 2.3302696 0.73587461 4.84450785-0.42926018 5.8869969-2.57556114 17.78363593-35.44462564 52.98296956-58.37938335 89.65405286-58.3793829 24.89709003 0 46.85068162 12.87780473 60.9549445 23.67063188 1.77836364 1.41042635 4.35392477 1.41042635 6.19361084-0.0613224 1.22645768-0.98116615 1.90100942-2.39159248 1.9010094-3.98598748 0-0.73587461-0.18396865-1.41042635-0.49058307-2.08497807-10.36356742-22.87343485-26.9207452-40.04384147-46.17612989-49.24227409 0.12264577-0.49058307 0.18396865-0.91984327 0.18396865-1.41042634l0-27.96323424 22.81211149-0.61322836c2.20762383 9.07578686 6.80683967 13.79764847 7.97197495 14.96278278 8.70784909 8.5852033 30.72276402 21.03374833 52.61503272 7.23610033 18.27421901-11.52870175 32.37848142-11.77399328 35.44462564-7.60403716 1.53307211 2.14630094 4.29260189 3.18878997 6.86816255 2.4529149 2.57556114-0.61322885 4.53789343-2.82085267 4.84450738-5.45773621 0.06132289-0.42926018 0.67455172-5.21244515-1.22645722-12.01928483L913.03231505 527.47065781c0.79719748 1.77836364 2.57556114 2.94349844 4.53789344 2.94349845l13.98161711-4.9e-7c2.82085267 0 5.0284765-2.20762383 5.02847604-5.02847601 0.85852038 0.61322885 1.90100942 1.04248904 3.00482132 1.04248904 1.47174923 0 2.69820691-0.61322885 3.61805016-1.5330721L966.56719106 535.38130988c1.28778056 0.55190596 2.75952979 0.55190596 4.04730988-4.7e-7l12.75515943-5.39641333c7.29742323-3.12746709 11.95796194-9.99562965 11.95796193-17.96760461l0-0.12264576c0-7.97197494-4.53789295-14.8401375-11.83531569-17.96760412l-12.81648279-5.58038245c-1.28778056-0.55190596-2.75952979-0.55190596-4.04730989 4.8e-7l-22.93475772 10.3022436c-0.91984327-1.28778056-2.39159248-2.02365518-4.04731037-2.08497808-1.22645768 0-2.26894672 0.42926018-3.06614372 1.1038124-0.42926018-2.26894672-2.45291538-4.04731035-4.90583074-4.04731036l-13.98161665 0c-1.9623323 0-3.80201882 1.22645768-4.53789342 2.94349844l-488.37542967 0c-7.17477698-9.01446349-26.79809897-30.23218048-51.44989746-30.1095347-32.56245056 0.18396865-41.63823695 10.97679579-48.75169054 22.87343437l-0.42926019 0.79719749c-0.85852038 1.47174923-1.83968653 3.31143575-2.69820691 6.13228842l-24.22253829-0.67455172 0-27.96323424c0-0.49058307-0.06132289-0.91984327-0.18396866-1.41042634 19.31670804-9.13710927 35.81256293-26.36883878 46.17612989-49.2422741 0.30661442-0.67455172 0.42926018-1.41042635 0.49058259-2.08497758 0-1.47174923-0.67455172-3.00482133-1.90100893-3.98598699-1.77836364-1.41042635-4.35392477-1.41042635-6.19361083-0.06132336-14.10426289 10.79282713-36.05785399 23.67063233-60.95494449 23.67063281-36.67108284 0-71.87041741-22.93475773-89.65405287-58.37938385-1.34910345-1.83968653-3.80201882-2.94349844-6.19361132-2.26894671z m136.38208873 209.47896381c2.88217556 3.00482133 5.64170487 6.25493371 8.15594312 9.75033811-16.31188672-9.07578639-32.99171027-13.85897135-48.99698209-13.79764846-31.39731576 0-61.75214199 15.14675191-82.90853608 40.10516483 1.71704075-4.66053921 3.74069545-9.25975503 5.94831928-13.55235693 14.47220018-27.47265067 39.30796686-45.44025528 66.90326379-45.44025527 18.88744737 0 36.79372909 8.33991177 50.89799198 22.93475772z m-67.45516974-109.52266638l4.66053919 0 0 20.48184235-4.66053919 0 0-20.48184235z m4.7e-7 76.53095613l0-20.48184238 4.66053872-4.8e-7 0.0613224 20.54316574-4.72186112-0.06132289z m39.30796685-20.42051949L287.04833995 551.3865817l-4.66053921 0 0-21.46300851 4.6605392 0z m-14.84013701 20.84977967c-2.57556114-0.24529153-5.21244515-0.42926018-7.91065207-0.42926019l-1.83968652 0 0-20.97242544 9.68901523-0.24529202 0.06132336 21.64697765zM968.6521691 498.46493455l10.79282668 4.66053921c3.61805017 1.53307211 5.825674 4.84450785 5.76435111 8.83049532 0 3.92466458-2.20762383 7.23610033-5.82567351 8.76917197l-10.67018138 4.53789294L944.61359898 514.40888398l4.9e-7-5.1511218 24.03856964-10.79282763z m-541.84898181 10.54753608c0.67455172-0.67455172 1.16513481-1.41042635 1.47174923-2.20762381L912.41908621 506.74352392l4.8e-7 10.67018138-490.21511571-4.8e-7c-1.90100942-3.25011286-4.35392477-6.68419438-7.66536053-10.11827493 1.34910345 0.61322885 2.63688401 1.41042635 3.92466459 2.33026959 2.57556114 1.83968653 6.07096553 1.53307211 8.33991225-0.61322885z m495.7954977-5.21244516l3.92466461 0L926.5233491 520.35720373l-3.92466411-4.7e-7 0-16.55717779zM335.67738473 496.13466543c4.72186161-8.03329735 9.68901522-16.31188672 37.59092658-16.49585538 10.60885897-0.06132289 20.3591966 5.51905957 27.96323375 11.7739933-2.57556114 0.12264577-4.84450785 0.67455172-6.62287053 1.47174923-3.00482133 1.41042635-4.78318496 3.92466458-4.90583074 6.86816302-0.12264577 1.83968653 0.3679373 5.27376803 4.78318448 8.09462024 3.43408151 2.20762383 6.25493419 4.41524767 8.6465262 6.6841939-7.05213168-3.86334171-17.10908422-6.43890236-31.02937796-4.04730989-3.55672729 0.61322885-5.94831977 3.98598748-5.33509045 7.54271429 0.61322885 3.55672729 3.98598748 5.94831977 7.54271428 5.33509044 12.63251366-2.20762334 20.60448813 0.98116615 25.26502733 4.41524766-7.97197494 1.59439499-16.8637922 5.33509093-26.12354723 11.16076445-18.76480208 11.77399328-36.42579177-5.39641334-36.54843802-5.51905957l-0.24529156-0.24529155c-0.55190596-0.55190596-5.08979939-5.4577367-4.96715313-16.0052723 0.06132289-9.7503386 1.22645768-16.55717777 3.43408103-20.23655034l0.55190597-0.7971975z m-117.49464087 5.64170487c0.18396865 0.06132289 0.30661442 0.06132289 0.49058307 0.12264577 0 0 14.59484547 1.83968653 18.64215585 2.33026958 0.12264577 0 0.30661442 0.06132289 0.49058308 0l81.49810974 2.14630049c-0.30661442 3.00482133-0.55190596 6.56154861-0.61322884 10.67018184l0 0.73587461-80.94620379 2.20762335-0.49058309 0c-4.04731035 0.49058307-18.64215584 2.3302696-18.64215584 2.3302696-0.12264577 0-0.30661442 0.06132289-0.49058306 0.12264577-8.70784957 1.9623323-17.04776133 6.99080832-24.95841243 14.9014604-0.98116615 0.98116615-1.9623323 1.9623323-2.88217557 3.00482132-6.31625707-3.74069594-18.39686478-10.30224407-24.03857013-10.17959831-7.54271476 0.18396865-13.30706539 4.10863277-16.8637922 7.29742323-11.16076445-9.44372369-31.09070086-13.18441962-33.66626197-13.6750027-24.83576715-4.35392477-46.42142142-8.64652668-61.81346441-11.77399377 15.26939721-3.12746709 37.03902062-7.35874563 61.75214152-11.71266991 2.51423825-0.42926018 22.50549754-4.23127901 33.66626198-13.67500272 3.61805017 3.25011286 9.32107792 7.11345409 16.86379269 7.29742274 5.64170533 0.12264577 17.72231307-6.43890236 24.03856916-10.17959829 0.67455172 0.79719748 1.41042635 1.53307211 2.14630095 2.26894673 8.15594312 8.40123465 16.86379268 13.67500269 25.81693329 15.75998028z m44.33644337-6.92948593l0-20.97242542 1.83968652 0c2.69820691 0 5.27376803-0.12264577 7.91065158-0.42925971L272.20820245 495.09217641l-9.68901522-0.24529203z m24.46782984-22.01491445l-4.9e-7 21.46300898-4.66053824 0 0-21.46300851 4.66053873-4.7e-7z m-12.57119079-27.90191088c15.94394894 0 32.62377297-4.78318449 48.99698256-13.79764798-2.51423825 3.4954044-5.27376756 6.74551679-8.0946207 9.68901474-14.10426289 14.59484597-32.07186749 22.99608063-50.83666863 22.9960811-27.59529694 0-52.49238649-18.02892747-66.90326378-45.56290105-2.26894672-4.23127901-4.23127853-8.76917197-5.94831928-13.42971117 21.03374833 24.95841292 51.38857506 40.10516435 82.78588983 40.10516437z" fill="#2c2c2c" p-id="12194"></path><path d="M192.42713345 486.07771291c8.09462024 8.33991177 16.8024698 13.61367982 25.75561041 15.6986574 0.18396865 0.06132289 0.30661442 0.06132289 0.49058307 0.12264576 0 0 14.59484547 1.83968653 18.64215585 2.33026959 0.12264577 0 0.30661442 0.06132289 0.49058308 0l81.49810974 2.14630048c-0.30661442 3.00482133-0.55190596 6.56154861-0.61322884 10.67018185l0 0.7358746-80.94620379 2.20762336-0.49058309 0c-4.04731035 0.49058307-18.64215584 2.3302696-18.64215584 2.33026959-0.12264577 0-0.30661442 0.06132289-0.49058306 0.12264577-8.70784957 1.9623323-17.04776133 6.99080832-24.95841243 14.9014604-4.90583075-4.04731035-21.34036275-12.75515895-25.81693378-12.69383657-9.62769283 0.18396865-15.69865788 5.1511218-15.69865739 5.15112229-7.78800582-6.19361082-22.07623735-9.56636993-22.07623735-9.56636994C98.60312494 514.16359243 75.11646126 512.01729148 75.11646126 512.01729148c2.63688401-0.30661442 23.42534081-2.20762383 54.08678145-8.21726601 0 0 14.59484597-3.43408103 22.26020553-9.62769233 0 0 6.07096553 5.08979939 15.75998076 5.21244468 4.59921632 0.18396865 17.29305288-7.97197446 25.20370445-13.30706491zM276.31683568 451.12367034c17.35437527-0.67455172 28.82175462-4.53789343 38.94002957-10.36356743-14.10426289 14.59484597-32.07186749 22.99608063-50.83666861 22.9960811-27.59529694 0-52.49238649-18.02892747-66.90326379-45.56290105 17.53834393 20.97242543 46.78935825 34.27949083 78.79990283 32.93038738zM276.31683522 573.03355887c-32.0105446-1.34910345-61.20023603 12.01928482-78.79990286 32.80774161 14.47220018-27.47265067 39.30796686-45.44025528 66.9032638-45.44025527 18.76480161 0 36.67108332 8.33991177 50.77534619 22.93475772-10.05695254-5.76435063-21.58565429-9.56636993-38.87870713-10.30224406z" fill="#2c2c2c" p-id="12195"></path></svg>