<?xml version="1.0" standalone="no"?><!DOCTYPE svg PUBLIC "-//W3C//DTD SVG 1.1//EN" "http://www.w3.org/Graphics/SVG/1.1/DTD/svg11.dtd"><svg t="1618389883900" class="icon" viewBox="0 0 1024 1024" version="1.1" xmlns="http://www.w3.org/2000/svg" p-id="1396" xmlns:xlink="http://www.w3.org/1999/xlink" width="200" height="200"><defs><style type="text/css"></style></defs><path d="M950.656 120.576l-84.864 39.296L904.96 75.008l78.208-32.64z" fill="#2c2c2c" p-id="1397"></path><path d="M973.056 139.392l50.816-126.336c1.28-3.072 0.512-6.656-1.792-9.088s-6.016-3.072-9.088-1.792l-126.336 50.816c-2.176 0.896-3.84 2.56-4.608 4.608l-34.304 85.376c-1.28 0.384-2.56 1.024-3.584 2.048l-9.472 9.472c-2.944-1.152-6.4-0.512-8.832 1.92l-16.512 16.512c-2.432 2.432-3.072 5.888-1.92 8.832l-3.584 3.584c-8.064-2.432-14.592-1.28-15.744-1.024-3.328 0.64-47.488 9.728-63.232 51.456-13.696 36.352-32.256 52.864-40.96 52.864-2.432 0-4.736 1.408-5.888 3.584-1.152 2.176-1.024 4.864 0.384 6.912 0.256 0.256 2.048 2.944 6.016 5.76L60.288 928.896c-2.944-1.152-6.4-0.512-8.832 1.92l-16.512 16.512c-3.328 3.328-3.328 8.576 0 11.904-1.792 0.256-3.456 1.024-4.736 2.304-0.384 0.384-0.768 0.896-1.152 1.408l-11.264 4.224c-5.632 2.176-10.112 6.528-12.288 12.032l-1.152 2.816c-4.608 11.52-2.048 24.064 6.656 32.768l0.128 0.128c8.704 8.704 21.248 11.264 32.64 6.784l2.944-1.152c5.632-2.304 10.112-6.784 12.288-12.416l3.584-9.6c1.024-0.384 1.92-1.024 2.816-1.792 1.408-1.408 2.176-3.2 2.432-4.992 3.328 2.176 7.68 1.792 10.624-1.024L94.72 974.208c2.432-2.432 3.072-5.888 1.92-8.832L730.88 331.136c19.072-2.56 48.512-10.24 70.144-32 39.424-39.68 37.632-58.24 36.224-73.088l-0.128-1.024 6.656-6.656c2.944 1.152 6.4 0.512 8.832-1.92l16.512-16.512c2.432-2.432 3.072-5.888 1.92-8.832l9.472-9.472c0.896-0.896 1.408-1.792 1.92-2.816l86.016-34.56c2.048-1.024 3.712-2.816 4.608-4.864z m-147.84 61.312l6.144 6.144-0.768 0.768c-1.536-2.176-3.328-4.48-5.376-6.912z m9.984-22.912l12.672 12.672-4.608 4.608-12.672-12.672 4.608-4.608z m11.904-11.904l3.072-3.072 12.672 12.672-3.072 3.072-12.672-12.672z m-119.424 144.128c-4.992 3.584-11.136 7.168-17.792 9.216-3.072 1.024-4.992 4.096-4.608 7.424 0.256 1.536 0.896 2.816 1.92 3.84 0.128 0.128 0.256 0.256 0.384 0.256l-622.08 622.08-12.672-12.672 628.736-628.736c6.912 1.024 15.488 0.896 26.112-1.408z m-655.36 662.912l-19.584-19.584 4.608-4.608 19.584 19.584-4.608 4.608z m-32 32.128l-2.944 1.152c-5.248 2.048-10.624 0.896-14.592-3.072-3.968-3.968-5.12-9.472-2.944-14.72l1.152-2.816c0.512-1.152 1.408-2.176 2.688-2.56l11.52-4.352 12.16 12.16-4.352 11.392c-0.384 1.28-1.408 2.304-2.688 2.816z m751.232-715.52c-14.336 14.464-33.024 21.76-48.768 25.6 5.632-5.12 9.472-10.24 10.112-14.08 0.64-3.072-0.384-5.888-2.56-7.808-2.56-2.176-6.144-2.56-10.496-0.896-14.08 5.248-24.704 6.528-32.384 6.016-0.256-0.64-0.512-1.152-0.896-1.664 10.496-0.128 33.664-4.608 57.728-35.584 2.304-2.944 1.792-7.168-1.152-9.472a6.7328 6.7328 0 0 0-9.472 1.152c-15.488 19.968-29.824 27.008-39.168 29.312 8.576-10.624 16.512-24.96 22.784-41.728 11.264-29.952 42.112-41.216 53.12-43.008 0.128 0 0.256 0 0.384-0.128 0.128 0 10.496-2.048 19.712 7.168l0.256 0.256c12.16 12.544 12.8 18.944 12.928 20.992l0.128 1.28c1.28 12.416 2.688 27.392-32.256 62.592z m83.072-125.952l-12.288-12.288 33.92-84.224L1000.96 25.088l-42.112 104.704-84.224 33.792z" fill="#2c2c2c" p-id="1398"></path></svg>