<?xml version="1.0" standalone="no"?><!DOCTYPE svg PUBLIC "-//W3C//DTD SVG 1.1//EN" "http://www.w3.org/Graphics/SVG/1.1/DTD/svg11.dtd"><svg t="1618391385160" class="icon" viewBox="0 0 1024 1024" version="1.1" xmlns="http://www.w3.org/2000/svg" p-id="14447" data-spm-anchor-id="a313x.7781069.0.i109" xmlns:xlink="http://www.w3.org/1999/xlink" width="200" height="200"><defs><style type="text/css"></style></defs><path d="M320.757399 284.016791L956.273154 919.404906 970.568748 972.885746l-51.055694-16.72074L283.997299 320.649251" fill="#D6D4E2" p-id="14448" data-spm-anchor-id="a313x.7781069.0.i106" class=""></path><path d="M386.619245 170.673149l-52.842644-6.254322c-10.976974-1.276392-23.35798 2.425145-29.99522 9.062386l-35.10079 35.100789-120.874356-120.874356c-1.021114-1.021114-2.169867-2.042228-3.44625901-2.935702 0.382918-0.382918 0.765835-0.638196 1.14875301-1.02111399 3.063342-3.063342 5.616126-6.63724 7.40307499-10.59405701 10.338778-21.953949 0.893475-48.37527-21.18811299-58.714048-14.933791-7.020158-31.65453-6.63724-45.950125 0.638196-19.784082-17.614215-50.289859-16.848379-69.30810499 2.042228-19.018246 19.018246-19.656442 49.651663-1.91458801 69.435744-6.892519 14.040316-7.147797 30.633417-0.382918 45.05665 4.97793 10.721696 13.912677 18.762968 24.889651 22.719784 11.104614 3.956816 23.102702 3.446259 33.696758-1.531671 3.956816-1.914589 7.53071499-4.339734 10.594057-7.403075 0.382918-0.382918 0.765835-0.765835 1.021114-1.148753 0.89347501 1.148753 1.786949 2.297506 2.935702 3.446259l120.874356 120.874356-35.100789 35.10079c-6.63724 6.63724-10.338778 19.018246-9.062386 29.99522l6.254322 52.842644c1.65931 14.040316 7.530715 23.740898 16.082544 26.80424 6.12668301 2.169867 12.891563 0.382918 17.869493-4.722652l57.310017-57.310017L901.643561 991.138156c1.404032 1.404032 3.063342 2.297506 4.850291 2.80806399L1009.626354 1023.558522c3.956816 1.148753 8.168911 0 11.104614-2.808063 2.935702-2.935702 3.956816-7.14779699 2.808063-11.104613L994.054367 906.513343c-0.510557-1.786949-1.531671-3.573899-2.808063-4.850291L351.390816 261.935203l57.310017-57.310017c5.105569-5.105569 6.764879-11.74281001 4.722651-17.869493-2.935702-8.679468-12.763924-14.423234-26.804239-16.082544zM211.115296 182.798877L224.645055 196.328636l-28.335911 28.33591001-13.529759-13.52975901 28.335911-28.33591z m-44.290815 12.381006l-13.529759-13.52975899 28.33591-28.33591101 13.529759 13.529759-28.33591 28.335911z m-1.148753-57.692935l-28.33591 28.335911L123.810059 152.2931l28.33591-28.335911 13.529759 13.529759z m46.588321 103.004863l28.33591-28.33591 9.57294301 9.572943-28.33591001 28.33591-9.572943-9.572943zM118.449211 103.662551c3.701538-3.701538 9.82822101-3.701538 13.529759 0l4.339734 4.339734-28.335911 28.33591-4.339734-4.339734c-3.701538-3.701538-3.701538-9.82822101 0-13.529759L118.449211 103.662551z m-55.012511 28.974106c-5.23320901 2.425145-11.104614 2.680424-16.465461 0.765836-5.360848-1.914589-9.70058199-5.871405-12.253367-11.104614-4.722652-10.0835-3.446259-21.826309 3.31862-30.761056l0-0.127639c0.127639-0.127639 0.127639-0.255278 0.255279-0.382918 0.127639-0.127639 0.255278-0.255278 0.255278-0.51055699 0.127639-0.127639 0.127639-0.382918 0.255279-0.51055601 0.127639-0.127639 0.127639-0.382918 0.255278-0.510557 0.127639-0.127639 0.127639-0.382918 0.255279-0.510557 0.127639-0.127639 0.127639-0.382918 0.255278-0.510557 0-0.127639 0.127639-0.382918 0.127639-0.510557 0-0.127639 0.127639-0.382918 0.12764-0.51055699 0-0.127639 0.127639-0.382918 0.127639-0.51055701 0-0.127639 0.127639-0.382918 0.127639-0.510557l0-3.06334199c0-0.127639 0-0.38291799-0.127639-0.51055701 0-0.127639-0.127639-0.382918-0.127639-0.510557 0-0.127639-0.127639-0.382918-0.12764-0.510557 0-0.127639-0.127639-0.382918-0.127639-0.510556 0-0.127639-0.127639-0.382918-0.255278-0.510557-0.127639-0.127639-0.127639-0.382918-0.255279-0.510557-0.127639-0.127639-0.127639-0.382918-0.255278-0.510557-0.127639-0.127639-0.127639-0.382918-0.255279-0.510557-0.127639-0.127639-0.255278-0.255278-0.255278-0.51055699-0.127639-0.127639-0.127639-0.255278-0.255279-0.51055701-0.127639-0.127639-0.255278-0.255278-0.382917-0.510557l-0.382918-0.382918-0.382918-0.382917-0.382918-0.382918c-0.127639-0.127639-0.255278-0.255278-0.510557-0.382918-0.127639-0.127639-0.255278-0.255278-0.382917-0.255278l-0.127639 0c-1.148753-0.89347501-2.297506-1.786949-3.318621-2.808064-10.976974-10.976974-10.976974-28.718828 0-39.568163s28.718828-10.976974 39.568163 0c1.021114 1.021114 1.91458901 2.169867 2.808064 3.190981l0.127639 0.12764 0.12763901 0.127639 0.25527899 0.255278 0.382917 0.38291799 0.382918 0.382918 0.382918 0.38291701 0.38291701 0.382918c0.127639 0.127639 0.255278 0.255278 0.51055699 0.382918 0.127639 0.127639 0.255278 0.255278 0.510557 0.255278 0.127639 0.127639 0.255278 0.255278 0.510557 0.255279 0.127639 0.127639 0.382918 0.127639 0.510557 0.255278 0.127639 0.127639 0.255278 0.127639 0.510557 0.255279 0.127639 0.127639 0.382918 0.127639 0.510557 0.255278 0.127639 0 0.382918 0.127639 0.510557 0.127639 0.127639 0 0.382918 0.127639 0.51055701 0.12764 0.127639 0 0.382918 0.127639 0.51055699 0.127639 0.127639 0 0.382918 0.127639 0.510557 0.12763901 0.127639 0 0.38291799 0 0.510557 0.12763899l2.552784 0c0.127639 0 0.38291799 0 0.51055701-0.127639 0.127639 0 0.38291799 0 0.51055699-0.127639 0.127639 0 0.382918-0.127639 0.51055699-0.127639 0.127639 0 0.382918-0.127639 0.51055701-0.12764 0.127639 0 0.382918-0.127639 0.510557-0.127639 0.127639-0.127639 0.382918-0.127639 0.510557-0.255278 0.127639-0.127639 0.382918-0.127639 0.510557-0.255279 0.127639-0.127639 0.382918-0.127639 0.510557-0.255278 0.127639-0.127639 0.255278-0.127639 0.510557-0.255279 0.127639-0.127639 0.382918-0.255278 0.510557-0.382917 0.127639-0.127639 0.255278-0.127639 0.255278-0.255279l0.12764-0.127639 0.127639-0.127639c8.934746-7.14779699 20.805195-8.551829 31.143973-3.701538 10.721696 5.105569 15.444348 17.869493 10.338778 28.718828-1.65931 3.573899-4.722652 6.381962-8.424189 7.785993-3.829177 1.404032-7.78599299 1.148753-11.487531-0.510557-5.871405-2.680424-7.020158-5.105569-5.999044-11.870449 1.021114-6.126683-3.190981-11.998088-9.317665-13.019202-6.126683-1.021114-11.998088 3.190981-13.019202 9.317664-2.552785 15.444348 2.935702 27.314796 15.95490501 34.590233l-10.594057 10.594057c-7.147797-13.019202-19.018246-18.507689-34.59023301-15.954905-6.126683 1.021114-10.338778 6.764879-9.317664 13.019202 1.021114 6.126683 6.764879 10.338778 13.019202 9.317665 6.63724-1.148753 9.062386 0.127639 11.870449 5.999044 1.65931 3.573899 1.914589 7.658354 0.510557 11.487531-0.638196 3.573899-3.31862001 6.509601-7.020158 8.29655zM973.121533 915.575729l23.102701 80.795636-80.795636-23.10270199-637.685621-637.68562101 57.692934-57.692935L973.121533 915.575729z m-779.492812-527.78824c-0.255278-1.021114-0.510557-2.297506-0.638197-3.829177l-6.254322-52.842643c-0.510557-4.722652 1.404032-10.211139 2.680424-11.487531l130.319659-130.31966c1.276392-1.276392 6.63724-3.190981 11.487532-2.680424l52.842643 6.25432301c1.404032 0.127639 2.680424 0.382918 3.829177 0.63819599L193.628721 387.787489z" fill="#2c2c2c" p-id="14449" data-spm-anchor-id="a313x.7781069.0.i108" class=""></path><path d="M862.075398 838.736909c4.339734-4.339734 4.339734-11.487531 0-15.954904l-502.64331-502.643311c-4.339734-4.339734-11.487531-4.339734-15.95490501 0-4.339734 4.339734-4.339734 11.487531 1e-8 15.95490499L846.120493 838.736909c4.339734 4.339734 11.487531 4.339734 15.954905 0z" fill="#A3A9BC" p-id="14450" data-spm-anchor-id="a313x.7781069.0.i110" class=""></path></svg>