<?xml version="1.0" standalone="no"?><!DOCTYPE svg PUBLIC "-//W3C//DTD SVG 1.1//EN" "http://www.w3.org/Graphics/SVG/1.1/DTD/svg11.dtd"><svg t="1618392092469" class="icon" viewBox="0 0 1024 1024" version="1.1" xmlns="http://www.w3.org/2000/svg" p-id="22325" xmlns:xlink="http://www.w3.org/1999/xlink" width="200" height="200"><defs><style type="text/css"></style></defs><path d="M88.5 404.9H62.8c-5.1 0-9.3-4.2-9.3-9.3s4.2-9.3 9.3-9.3h12.8c1.7 0 3 1.4 3 3v6.2c0 1.7-1.4 3-3 3s-3-1.4-3-3v-3.2h-9.8c-1.8 0-3.2 1.4-3.2 3.2s1.4 3.2 3.2 3.2h22.6v-9.4c0-1.7 1.4-3 3-3h24.2c1.7 0 3 1.4 3 3 0 1.7-1.4 3-3 3H91.5v9.4c0 1.8-1.3 3.2-3 3.2zM38.8 466.5c-1.7 0-3-1.4-3-3v-24.2c0-1.7 1.4-3 3-3h9.4v-22.6c0-1.8-1.4-3.2-3.2-3.2-1.8 0-3.2 1.4-3.2 3.2v9.8H45c1.7 0 3 1.4 3 3 0 1.7-1.4 3-3 3h-6.2c-1.7 0-3-1.4-3-3v-12.8c0-5.1 4.2-9.3 9.3-9.3 5.1 0 9.3 4.2 9.3 9.3v25.7c0 1.7-1.4 3-3 3H42v21.1c-0.2 1.6-1.5 3-3.2 3z" fill="#E50012" p-id="22326"></path><path d="M45 409.9c-1.7 0-3-1.4-3-3V402c0-1.7 1.4-3 3-3 1.7 0 3 1.4 3 3v4.9c0.1 1.6-1.3 3-3 3z" fill="#E50012" p-id="22327"></path><path d="M45 404.8c-5 0-9-4.1-9-9 0-5 4.1-9 9-9s9 4.1 9 9c0 1.7-1.4 3-3 3-1.7 0-3-1.4-3-3s-1.3-3-3-3c-1.6 0-3 1.3-3 3 0 1.6 1.3 3 3 3s3 1.4 3 3c0.1 1.6-1.3 3-3 3z" fill="#E50012" p-id="22328"></path><path d="M41.8 410.9c-10.1 0-18.3-8.2-18.3-18.3 0-10.1 8.2-18.3 18.3-18.3 10.1 0 18.3 8.2 18.3 18.3 0 1.7-1.4 3-3 3-1.7 0-3-1.4-3-3 0-6.8-5.5-12.2-12.2-12.2-6.8 0-12.2 5.5-12.2 12.2s5.5 12.2 12.2 12.2c1.7 0 3 1.4 3 3 0 1.7-1.4 3.1-3.1 3.1z" fill="#E50012" p-id="22329"></path><path d="M56.2 398.8h-5.1c-1.7 0-3-1.4-3-3 0-1.7 1.4-3 3-3h5.1c1.7 0 3 1.4 3 3 0.1 1.6-1.3 3-3 3zM30.2 537.7c-1.7 0-3-1.4-3-3V403.5c0-1.7 1.4-3 3-3 1.7 0 3 1.4 3 3v131.2c0.1 1.6-1.3 3-3 3zM899 383.9H53.1c-1.7 0-3-1.4-3-3 0-1.7 1.4-3 3-3H899c1.7 0 3 1.4 3 3 0.1 1.6-1.3 3-3 3zM51.3 477.6H38.8c-1.7 0-3-1.4-3-3 0-1.7 1.4-3 3-3h9.4v-21.1c0-1.7 1.4-3 3-3 1.7 0 3 1.4 3 3v24.2c0.1 1.5-1.2 2.9-2.9 2.9z" fill="#E50012" p-id="22330"></path><path d="M45 492.4c-1.7 0-3-1.4-3-3v-14c0-1.7 1.4-3 3-3 1.7 0 3 1.4 3 3v14c0.1 1.6-1.3 3-3 3z" fill="#E50012" p-id="22331"></path><path d="M124.2 404.9H100c-1.7 0-3-1.4-3-3 0-1.7 1.4-3 3-3h21.1v-9.4c0-1.7 1.4-3 3-3s3 1.4 3 3V402c0.1 1.5-1.3 2.9-2.9 2.9z" fill="#E50012" p-id="22332"></path><path d="M138.9 398.7h-14c-1.7 0-3-1.4-3-3 0-1.7 1.4-3 3-3h14c1.7 0 3 1.4 3 3 0.1 1.6-1.3 3-3 3z" fill="#E50012" p-id="22333"></path><path d="M975.1 404.9h-25.7c-1.7 0-3-1.4-3-3v-9.4h-21.1c-1.7 0-3-1.4-3-3 0-1.7 1.4-3 3-3h24.2c1.7 0 3 1.4 3 3v9.4h22.6c1.8 0 3.2-1.4 3.2-3.2s-1.4-3.2-3.2-3.2h-9.8v3.2c0 1.7-1.4 3-3 3s-3-1.4-3-3v-6.2c0-1.7 1.4-3 3-3h12.8c5.1 0 9.3 4.2 9.3 9.3s-4.1 9.1-9.3 9.1zM999.2 466.5c-1.7 0-3-1.4-3-3v-21.1h-9.4c-1.7 0-3-1.4-3-3v-25.7c0-5.1 4.2-9.3 9.3-9.3s9.3 4.2 9.3 9.3v12.8c0 1.7-1.4 3-3 3h-6.2c-1.7 0-3-1.4-3-3 0-1.7 1.4-3 3-3h3.2v-9.8c0-1.8-1.4-3.2-3.2-3.2s-3.2 1.4-3.2 3.2v22.6h9.4c1.7 0 3 1.4 3 3v24.2c-0.2 1.6-1.6 3-3.2 3z" fill="#E50012" p-id="22334"></path><path d="M992.9 409.9c-1.7 0-3-1.4-3-3V402c0-1.7 1.4-3 3-3s3 1.4 3 3v4.9c0.1 1.6-1.3 3-3 3z" fill="#E50012" p-id="22335"></path><path d="M992.9 404.8c-1.7 0-3-1.4-3-3 0-1.7 1.4-3 3-3s3-1.3 3-3c0-1.6-1.3-3-3-3-1.6 0-3 1.3-3 3s-1.4 3-3 3c-1.7 0-3-1.4-3-3 0-5 4.1-9 9-9s9 4.1 9 9c0.1 4.9-4 9-9 9z" fill="#E50012" p-id="22336"></path><path d="M996.1 410.9c-1.7 0-3-1.4-3-3 0-1.7 1.4-3 3-3 6.8 0 12.2-5.5 12.2-12.2s-5.5-12.2-12.2-12.2c-6.8 0-12.2 5.5-12.2 12.2 0 1.7-1.4 3-3 3-1.7 0-3-1.4-3-3 0-10.1 8.2-18.3 18.3-18.3 10.1 0 18.3 8.2 18.3 18.3-0.1 10-8.3 18.2-18.4 18.2z" fill="#E50012" p-id="22337"></path><path d="M986.8 398.8h-5.1c-1.7 0-3-1.4-3-3 0-1.7 1.4-3 3-3h5.1c1.7 0 3 1.4 3 3s-1.3 3-3 3zM1007.8 537.7c-1.7 0-3-1.4-3-3V403.5c0-1.7 1.4-3 3-3 1.7 0 3 1.4 3 3v131.2c0 1.6-1.4 3-3 3zM984.9 383.9H899c-1.7 0-3-1.4-3-3 0-1.7 1.4-3 3-3h85.9c1.7 0 3 1.4 3 3s-1.3 3-3 3zM999.2 477.6h-12.5c-1.7 0-3-1.4-3-3v-24.2c0-1.7 1.4-3 3-3 1.7 0 3 1.4 3 3v21.1h9.4c1.7 0 3 1.4 3 3 0.1 1.7-1.3 3.1-2.9 3.1z" fill="#E50012" p-id="22338"></path><path d="M992.9 492.4c-1.7 0-3-1.4-3-3v-14c0-1.7 1.4-3 3-3s3 1.4 3 3v14c0.1 1.6-1.3 3-3 3z" fill="#E50012" p-id="22339"></path><path d="M938 404.9h-24.2c-1.7 0-3-1.4-3-3v-12.5c0-1.7 1.4-3 3-3 1.7 0 3 1.4 3 3v9.4H938c1.7 0 3 1.4 3 3 0 1.7-1.4 3.1-3 3.1z" fill="#E50012" p-id="22340"></path><path d="M913 398.7h-14c-1.7 0-3-1.4-3-3 0-1.7 1.4-3 3-3h14c1.7 0 3 1.4 3 3s-1.3 3-3 3z" fill="#E50012" p-id="22341"></path><path d="M975.1 637.6h-12.8c-1.7 0-3-1.4-3-3v-6.2c0-1.7 1.4-3 3-3s3 1.4 3 3v3.2h9.8c1.8 0 3.2-1.4 3.2-3.2 0-1.8-1.4-3.2-3.2-3.2h-22.6v9.4c0 1.7-1.4 3-3 3h-24.2c-1.7 0-3-1.4-3-3s1.4-3 3-3h21.1v-9.4c0-1.7 1.4-3 3-3h25.7c5.1 0 9.3 4.2 9.3 9.3s-4.1 9.1-9.3 9.1zM992.9 619.7c-5.1 0-9.3-4.2-9.3-9.3v-25.7c0-1.7 1.4-3 3-3h9.4v-21.1c0-1.7 1.4-3 3-3s3 1.4 3 3v24.2c0 1.7-1.4 3-3 3h-9.4v22.6c0 1.8 1.4 3.2 3.2 3.2s3.2-1.4 3.2-3.2v-9.8h-3.2c-1.7 0-3-1.4-3-3s1.4-3 3-3h6.2c1.7 0 3 1.4 3 3v12.8c0.2 5.1-4 9.3-9.1 9.3z" fill="#E50012" p-id="22342"></path><path d="M992.9 625.2c-1.7 0-3-1.4-3-3v-4.9c0-1.7 1.4-3 3-3s3 1.4 3 3v4.9c0.1 1.6-1.3 3-3 3z" fill="#E50012" p-id="22343"></path><path d="M992.9 637.3c-5 0-9-4.1-9-9 0-1.7 1.4-3 3-3 1.7 0 3 1.4 3 3s1.3 3 3 3c1.6 0 3-1.3 3-3 0-1.6-1.3-3-3-3s-3-1.4-3-3c0-1.7 1.4-3 3-3 5 0 9 4.1 9 9s-4 9-9 9z" fill="#E50012" p-id="22344"></path><path d="M996.1 649.8c-10.1 0-18.3-8.2-18.3-18.3 0-1.7 1.4-3 3-3 1.7 0 3 1.4 3 3 0 6.8 5.5 12.2 12.2 12.2 6.8 0 12.2-5.5 12.2-12.2 0-6.8-5.5-12.2-12.2-12.2-1.7 0-3-1.4-3-3 0-1.7 1.4-3 3-3 10.1 0 18.3 8.2 18.3 18.3 0.1 10-8.1 18.2-18.2 18.2z" fill="#E50012" p-id="22345"></path><path d="M986.8 631.3h-5.1c-1.7 0-3-1.4-3-3s1.4-3 3-3h5.1c1.7 0 3 1.4 3 3s-1.3 3-3 3zM1007.8 623.6c-1.7 0-3-1.4-3-3V489.3c0-1.7 1.4-3 3-3 1.7 0 3 1.4 3 3v131.2c0 1.7-1.4 3.1-3 3.1zM984.9 646.2h-846c-1.7 0-3-1.4-3-3 0-1.7 1.4-3 3-3h845.9c1.7 0 3 1.4 3 3 0.1 1.7-1.2 3-2.9 3zM986.7 576.7c-1.7 0-3-1.4-3-3v-24.2c0-1.7 1.4-3 3-3h12.5c1.7 0 3 1.4 3 3 0 1.7-1.4 3-3 3h-9.4v21.1c-0.1 1.7-1.4 3.1-3.1 3.1z" fill="#E50012" p-id="22346"></path><path d="M992.9 551.7c-1.7 0-3-1.4-3-3v-14c0-1.7 1.4-3 3-3s3 1.4 3 3v14c0.1 1.6-1.3 3-3 3z" fill="#E50012" p-id="22347"></path><path d="M913.8 637.6c-1.7 0-3-1.4-3-3v-12.5c0-1.7 1.4-3 3-3H938c1.7 0 3 1.4 3 3s-1.4 3-3 3h-21.1v9.4c-0.1 1.8-1.4 3.1-3.1 3.1z" fill="#E50012" p-id="22348"></path><path d="M913 631.4h-14c-1.7 0-3-1.4-3-3 0-1.7 1.4-3 3-3h14c1.7 0 3 1.4 3 3s-1.3 3-3 3z" fill="#E50012" p-id="22349"></path><path d="M112.7 637.6H88.5c-1.7 0-3-1.4-3-3v-9.4H62.8c-1.8 0-3.2 1.4-3.2 3.2 0 1.8 1.4 3.2 3.2 3.2h9.8v-3.2c0-1.7 1.4-3 3-3s3 1.4 3 3v6.2c0 1.7-1.4 3-3 3H62.8c-5.1 0-9.3-4.2-9.3-9.3s4.2-9.3 9.3-9.3h25.7c1.7 0 3 1.4 3 3v9.4h21.1c1.7 0 3 1.4 3 3s-1.3 3.2-2.9 3.2zM45 619.7c-5.1 0-9.3-4.2-9.3-9.3v-12.8c0-1.7 1.4-3 3-3H45c1.7 0 3 1.4 3 3s-1.4 3-3 3h-3.2v9.8c0 1.8 1.4 3.2 3.2 3.2 1.8 0 3.2-1.4 3.2-3.2v-22.6h-9.4c-1.7 0-3-1.4-3-3v-24.2c0-1.7 1.4-3 3-3 1.7 0 3 1.4 3 3v21.1h9.4c1.7 0 3 1.4 3 3v25.7c0.1 5.1-4 9.3-9.2 9.3z" fill="#E50012" p-id="22350"></path><path d="M45 625.2c-1.7 0-3-1.4-3-3v-4.9c0-1.7 1.4-3 3-3 1.7 0 3 1.4 3 3v4.9c0.1 1.6-1.3 3-3 3z" fill="#E50012" p-id="22351"></path><path d="M45 637.3c-5 0-9-4.1-9-9s4.1-9 9-9c1.7 0 3 1.4 3 3 0 1.7-1.4 3-3 3s-3 1.3-3 3c0 1.6 1.3 3 3 3 1.6 0 3-1.3 3-3s1.4-3 3-3c1.7 0 3 1.4 3 3 0.1 5-4 9-9 9z" fill="#E50012" p-id="22352"></path><path d="M41.8 649.8c-10.1 0-18.3-8.2-18.3-18.3 0-10.1 8.2-18.3 18.3-18.3 1.7 0 3 1.4 3 3 0 1.7-1.4 3-3 3-6.8 0-12.2 5.5-12.2 12.2 0 6.8 5.5 12.2 12.2 12.2 6.8 0 12.2-5.5 12.2-12.2 0-1.7 1.4-3 3-3 1.7 0 3 1.4 3 3 0.2 10.2-8 18.4-18.2 18.4z" fill="#E50012" p-id="22353"></path><path d="M56.2 631.3h-5.1c-1.7 0-3-1.4-3-3s1.4-3 3-3h5.1c1.7 0 3 1.4 3 3s-1.3 3-3 3zM30.2 623.6c-1.7 0-3-1.4-3-3V489.3c0-1.7 1.4-3 3-3 1.7 0 3 1.4 3 3v131.2c0.1 1.7-1.3 3.1-3 3.1zM138.9 646.2H53.1c-1.7 0-3-1.4-3-3 0-1.7 1.4-3 3-3H139c1.7 0 3 1.4 3 3 0 1.7-1.4 3-3.1 3zM51.3 576.7c-1.7 0-3-1.4-3-3v-21.1h-9.4c-1.7 0-3-1.4-3-3 0-1.7 1.4-3 3-3h12.5c1.7 0 3 1.4 3 3v24.2c-0.1 1.5-1.4 2.9-3.1 2.9z" fill="#E50012" p-id="22354"></path><path d="M45 551.7c-1.7 0-3-1.4-3-3v-14c0-1.7 1.4-3 3-3 1.7 0 3 1.4 3 3v14c0.1 1.6-1.3 3-3 3z" fill="#E50012" p-id="22355"></path><path d="M124.2 637.6c-1.7 0-3-1.4-3-3v-9.4H100c-1.7 0-3-1.4-3-3s1.4-3 3-3h24.2c1.7 0 3 1.4 3 3v12.5c0 1.6-1.4 2.9-3 2.9z" fill="#E50012" p-id="22356"></path><path d="M138.9 631.4h-14c-1.7 0-3-1.4-3-3 0-1.7 1.4-3 3-3h14c1.7 0 3 1.4 3 3 0.1 1.6-1.3 3-3 3z" fill="#E50012" p-id="22357"></path></svg>