<?xml version="1.0" standalone="no"?><!DOCTYPE svg PUBLIC "-//W3C//DTD SVG 1.1//EN" "http://www.w3.org/Graphics/SVG/1.1/DTD/svg11.dtd"><svg t="1618392098187" class="icon" viewBox="0 0 1024 1024" version="1.1" xmlns="http://www.w3.org/2000/svg" p-id="22497" xmlns:xlink="http://www.w3.org/1999/xlink" width="200" height="200"><defs><style type="text/css"></style></defs><path d="M58.2 436.7c-6.9 0-10.5-5-10.5-9.9 0-3 1.3-5.8 3.5-7.9 2.5-2.3 6.1-3.5 10.3-3.5h73.2c1.2 0 2.2 1 2.2 2.2 0 1.2-1 2.2-2.2 2.2H61.4c-3.1 0-5.6 0.8-7.3 2.3a6.03 6.03 0 0 0-2.1 4.6c0 2.8 1.9 5.5 6.1 5.5 2.2 0 3.5-1.8 3.5-3.6 0-1.2-0.3-1.7-0.4-1.7-0.6-0.1-0.8-0.1-0.9-0.1 0 0-0.1 0.2-0.1 0.3-0.1 1.2-1.1 2.1-2.3 2-1.2-0.1-2.1-1-2.1-2.2 0-0.2 0.1-2.3 1.8-3.6 0.8-0.6 2.3-1.3 4.6-0.7 1.1 0.3 3.8 1.4 3.8 6s-3.4 8.1-7.8 8.1z" fill="#E50012" p-id="22498"></path><path d="M59 429h-1c-0.7 0-1.3-0.6-1.3-1.3v-1c0-0.7 0.6-1.3 1.3-1.3h1c0.7 0 1.3 0.6 1.3 1.3v1c0 0.8-0.6 1.3-1.3 1.3zM30.9 522.3c-1.2 0-2.2-1-2.2-2.2v-73.2c0-4.2 1.2-7.8 3.5-10.3 2-2.3 4.9-3.5 7.9-3.5 4.9 0 9.9 3.6 9.9 10.5 0 4.4-3.5 7.8-8 7.8-4.6 0-5.7-2.6-6-3.8-0.5-2.3 0.1-3.8 0.7-4.6 1.3-1.7 3.4-1.8 3.6-1.8 1.2-0.1 2.2 0.9 2.3 2.1 0 1.2-0.9 2.2-2.1 2.3-0.1 0-0.3 0.1-0.3 0.1s-0.1 0.3 0.1 0.9c0 0.1 0.5 0.4 1.7 0.4 1.8 0 3.6-1.3 3.6-3.5 0-4.2-2.8-6.1-5.5-6.1-1.7 0-3.4 0.7-4.6 2.1-1.5 1.7-2.3 4.2-2.3 7.3V520c-0.1 1.3-1.1 2.3-2.3 2.3z" fill="#E50012" p-id="22499"></path><path d="M39.5 496.4c-1.8 0-3.3-1.5-3.3-3.3v-35.5c0-1 0.4-1.9 1.2-2.5 0.7-0.6 1.7-0.9 2.7-0.8 0.6 0.1 1.3 0.1 2 0.1 6.1 0 11.1-4.9 11.1-10.9v-0.5c0-1 0.4-1.9 1.1-2.5 0.7-0.7 1.6-1 2.6-0.9 0.5 0 1 0.1 1.5 0.1 6 0 10.9-5 10.9-11.1 0-0.7 0-1.4-0.1-2-0.1-1 0.1-1.9 0.8-2.7 0.6-0.7 1.6-1.2 2.5-1.2H108c1.8 0 3.3 1.5 3.3 3.3s-1.5 3.3-3.3 3.3H76c-0.4 8.9-7.4 16.2-16.2 16.9-1.3 8.1-8.2 14.4-16.7 14.8v32c-0.3 2-1.8 3.4-3.6 3.4z" fill="#E50012" p-id="22500"></path><path d="M22.4 496.4c-1.8 0-3.3-1.5-3.3-3.3v-46.3c0-8.4 3.3-13.8 6-16.8 3.4-3.8 8.2-6.1 13.2-6.6 0.8-4.5 3-8.6 6.4-11.8 3-2.7 8.4-6 16.8-6h46.3c1.8 0 3.3 1.5 3.3 3.3 0 1.8-1.5 3.3-3.3 3.3H61.4c-6.3 0-10.2 2.3-12.3 4.3-2.9 2.6-4.5 6.3-4.5 10.1 0 0.9-0.4 1.8-1.1 2.4-0.7 0.6-1.6 1-2.5 0.9h-1c-3.8 0-7.5 1.7-10.1 4.5-2 2.1-4.3 6-4.3 12.3V493c0.1 2-1.4 3.4-3.2 3.4z" fill="#E50012" p-id="22501"></path><path d="M42.4 444.5v-1c0-0.7-0.6-1.3-1.3-1.3h-1c-0.7 0-1.3 0.6-1.3 1.3v1c0 0.7 0.6 1.3 1.3 1.3h1c0.7-0.1 1.3-0.6 1.3-1.3z" fill="#E50012" p-id="22502"></path><path d="M24.6 506.1h-3c-1.2 0-2.2-1-2.2-2.2 0-1.2 1-2.2 2.2-2.2h3c1.2 0 2.2 1 2.2 2.2 0 1.2-1 2.2-2.2 2.2zM24.6 511.5h-3c-1.2 0-2.2-1-2.2-2.2 0-1.2 1-2.2 2.2-2.2h3c1.2 0 2.2 1 2.2 2.2 0 1.2-1 2.2-2.2 2.2zM24.6 516.9h-3c-1.2 0-2.2-1-2.2-2.2 0-1.2 1-2.2 2.2-2.2h3c1.2 0 2.2 1 2.2 2.2 0 1.2-1 2.2-2.2 2.2zM24.6 522.3h-3c-1.2 0-2.2-1-2.2-2.2 0-1.2 1-2.2 2.2-2.2h3c1.2 0 2.2 1 2.2 2.2 0 1.2-1 2.2-2.2 2.2z" fill="#E50012" p-id="22503"></path><path d="M40.4 506.1h-3c-1.2 0-2.2-1-2.2-2.2 0-1.2 1-2.2 2.2-2.2h3c1.2 0 2.2 1 2.2 2.2 0 1.2-1 2.2-2.2 2.2zM40.4 511.5h-3c-1.2 0-2.2-1-2.2-2.2 0-1.2 1-2.2 2.2-2.2h3c1.2 0 2.2 1 2.2 2.2 0 1.2-1 2.2-2.2 2.2zM40.4 516.9h-3c-1.2 0-2.2-1-2.2-2.2 0-1.2 1-2.2 2.2-2.2h3c1.2 0 2.2 1 2.2 2.2 0 1.2-1 2.2-2.2 2.2zM40.4 522.3h-3c-1.2 0-2.2-1-2.2-2.2 0-1.2 1-2.2 2.2-2.2h3c1.2 0 2.2 1 2.2 2.2 0 1.2-1 2.2-2.2 2.2z" fill="#E50012" p-id="22504"></path><path d="M118.5 430.1c-1.2 0-2.2-1-2.2-2.2v-3c0-1.2 1-2.2 2.2-2.2 1.2 0 2.2 1 2.2 2.2v3c0 1.2-1 2.2-2.2 2.2zM123.9 430.1c-1.2 0-2.2-1-2.2-2.2v-3c0-1.2 1-2.2 2.2-2.2 1.2 0 2.2 1 2.2 2.2v3c0 1.2-1 2.2-2.2 2.2zM129.3 430.1c-1.2 0-2.2-1-2.2-2.2v-3c0-1.2 1-2.2 2.2-2.2 1.2 0 2.2 1 2.2 2.2v3c0 1.2-1 2.2-2.2 2.2zM134.7 430.1c-1.2 0-2.2-1-2.2-2.2v-3c0-1.2 1-2.2 2.2-2.2 1.2 0 2.2 1 2.2 2.2v3c0 1.2-1 2.2-2.2 2.2z" fill="#E50012" p-id="22505"></path><path d="M118.5 414.2c-1.2 0-2.2-1-2.2-2.2v-3c0-1.2 1-2.2 2.2-2.2 1.2 0 2.2 1 2.2 2.2v3c0 1.2-1 2.2-2.2 2.2zM123.9 414.2c-1.2 0-2.2-1-2.2-2.2v-3c0-1.2 1-2.2 2.2-2.2 1.2 0 2.2 1 2.2 2.2v3c0 1.2-1 2.2-2.2 2.2zM129.3 414.2c-1.2 0-2.2-1-2.2-2.2v-3c0-1.2 1-2.2 2.2-2.2 1.2 0 2.2 1 2.2 2.2v3c0 1.2-1 2.2-2.2 2.2zM134.7 414.2c-1.2 0-2.2-1-2.2-2.2v-3c0-1.2 1-2.2 2.2-2.2 1.2 0 2.2 1 2.2 2.2v3c0 1.2-1 2.2-2.2 2.2z" fill="#E50012" p-id="22506"></path><path d="M965.8 436.7c-4.4 0-7.8-3.5-7.8-8 0-4.6 2.6-5.8 3.8-6 2.3-0.5 3.8 0.1 4.6 0.7 1.7 1.3 1.8 3.4 1.8 3.6 0 1.2-0.9 2.2-2.1 2.3-1.3 0-2.2-0.9-2.3-2.1 0-0.1-0.1-0.3-0.1-0.3s-0.3-0.1-0.9 0.1c-0.1 0-0.4 0.5-0.4 1.7 0 1.8 1.3 3.6 3.5 3.6 4.2 0 6.1-2.8 6.1-5.5 0-1.7-0.7-3.4-2.1-4.6-1.7-1.5-4.2-2.3-7.3-2.3h-73.2c-1.2 0-2.2-1-2.2-2.2 0-1.2 1-2.2 2.2-2.2h73.2c4.2 0 7.8 1.2 10.3 3.5 2.3 2 3.5 4.9 3.5 7.9 0 4.8-3.6 9.8-10.6 9.8z" fill="#E50012" p-id="22507"></path><path d="M965 429h1c0.7 0 1.3-0.6 1.3-1.3v-1c0-0.7-0.6-1.3-1.3-1.3h-1c-0.7 0-1.3 0.6-1.3 1.3v1c0 0.8 0.6 1.3 1.3 1.3zM993.1 522.3c-1.2 0-2.2-1-2.2-2.2v-73.2c0-3.1-0.8-5.6-2.3-7.3a6.03 6.03 0 0 0-4.6-2.1c-2.8 0-5.5 1.9-5.5 6.1 0 2.2 1.8 3.5 3.6 3.5 1.2 0 1.7-0.3 1.7-0.4 0.1-0.6 0.1-0.9 0.1-0.9s-0.2-0.1-0.3-0.1c-1.2-0.1-2.1-1.2-2-2.3 0.1-1.2 1.1-2.1 2.2-2.1 0.2 0 2.3 0.1 3.6 1.8 0.6 0.8 1.3 2.3 0.7 4.6-0.3 1.1-1.4 3.8-6 3.8-4.5 0-8-3.4-8-7.8 0-6.9 5-10.5 9.9-10.5 3 0 5.8 1.3 7.9 3.5 2.3 2.5 3.5 6.1 3.5 10.3v73.2c-0.1 1.1-1.1 2.1-2.3 2.1z" fill="#E50012" p-id="22508"></path><path d="M984.5 496.4c-1.8 0-3.3-1.5-3.3-3.3v-32c-8.5-0.4-15.4-6.7-16.7-14.8-8.8-0.7-15.8-7.9-16.2-16.9h-32c-1.8 0-3.3-1.5-3.3-3.3s1.5-3.3 3.3-3.3h35.5c1 0 1.9 0.4 2.5 1.2 0.6 0.7 0.9 1.7 0.8 2.7-0.1 0.6-0.1 1.3-0.1 2 0 6.1 4.9 11.1 10.9 11.1 0.5 0 1 0 1.5-0.1 0.9-0.1 1.9 0.2 2.6 0.9 0.7 0.7 1.1 1.6 1.1 2.5v0.5c0 6 5 10.9 11.1 10.9 0.7 0 1.4 0 2-0.1 1-0.1 1.9 0.1 2.7 0.8 0.7 0.6 1.2 1.6 1.2 2.5v35.5c-0.3 1.8-1.8 3.2-3.6 3.2z" fill="#E50012" p-id="22509"></path><path d="M1001.6 496.4c-1.8 0-3.3-1.5-3.3-3.3v-46.3c0-6.3-2.3-10.2-4.3-12.3-2.6-2.9-6.3-4.5-10.1-4.5h-1c-0.9 0.1-1.8-0.3-2.5-0.9-0.7-0.6-1.1-1.5-1.1-2.4 0-3.8-1.7-7.5-4.5-10.1-2.1-2-6-4.3-12.3-4.3h-46.3c-1.8 0-3.3-1.5-3.3-3.3 0-1.8 1.5-3.3 3.3-3.3h46.3c8.4 0 13.8 3.3 16.8 6 3.4 3.1 5.7 7.3 6.4 11.8 5 0.5 9.7 2.8 13.2 6.6 2.7 3 6 8.4 6 16.8v46.3c0.1 1.8-1.4 3.2-3.3 3.2z" fill="#E50012" p-id="22510"></path><path d="M981.6 444.5v-1c0-0.7 0.6-1.3 1.3-1.3h1c0.7 0 1.3 0.6 1.3 1.3v1c0 0.7-0.6 1.3-1.3 1.3h-1c-0.7-0.1-1.3-0.6-1.3-1.3z" fill="#E50012" p-id="22511"></path><path d="M1002.4 506.1h-3c-1.2 0-2.2-1-2.2-2.2 0-1.2 1-2.2 2.2-2.2h3c1.2 0 2.2 1 2.2 2.2 0 1.2-0.9 2.2-2.2 2.2zM1002.4 511.5h-3c-1.2 0-2.2-1-2.2-2.2 0-1.2 1-2.2 2.2-2.2h3c1.2 0 2.2 1 2.2 2.2 0 1.2-0.9 2.2-2.2 2.2zM1002.4 516.9h-3c-1.2 0-2.2-1-2.2-2.2 0-1.2 1-2.2 2.2-2.2h3c1.2 0 2.2 1 2.2 2.2 0 1.2-0.9 2.2-2.2 2.2zM1002.4 522.3h-3c-1.2 0-2.2-1-2.2-2.2 0-1.2 1-2.2 2.2-2.2h3c1.2 0 2.2 1 2.2 2.2 0 1.2-0.9 2.2-2.2 2.2z" fill="#E50012" p-id="22512"></path><path d="M986.6 506.1h-3c-1.2 0-2.2-1-2.2-2.2 0-1.2 1-2.2 2.2-2.2h3c1.2 0 2.2 1 2.2 2.2 0 1.2-1 2.2-2.2 2.2zM986.6 511.5h-3c-1.2 0-2.2-1-2.2-2.2 0-1.2 1-2.2 2.2-2.2h3c1.2 0 2.2 1 2.2 2.2 0 1.2-1 2.2-2.2 2.2zM986.6 516.9h-3c-1.2 0-2.2-1-2.2-2.2 0-1.2 1-2.2 2.2-2.2h3c1.2 0 2.2 1 2.2 2.2 0 1.2-1 2.2-2.2 2.2zM986.6 522.3h-3c-1.2 0-2.2-1-2.2-2.2 0-1.2 1-2.2 2.2-2.2h3c1.2 0 2.2 1 2.2 2.2 0 1.2-1 2.2-2.2 2.2z" fill="#E50012" p-id="22513"></path><path d="M905.5 430.1c-1.2 0-2.2-1-2.2-2.2v-3c0-1.2 1-2.2 2.2-2.2 1.2 0 2.2 1 2.2 2.2v3c0 1.2-1 2.2-2.2 2.2zM900.1 430.1c-1.2 0-2.2-1-2.2-2.2v-3c0-1.2 1-2.2 2.2-2.2 1.2 0 2.2 1 2.2 2.2v3c0 1.2-1 2.2-2.2 2.2zM894.7 430.1c-1.2 0-2.2-1-2.2-2.2v-3c0-1.2 1-2.2 2.2-2.2 1.2 0 2.2 1 2.2 2.2v3c0 1.2-1 2.2-2.2 2.2zM889.3 430.1c-1.2 0-2.2-1-2.2-2.2v-3c0-1.2 1-2.2 2.2-2.2 1.2 0 2.2 1 2.2 2.2v3c0 1.2-1 2.2-2.2 2.2z" fill="#E50012" p-id="22514"></path><path d="M905.5 414.2c-1.2 0-2.2-1-2.2-2.2v-3c0-1.2 1-2.2 2.2-2.2 1.2 0 2.2 1 2.2 2.2v3c0 1.2-1 2.2-2.2 2.2zM900.1 414.2c-1.2 0-2.2-1-2.2-2.2v-3c0-1.2 1-2.2 2.2-2.2 1.2 0 2.2 1 2.2 2.2v3c0 1.2-1 2.2-2.2 2.2zM894.7 414.2c-1.2 0-2.2-1-2.2-2.2v-3c0-1.2 1-2.2 2.2-2.2 1.2 0 2.2 1 2.2 2.2v3c0 1.2-1 2.2-2.2 2.2zM889.3 414.2c-1.2 0-2.2-1-2.2-2.2v-3c0-1.2 1-2.2 2.2-2.2 1.2 0 2.2 1 2.2 2.2v3c0 1.2-1 2.2-2.2 2.2z" fill="#E50012" p-id="22515"></path><path d="M871.1 426.4H152.9c-1.6 0-2.9-1.3-2.9-2.9V412c0-1.6 1.3-2.9 2.9-2.9h718.2c1.6 0 2.9 1.3 2.9 2.9v11.5c0 1.6-1.3 2.9-2.9 2.9z m-715.3-5.8h712.4v-5.7H155.8v5.7z" fill="#E50012" p-id="22516"></path><path d="M134.7 608.6H61.4c-4.2 0-7.8-1.2-10.3-3.5-2.3-2-3.5-4.9-3.5-7.9 0-4.9 3.6-9.9 10.5-9.9 4.4 0 7.8 3.5 7.8 8 0 4.6-2.6 5.8-3.8 6-2.3 0.5-3.7-0.1-4.6-0.7-1.7-1.3-1.8-3.4-1.8-3.6 0-1.2 0.9-2.2 2.1-2.3 1.2 0 2.2 0.9 2.3 2.1 0 0.1 0.1 0.3 0.1 0.3s0.3 0.1 0.9-0.1c0.1 0 0.4-0.5 0.4-1.7 0-1.8-1.3-3.6-3.5-3.6-4.2 0-6.1 2.8-6.1 5.5 0 1.7 0.7 3.4 2.1 4.6 1.7 1.5 4.2 2.3 7.3 2.3h73.2c1.2 0 2.2 1 2.2 2.2 0.2 1.3-0.8 2.3-2 2.3z" fill="#E50012" p-id="22517"></path><path d="M59 595h-1c-0.7 0-1.3 0.6-1.3 1.3v1c0 0.7 0.6 1.3 1.3 1.3h1c0.7 0 1.3-0.6 1.3-1.3v-1c0-0.8-0.6-1.3-1.3-1.3zM40.1 591c-3 0-5.8-1.3-7.9-3.5-2.3-2.5-3.5-6.1-3.5-10.3V504c0-1.2 1-2.2 2.2-2.2 1.2 0 2.2 1 2.2 2.2v73.2c0 3.1 0.8 5.6 2.3 7.3 1.2 1.4 2.9 2.1 4.6 2.1 2.8 0 5.5-1.9 5.5-6.1 0-2.2-1.8-3.5-3.6-3.5-1.2 0-1.7 0.3-1.7 0.4-0.1 0.6-0.1 0.8-0.1 0.9 0.1 0 0.3 0.1 0.3 0.1 1.2 0 2.2 1.1 2.1 2.3 0 1.2-1 2.2-2.3 2.1-0.2 0-2.3-0.1-3.6-1.8-0.6-0.8-1.3-2.3-0.7-4.6 0.3-1.1 1.4-3.8 6-3.8 4.5 0 8 3.4 8 7.8 0.1 6.9-4.9 10.6-9.8 10.6z" fill="#E50012" p-id="22518"></path><path d="M107.7 601.2H72.2c-1 0-1.9-0.4-2.5-1.2-0.6-0.7-0.9-1.7-0.8-2.7 0.1-0.6 0.1-1.3 0.1-2 0-6.1-4.9-11.1-10.9-11.1-0.5 0-1 0-1.5 0.1-0.9 0.1-1.9-0.2-2.6-0.9-0.7-0.7-1.1-1.6-1-2.5v-0.5c0-6-5-10.9-11.1-10.9-0.7 0-1.4 0-2 0.1-1 0.1-1.9-0.1-2.7-0.8-0.7-0.6-1.2-1.6-1.2-2.5v-35.5c0-1.8 1.5-3.3 3.3-3.3 1.8 0 3.3 1.5 3.3 3.3v32c8.5 0.4 15.4 6.7 16.7 14.8 8.8 0.7 15.8 7.9 16.2 16.9h32c1.8 0 3.3 1.5 3.3 3.3 0.2 1.9-1.3 3.4-3.1 3.4z" fill="#E50012" p-id="22519"></path><path d="M107.7 618.3H61.4c-8.4 0-13.8-3.3-16.8-6-3.4-3.1-5.7-7.3-6.4-11.8-5-0.5-9.7-2.8-13.2-6.6-2.7-3-6-8.4-6-16.8v-46.3c0-1.8 1.5-3.3 3.3-3.3 1.8 0 3.3 1.5 3.3 3.3v46.3c0 6.3 2.3 10.2 4.3 12.3 2.8 3.1 6.9 4.8 10.9 4.5h0.2c0.9-0.1 1.8 0.3 2.5 0.9 0.7 0.6 1.1 1.5 1.1 2.4 0 3.8 1.7 7.5 4.5 10.1 2.1 1.9 6 4.3 12.3 4.3h46.3c1.8 0 3.3 1.5 3.3 3.3 0 1.9-1.5 3.4-3.3 3.4z" fill="#E50012" p-id="22520"></path><path d="M42.4 579.5v1c0 0.7-0.6 1.3-1.3 1.3h-1c-0.7 0-1.3-0.6-1.3-1.3v-1c0-0.7 0.6-1.3 1.3-1.3h1c0.7 0.1 1.3 0.6 1.3 1.3z" fill="#E50012" p-id="22521"></path><path d="M24.6 522.3h-3c-1.2 0-2.2-1-2.2-2.2 0-1.2 1-2.2 2.2-2.2h3c1.2 0 2.2 1 2.2 2.2 0 1.2-1 2.2-2.2 2.2zM24.6 516.9h-3c-1.2 0-2.2-1-2.2-2.2 0-1.2 1-2.2 2.2-2.2h3c1.2 0 2.2 1 2.2 2.2 0 1.2-1 2.2-2.2 2.2zM24.6 511.5h-3c-1.2 0-2.2-1-2.2-2.2 0-1.2 1-2.2 2.2-2.2h3c1.2 0 2.2 1 2.2 2.2 0 1.2-1 2.2-2.2 2.2zM24.6 506.1h-3c-1.2 0-2.2-1-2.2-2.2 0-1.2 1-2.2 2.2-2.2h3c1.2 0 2.2 1 2.2 2.2 0 1.2-1 2.2-2.2 2.2z" fill="#E50012" p-id="22522"></path><path d="M40.4 522.3h-3c-1.2 0-2.2-1-2.2-2.2 0-1.2 1-2.2 2.2-2.2h3c1.2 0 2.2 1 2.2 2.2 0 1.2-1 2.2-2.2 2.2zM40.4 516.9h-3c-1.2 0-2.2-1-2.2-2.2 0-1.2 1-2.2 2.2-2.2h3c1.2 0 2.2 1 2.2 2.2 0 1.2-1 2.2-2.2 2.2zM40.4 511.5h-3c-1.2 0-2.2-1-2.2-2.2 0-1.2 1-2.2 2.2-2.2h3c1.2 0 2.2 1 2.2 2.2 0 1.2-1 2.2-2.2 2.2zM40.4 506.1h-3c-1.2 0-2.2-1-2.2-2.2 0-1.2 1-2.2 2.2-2.2h3c1.2 0 2.2 1 2.2 2.2 0 1.2-1 2.2-2.2 2.2z" fill="#E50012" p-id="22523"></path><path d="M118.5 601.3c-1.2 0-2.2-1-2.2-2.2v-3c0-1.2 1-2.2 2.2-2.2 1.2 0 2.2 1 2.2 2.2v3c0 1.2-1 2.2-2.2 2.2zM123.9 601.3c-1.2 0-2.2-1-2.2-2.2v-3c0-1.2 1-2.2 2.2-2.2 1.2 0 2.2 1 2.2 2.2v3c0 1.2-1 2.2-2.2 2.2zM129.3 601.3c-1.2 0-2.2-1-2.2-2.2v-3c0-1.2 1-2.2 2.2-2.2 1.2 0 2.2 1 2.2 2.2v3c0 1.2-1 2.2-2.2 2.2zM134.7 601.3c-1.2 0-2.2-1-2.2-2.2v-3c0-1.2 1-2.2 2.2-2.2 1.2 0 2.2 1 2.2 2.2v3c0 1.2-1 2.2-2.2 2.2z" fill="#E50012" p-id="22524"></path><path d="M118.5 617.2c-1.2 0-2.2-1-2.2-2.2v-3c0-1.2 1-2.2 2.2-2.2 1.2 0 2.2 1 2.2 2.2v3c0 1.2-1 2.2-2.2 2.2zM123.9 617.2c-1.2 0-2.2-1-2.2-2.2v-3c0-1.2 1-2.2 2.2-2.2 1.2 0 2.2 1 2.2 2.2v3c0 1.2-1 2.2-2.2 2.2zM129.3 617.2c-1.2 0-2.2-1-2.2-2.2v-3c0-1.2 1-2.2 2.2-2.2 1.2 0 2.2 1 2.2 2.2v3c0 1.2-1 2.2-2.2 2.2zM134.7 617.2c-1.2 0-2.2-1-2.2-2.2v-3c0-1.2 1-2.2 2.2-2.2 1.2 0 2.2 1 2.2 2.2v3c0 1.2-1 2.2-2.2 2.2z" fill="#E50012" p-id="22525"></path><path d="M962.6 608.6h-73.2c-1.2 0-2.2-1-2.2-2.2 0-1.2 1-2.2 2.2-2.2h73.2c3.1 0 5.6-0.8 7.3-2.3 1.4-1.2 2.1-2.9 2.1-4.6 0-2.8-1.9-5.5-6.1-5.5-2.2 0-3.5 1.8-3.5 3.6 0 1.2 0.3 1.7 0.4 1.7 0.6 0.1 0.9 0.1 0.9 0.1 0-0.1 0.1-0.3 0.1-0.3 0-1.2 1.1-2.2 2.3-2.1 1.2 0 2.2 1.1 2.1 2.3 0 0.2-0.1 2.3-1.8 3.6-0.8 0.6-2.3 1.3-4.6 0.7-1.1-0.3-3.8-1.4-3.8-6 0-4.5 3.4-8 7.8-8 6.9 0 10.5 5 10.5 9.9 0 3-1.3 5.8-3.5 7.9-2.5 2.2-6 3.4-10.2 3.4z" fill="#E50012" p-id="22526"></path><path d="M965 595h1c0.7 0 1.3 0.6 1.3 1.3v1c0 0.7-0.6 1.3-1.3 1.3h-1c-0.7 0-1.3-0.6-1.3-1.3v-1c0-0.8 0.6-1.3 1.3-1.3zM983.9 591c-4.9 0-9.9-3.6-9.9-10.5 0-4.4 3.5-7.8 8-7.8 4.6 0 5.8 2.6 6 3.8 0.5 2.3-0.1 3.7-0.7 4.6-1.3 1.7-3.4 1.8-3.6 1.8-1.3 0-2.2-0.9-2.3-2.1 0-1.2 0.9-2.2 2.1-2.3 0.1 0 0.3-0.1 0.3-0.1s0.1-0.3-0.1-0.9c0-0.1-0.5-0.4-1.7-0.4-1.8 0-3.6 1.3-3.6 3.5 0 4.2 2.8 6.1 5.5 6.1 1.7 0 3.4-0.7 4.6-2.1 1.5-1.7 2.3-4.2 2.3-7.3v-73.2c0-1.2 1-2.2 2.2-2.2 1.2 0 2.2 1 2.2 2.2v73.2c0 4.2-1.2 7.8-3.5 10.3-2 2.1-4.8 3.4-7.8 3.4z" fill="#E50012" p-id="22527"></path><path d="M951.8 601.2h-35.5c-1.8 0-3.3-1.5-3.3-3.3 0-1.8 1.5-3.3 3.3-3.3h32c0.4-8.9 7.4-16.2 16.2-16.9 1.3-8.1 8.2-14.4 16.7-14.8v-32c0-1.8 1.5-3.3 3.3-3.3 1.8 0 3.3 1.5 3.3 3.3v35.5c0 1-0.4 1.9-1.2 2.5-0.7 0.6-1.7 0.9-2.7 0.8-0.6-0.1-1.3-0.1-2-0.1-6.1 0-11.1 4.9-11.1 10.9v0.5c0 1-0.4 1.9-1.1 2.5-0.7 0.7-1.6 1-2.6 0.9-0.5 0-1-0.1-1.5-0.1-6 0-10.9 5-10.9 11.1 0 0.7 0 1.4 0.1 2 0.1 1-0.1 1.9-0.8 2.7-0.3 0.7-1.2 1.1-2.2 1.1z" fill="#E50012" p-id="22528"></path><path d="M962.6 618.3h-46.3c-1.8 0-3.3-1.5-3.3-3.3 0-1.8 1.5-3.3 3.3-3.3h46.3c6.3 0 10.2-2.3 12.3-4.3 2.9-2.6 4.5-6.3 4.5-10.1 0-0.9 0.4-1.8 1.1-2.4 0.7-0.6 1.6-1 2.5-0.9h1c3.8 0 7.5-1.7 10.1-4.5 1.9-2.1 4.3-6 4.3-12.3v-46.3c0-1.8 1.5-3.3 3.3-3.3 1.8 0 3.3 1.5 3.3 3.3v46.3c0 8.4-3.3 13.8-6 16.8-3.4 3.8-8.2 6.1-13.2 6.6-0.8 4.5-3 8.6-6.4 11.8-3.1 2.7-8.4 5.9-16.8 5.9z" fill="#E50012" p-id="22529"></path><path d="M981.6 579.5v1c0 0.7 0.6 1.3 1.3 1.3h1c0.7 0 1.3-0.6 1.3-1.3v-1c0-0.7-0.6-1.3-1.3-1.3h-1c-0.7 0.1-1.3 0.6-1.3 1.3z" fill="#E50012" p-id="22530"></path><path d="M1002.4 522.3h-3c-1.2 0-2.2-1-2.2-2.2 0-1.2 1-2.2 2.2-2.2h3c1.2 0 2.2 1 2.2 2.2 0 1.2-0.9 2.2-2.2 2.2zM1002.4 516.9h-3c-1.2 0-2.2-1-2.2-2.2 0-1.2 1-2.2 2.2-2.2h3c1.2 0 2.2 1 2.2 2.2 0 1.2-0.9 2.2-2.2 2.2zM1002.4 511.5h-3c-1.2 0-2.2-1-2.2-2.2 0-1.2 1-2.2 2.2-2.2h3c1.2 0 2.2 1 2.2 2.2 0 1.2-0.9 2.2-2.2 2.2zM1002.4 506.1h-3c-1.2 0-2.2-1-2.2-2.2 0-1.2 1-2.2 2.2-2.2h3c1.2 0 2.2 1 2.2 2.2 0 1.2-0.9 2.2-2.2 2.2z" fill="#E50012" p-id="22531"></path><path d="M986.6 522.3h-3c-1.2 0-2.2-1-2.2-2.2 0-1.2 1-2.2 2.2-2.2h3c1.2 0 2.2 1 2.2 2.2 0 1.2-1 2.2-2.2 2.2zM986.6 516.9h-3c-1.2 0-2.2-1-2.2-2.2 0-1.2 1-2.2 2.2-2.2h3c1.2 0 2.2 1 2.2 2.2 0 1.2-1 2.2-2.2 2.2zM986.6 511.5h-3c-1.2 0-2.2-1-2.2-2.2 0-1.2 1-2.2 2.2-2.2h3c1.2 0 2.2 1 2.2 2.2 0 1.2-1 2.2-2.2 2.2zM986.6 506.1h-3c-1.2 0-2.2-1-2.2-2.2 0-1.2 1-2.2 2.2-2.2h3c1.2 0 2.2 1 2.2 2.2 0 1.2-1 2.2-2.2 2.2z" fill="#E50012" p-id="22532"></path><path d="M905.5 601.3c-1.2 0-2.2-1-2.2-2.2v-3c0-1.2 1-2.2 2.2-2.2 1.2 0 2.2 1 2.2 2.2v3c0 1.2-1 2.2-2.2 2.2zM900.1 601.3c-1.2 0-2.2-1-2.2-2.2v-3c0-1.2 1-2.2 2.2-2.2 1.2 0 2.2 1 2.2 2.2v3c0 1.2-1 2.2-2.2 2.2zM894.7 601.3c-1.2 0-2.2-1-2.2-2.2v-3c0-1.2 1-2.2 2.2-2.2 1.2 0 2.2 1 2.2 2.2v3c0 1.2-1 2.2-2.2 2.2zM889.3 601.3c-1.2 0-2.2-1-2.2-2.2v-3c0-1.2 1-2.2 2.2-2.2 1.2 0 2.2 1 2.2 2.2v3c0 1.2-1 2.2-2.2 2.2z" fill="#E50012" p-id="22533"></path><path d="M905.5 617.2c-1.2 0-2.2-1-2.2-2.2v-3c0-1.2 1-2.2 2.2-2.2 1.2 0 2.2 1 2.2 2.2v3c0 1.2-1 2.2-2.2 2.2zM900.1 617.2c-1.2 0-2.2-1-2.2-2.2v-3c0-1.2 1-2.2 2.2-2.2 1.2 0 2.2 1 2.2 2.2v3c0 1.2-1 2.2-2.2 2.2zM894.7 617.2c-1.2 0-2.2-1-2.2-2.2v-3c0-1.2 1-2.2 2.2-2.2 1.2 0 2.2 1 2.2 2.2v3c0 1.2-1 2.2-2.2 2.2zM889.3 617.2c-1.2 0-2.2-1-2.2-2.2v-3c0-1.2 1-2.2 2.2-2.2 1.2 0 2.2 1 2.2 2.2v3c0 1.2-1 2.2-2.2 2.2z" fill="#E50012" p-id="22534"></path><path d="M871.1 614.9H152.9c-1.6 0-2.9-1.3-2.9-2.9v-11.5c0-1.6 1.3-2.9 2.9-2.9h718.2c1.6 0 2.9 1.3 2.9 2.9V612c0 1.6-1.3 2.9-2.9 2.9z m-715.3-5.8h712.4v-5.7H155.8v5.7z" fill="#E50012" p-id="22535"></path></svg>