<?xml version="1.0" standalone="no"?><!DOCTYPE svg PUBLIC "-//W3C//DTD SVG 1.1//EN" "http://www.w3.org/Graphics/SVG/1.1/DTD/svg11.dtd"><svg t="1618387848480" class="icon" viewBox="0 0 1024 1024" version="1.1" xmlns="http://www.w3.org/2000/svg" p-id="11709" xmlns:xlink="http://www.w3.org/1999/xlink" width="200" height="200"><defs><style type="text/css"></style></defs>
<path d="M662.656 1011.84h-263.68c-9.6 0-15.872-8.32-14.08-18.304l4.352-24.192c1.664-9.216 10.24-16.512 19.2-16.512h244.992c8.96 0 17.536 7.296 19.2 16.512l4.352 24.192c1.664 9.984-4.736 18.304-14.336 18.304zM655.488 951.424H398.848c-5.632 0-10.24-4.608-10.24-10.24v-5.12c0-5.632 4.608-10.24 10.24-10.24h256.64c5.632 0 10.24 4.608 10.24 10.24v5.12c0 5.632-4.608 10.24-10.24 10.24zM645.76 925.824H418.944v-73.728c0-25.6 20.992-46.464 46.464-46.464h133.76c25.6 0 46.464 20.864 46.464 46.464v73.728zM588.928 787.328h-125.44c-6.4 0-11.776-5.248-11.776-11.776v-5.888c0-6.4 5.248-11.776 11.776-11.776h125.44c6.4 0 11.776 5.248 11.776 11.776v5.888c0 6.528-5.248 11.776-11.776 11.776z" p-id="11710"></path>
<path d="M574.848 758.016H477.44c-6.4 0-11.776-5.248-11.776-11.776v-5.888c0-6.4 5.248-11.776 11.776-11.776h97.408c6.4 0 11.776 5.248 11.776 11.776v5.888c0 6.4-5.248 11.776-11.776 11.776z"  p-id="11711"></path>
<path d="M557.952 729.088h-74.368c-13.952 0-25.472-11.52-25.472-25.472v-12.672c0-13.952 11.52-25.472 25.472-25.472h74.368c13.952 0 25.472 11.52 25.472 25.472v12.672c0 14.08-11.392 25.472-25.472 25.472zM619.648 651.52H435.2c-19.712 0-45.312-16.768-58.752-40.832l-23.04-41.088c-6.144-11.008-4.48-20.608 4.096-20.608h355.84c8.576 0 10.368 9.6 4.096 20.608l-23.04 41.088c-13.568 24.064-55.04 40.832-74.752 40.832zM566.016 282.112h-79.104c-8.448 0-19.456-7.168-25.216-17.536l-9.856-17.664c-2.688-4.736-1.92-8.832 1.792-8.832h145.792c3.712 0 4.48 4.096 1.792 8.832l-9.856 17.664c-6.016 10.368-16.896 17.536-25.344 17.536zM562.944 522.752h-67.968l12.672-169.088c0.384-6.016 5.376-10.624 11.136-10.624h20.608c5.632 0 10.624 4.736 11.136 10.624l12.416 169.088zM532.608 321.664h-21.504c-6.912 0-12.544-5.632-12.544-12.544v-6.272c0-6.912 5.632-12.544 12.544-12.544h21.504c6.912 0 12.544 5.632 12.544 12.544v6.272c-0.128 6.912-5.76 12.544-12.544 12.544z" p-id="11712"></path>
<path d="M737.024 521.6c-3.456-5.888-9.728-9.344-17.024-9.344h-160l-13.568-181.376c-0.256-2.944-0.896-5.632-2.048-8.064 5.376-4.992 8.832-12.032 8.832-19.968 0-2.176-0.256-4.352-0.768-6.4h9.472c14.72 0 32-11.52 40.832-27.392l12.416-22.144c3.968-7.04 4.352-14.208 1.28-19.584-2.56-4.352-7.296-7.04-12.544-7.04h-81.408V10.496c0-5.76-4.608-10.368-10.368-10.368S501.76 4.736 501.76 10.496V220.16h-81.408c-5.248 0-9.984 2.56-12.544 7.04-3.2 5.376-2.688 12.544 1.28 19.584l12.416 22.144c8.96 15.872 26.112 27.392 40.832 27.392h9.472c-0.512 2.048-0.768 4.224-0.768 6.4 0 7.936 3.456 14.976 8.832 19.968-1.152 2.56-1.92 5.248-2.048 8.064l-13.568 181.376H304.128c-7.424 0-13.568 3.456-17.024 9.344-4.736 8.064-3.712 19.584 2.944 31.36l28.16 50.176c17.92 32 52.096 55.296 81.024 55.296h36.352c-4.864 7.296-7.68 16.128-7.68 25.6 0 12.8 5.248 24.32 13.568 32.768-4.992 4.864-8.064 11.648-8.064 19.2 0 2.816 0.384 5.504 1.28 8.064-9.984 3.968-17.152 13.696-17.152 25.088 0 3.584 0.768 7.04 2.048 10.24-26.368 9.472-45.312 34.816-45.312 64.512v66.816c-12.032 1.28-21.504 11.52-21.504 23.936 0 4.352 1.152 8.448 3.2 11.904-5.12 4.736-8.96 11.136-10.24 18.176l-4.736 26.624c-1.536 8.576 0.512 17.024 5.76 23.296 4.992 5.888 12.032 9.216 20.096 9.216h290.56c7.936 0 15.104-3.328 20.096-9.216 5.248-6.144 7.296-14.72 5.76-23.296l-4.736-26.624c-1.28-7.04-4.992-13.44-10.24-18.176 2.048-3.584 3.2-7.552 3.2-11.904 0-12.416-9.472-22.656-21.504-23.936v-66.816c0-29.568-18.944-54.912-45.312-64.512 1.28-3.2 2.048-6.656 2.048-10.24 0-11.392-7.168-21.12-17.152-25.088 0.768-2.56 1.28-5.248 1.28-8.064 0-7.552-3.072-14.336-8.064-19.2 8.32-8.448 13.568-19.968 13.568-32.768 0-9.472-2.816-18.304-7.68-25.6h36.352c28.928 0 62.976-23.296 81.024-55.296l28.16-50.176c6.4-11.648 7.552-23.04 2.816-31.232zM439.424 258.816l-9.984-17.792h165.12l-9.984 17.792c-5.632 9.984-16.256 16.768-22.656 16.768h-99.712c-6.528 0-17.152-6.656-22.784-16.768z m86.528 37.632c3.456 0 6.4 2.944 6.4 6.4s-2.944 6.4-6.4 6.4H497.92c-3.456 0-6.4-2.944-6.4-6.4s2.944-6.4 6.4-6.4h28.032z m-27.648 35.968c0.128-1.408 1.408-2.432 2.176-2.432h23.168c0.768 0 2.048 1.024 2.176 2.432l13.44 179.84h-54.4l13.44-179.84z m-24.064 398.08h75.52c2.56 0 4.992-0.256 7.424-0.64h6.528c3.328 0 6.144 2.816 6.144 6.144 0 3.328-2.816 6.144-6.144 6.144h-103.424c-3.328 0-6.144-2.816-6.144-6.144 0-3.328 2.816-6.144 6.144-6.144h6.528c2.432 0.384 4.864 0.64 7.424 0.64z m105.344 32.512c3.328 0 6.144 2.816 6.144 6.144s-2.816 6.144-6.144 6.144H444.416c-3.328 0-6.144-2.816-6.144-6.144s2.816-6.144 6.144-6.144H579.584z m81.792 238.336c-1.024 1.152-2.304 1.792-4.096 1.792h-290.56c-1.792 0-3.2-0.64-4.096-1.792-1.28-1.536-1.664-3.712-1.28-6.272l4.736-26.624c0.896-5.12 6.016-9.6 10.88-9.6h270.08c4.864 0 9.984 4.48 10.88 9.6l4.736 26.624c0.384 2.56 0 4.736-1.28 6.272z m-14.208-63.36H376.576c-1.792 0-3.328-1.536-3.328-3.328 0-1.792 1.536-3.328 3.328-3.328H647.04c1.792 0 3.328 1.536 3.328 3.328 0.128 1.92-1.408 3.328-3.2 3.328z m-18.176-94.08v66.688H395.008v-66.688c0-26.368 21.376-47.744 47.744-47.744h138.752c26.112 0.128 47.488 21.504 47.488 47.744z m-53.632-159.872c0 12.288-8.576 22.528-20.096 24.96h-86.528c-11.52-2.56-20.096-12.8-20.096-24.96 0-14.08 11.52-25.6 25.6-25.6h75.52c14.08 0 25.6 11.52 25.6 25.6z m140.544-141.184l-28.16 50.176c-15.744 27.904-44.288 44.672-62.848 44.672H399.36c-18.56 0-47.232-16.64-62.848-44.672l-28.16-50.176c-2.688-4.736-3.2-8.064-3.2-9.728h413.952c0 1.664-0.512 4.992-3.2 9.728z" p-id="11713"></path></svg>