<?xml version="1.0" standalone="no"?><!DOCTYPE svg PUBLIC "-//W3C//DTD SVG 1.1//EN" "http://www.w3.org/Graphics/SVG/1.1/DTD/svg11.dtd"><svg t="1618387738567" class="icon" viewBox="0 0 2306 1024" version="1.1" xmlns="http://www.w3.org/2000/svg" p-id="10269" xmlns:xlink="http://www.w3.org/1999/xlink" width="450.390625" height="200"><defs><style type="text/css"></style></defs><path d="M19.4653158 994.240295L1387.8716968 994.24029501S1444.7680858 1008.705479 1444.76808581 913.235266c0-94.505867-73.290264-77.14764701-74.25461001-77.147646l-2.893036 0-552.570019-0.964346c-9.643456 0.964346-96.434558 6.750419-89.684139-125.36492501 5.786073-129.222308 108.006705-111.86408801 122.471889-108.97105099L2178.6350738 598.85860699H2178.6350738s96.434558 11.572147 96.434559-74.25460999c0-86.791102-81.969374-86.79110201-81.969375-86.791103l-1880.473885 0c-0.96434601 0-94.505867 0-94.505867-106.078014 0-101.256286 96.434558-119.578852 96.434558-119.57885199l838.980656-1e-8s66.539845 0 66.539846-86.791102c0-87.755448-65.5755-87.755448-66.539846-87.755448l-553.534364 0 0-28.930368 553.534364 0s94.505867 0 94.505867 115.72147-93.541521 115.72147-94.505867 115.72147l-835.12327401 0a92.577176 92.577176 0 0 0-72.32591899 92.577176c0 77.14764701 65.5755 77.14764701 65.5755 77.147646L2194.0646038 409.846872S2303.9999998 407.918181 2303.9999998 522.675306C2303.9999998 636.468084 2186.3498388 626.824628 2176.7063828 625.860283L845.9094798 627.788974l-3.857383 0s-84.862411-22.179948-88.719793 82.93372c-4.821728 106.078014 57.860735 96.434558 57.860735 96.434558L1367.6204398 807.157252C1378.2282408 806.192907 1472.7341078 791.72772299 1472.7341078 914.199612c0 118.614507-77.14764701 110.899742-89.684139 108.971051L18.5009698 1023.170663 18.5009698 994.24029501z" p-id="10270"></path><path d="M2028.1971628 596.929915L2152.5977438 596.929915s96.434558 10.607801 96.434558-75.218955c0-86.791102-81.969374-86.79110201-81.969375-86.791102l-154.295293 0 0-28.930368 154.295293 0S2276.9983238 405.98949 2276.9983238 521.71096C2276.9983238 634.539393 2159.34816279 624.895937 2149.7047068 623.931592l-121.507544 0 0-27.001677zM1207.5390728 994.24029501l124.40058001-1e-8s96.434558 11.572147 96.43455799-73.290264c0-87.755448-81.969374-87.755448-81.969374-87.755448l-154.295293 0 0-27.966022 154.295293 0S1455.37588779 805.228561 1455.3758878 920.950031c0 111.86408801-118.614507 102.220632-127.29361699 101.256286l-121.50754401 0 0-27.001676zM500.6737608 436.848549l-120.543198 0c-9.643456 0.964346-127.293617 10.607801-127.293617-102.220632 0-113.792779 108.971051-122.471889 108.971051-122.471889l155.259639 0L517.06763581 239.157704l-154.29529301 0a91.61283 91.61283 0 0 0-81.969375 96.434559c0 84.86241101 96.434558 73.290264 96.434559 73.290264l124.40058 0 0 28.93036701z" p-id="10271"></path></svg>