<?xml version="1.0" standalone="no"?><!DOCTYPE svg PUBLIC "-//W3C//DTD SVG 1.1//EN" "http://www.w3.org/Graphics/SVG/1.1/DTD/svg11.dtd"><svg t="1618387234937" class="icon" viewBox="0 0 2147 1024" version="1.1" xmlns="http://www.w3.org/2000/svg" p-id="3381" xmlns:xlink="http://www.w3.org/1999/xlink" width="419.3359375" height="200"><defs><style type="text/css"></style></defs><path d="M1915.437595 937.063848S529.614082 1122.428777 441.345068 619.295399C414.864364 345.661457 485.479575 133.815825 706.152109 222.084838 935.651544 310.353852 794.421122 380.969063 706.152109 354.488359 662.017602 345.661457 609.056194 389.795964 617.883095 442.757372s88.269014 264.807041 326.595351 176.538027c229.499435-88.269014 141.230422-406.037463 0-494.306476C812.074925 36.71991 556.094786-86.856709 397.210561 89.681318c0 0-485.479575-132.40352-308.941547 361.902956 0 0-264.807041 335.422252 132.40352 467.825772 406.037463 141.230422 1235.766191 105.922816 1694.765061 8.826901z" p-id="3382"></path><path d="M2144.937031 892.929342S1324.035204 998.852158 1271.073796 707.564413C1253.419993 548.680189 1297.5545 416.276668 1429.95802 469.238076c132.40352 52.961408 52.961408 88.269014 0 88.269014C1403.477316 531.026386 1376.996612 557.50709 1385.823514 592.814695c0 44.134507 52.961408 158.884224 194.19183 105.922817 132.40352-44.134507 79.442112-238.326337 0-291.287745C1482.919429 354.488359 1341.689007 283.873148 1244.593092 398.622865c0 0-282.460844-88.269014-185.364929 211.845633 0 0-158.884224 194.19183 88.269014 282.460844 238.326337 79.442112 723.805912 61.78831 997.439854 0z" p-id="3383"></path></svg>