<?xml version="1.0" standalone="no"?><!DOCTYPE svg PUBLIC "-//W3C//DTD SVG 1.1//EN" "http://www.w3.org/Graphics/SVG/1.1/DTD/svg11.dtd"><svg t="1618387439748" class="icon" viewBox="0 0 2306 1024" version="1.1" xmlns="http://www.w3.org/2000/svg" p-id="3596" xmlns:xlink="http://www.w3.org/1999/xlink" width="450.390625" height="200"><defs><style type="text/css"></style></defs><path d="M2284.534684 29.759705H916.128303S859.231914 15.294521 859.231914 110.764734c0 94.505867 73.290264 77.147647 74.25461 77.147646h2.893036l552.570019 0.964346c9.643456-0.964346 96.434558-6.750419 89.684139 125.364925-5.786073 129.222308-108.006705 111.864088-122.471889 108.971051L125.364926 425.141393H125.364926s-96.434558-11.572147-96.434559 74.25461c0 86.791102 81.969374 86.791102 81.969375 86.791103h1880.473885c0.964346 0 94.505867 0 94.505867 106.078014 0 101.256286-96.434558 119.578852-96.434558 119.578852h-838.980656s-66.539845 0-66.539846 86.791102c0 87.755448 65.5755 87.755448 66.539846 87.755448h553.534364v28.930368h-553.534364s-94.505867 0-94.505867-115.72147 93.541521-115.72147 94.505867-115.72147h835.123274a92.577176 92.577176 0 0 0 72.325919-92.577176c0-77.147647-65.5755-77.147647-65.5755-77.147646H109.935396S0 616.081819 0 501.324694C0 387.531916 117.650161 397.175372 127.293617 398.139717L1458.09052 396.211026h3.857383s84.862411 22.179948 88.719793-82.93372c4.821728-106.078014-57.860735-96.434558-57.860735-96.434558H936.37956C925.771759 217.807093 831.265892 232.272277 831.265892 109.800388c0-118.614507 77.147647-110.899742 89.684139-108.971051H2285.49903V29.759705z" p-id="3597"></path><path d="M275.802837 427.070085H151.402256s-96.434558-10.607801-96.434558 75.218955c0 86.791102 81.969374 86.791102 81.969375 86.791102h154.295293v28.930368h-154.295293S27.001676 618.01051 27.001676 502.28904C27.001676 389.460607 144.651837 399.104063 154.295293 400.068408h121.507544v27.001677zM1096.460927 29.759705h-124.40058s-96.434558-11.572147-96.434558 73.290264c0 87.755448 81.969374 87.755448 81.969374 87.755448h154.295293v27.966022h-154.295293S848.624112 218.771439 848.624112 103.049969c0-111.864088 118.614507-102.220632 127.293617-101.256286h121.507544v27.001676zM1803.326239 587.151451h120.543198c9.643456-0.964346 127.293617-10.607801 127.293617 102.220632 0 113.792779-108.971051 122.471889-108.971051 122.471889h-155.259639V784.842296h154.295293a91.61283 91.61283 0 0 0 81.969375-96.434559c0-84.862411-96.434558-73.290264-96.434559-73.290264h-124.40058v-28.930367z" p-id="3598"></path></svg>