<?xml version="1.0" standalone="no"?><!DOCTYPE svg PUBLIC "-//W3C//DTD SVG 1.1//EN" "http://www.w3.org/Graphics/SVG/1.1/DTD/svg11.dtd"><svg t="1618476603504" class="icon" viewBox="0 0 1102 1024" version="1.1" xmlns="http://www.w3.org/2000/svg" p-id="6299" xmlns:xlink="http://www.w3.org/1999/xlink" width="215.234375" height="200"><defs><style type="text/css"></style></defs><path d="M913.449327 596.84965s-64.498224-9.826726-124.579013-51.369901c-2.19035-1.533704-4.527641-3.030673-6.681256-4.821525h-0.257148c-2.19035-1.565848-4.233758-3.287821-6.566457-4.890403-0.188269 0-0.188269-0.188269-0.188269-0.303068-2.227085-1.565848-4.307229-3.324556-6.497579-5.152143l-0.036735-0.114798c-2.222493-1.754117-4.224574-3.733238-6.492987-5.638888-6.084305-5.570009-12.540556-11.658906-18.257506-18.308018 0 0 85.354762-82.902673 168.923264-92.954404 0 0 129.552072-4.109776 129.552072 92.954404 0 97.362655-128.918386 90.598744-128.918386 90.598744z m-54.676089 192.723229C790.445345 781.114547 720.932735 706.20183 720.932735 706.20183c52.026547-51.815318 138.171121-67.873291 138.171122-67.873292S964.304933 633.47487 964.304933 715.652018c0 82.333274-105.531695 73.916269-105.531695 73.916269zM672.157274 684.197309L587.766816 617.522511 695.957238 532.663677 794.403587 609.560108c-76.102027 26.155623-112.915516 63.735964-122.250905 74.637201z m-115.381382 96.430494l-1.102062-0.932162-1.345435 0.932162L472.96861 714.044843l82.709812-66.58296L638.278027 714.044843 556.7713 780.627803z m42.861059 79.22913c6.336861 3.287821 45.712646 28.042906 30.632753 57.789417 0 0-10.836951 31.702673-76.859695 32.882798-66.284484-1.180126-76.974493-32.882798-76.974493-32.882798-15.190099-29.746511 24.070888-54.501596 30.449076-57.789417 6.304717-3.655175 43.242188-24.125991 43.242188-24.125991l3.283229 1.294923 2.984753-1.294923s37.084413 20.470816 43.242189 24.125991zM312.251121 609.560108L410.564305 532.663677 518.887892 617.522511 434.336717 684.197309c-9.560395-10.901238-46.194798-48.481578-122.085596-74.637201z m-64.300771 180.008179S142.349776 797.985291 142.349776 715.652018c0-82.177148 105.123013-77.318888 105.123013-77.318888S333.824 654.391103 385.721973 706.206422c0 0-69.384036 74.912717-137.771623 83.361865zM64.286996 506.250906c0-97.064179 129.593399-92.954404 129.593399-92.954404C277.614206 423.352825 362.762332 506.250906 362.762332 506.250906a211.517991 211.517991 0 0 1-18.252915 18.308018c-2.002081 1.90565-4.082224 3.884771-6.419516 5.638888 0 0 0 0.114798-0.257148 0.114798-1.969937 1.827587-4.19243 3.581704-6.419515 5.152143 0 0.114798 0 0.303067-0.183677 0.303068-2.116879 1.607175-4.270493 3.324556-6.566458 4.890403-2.305148 1.790852-4.564377 3.287821-6.681255 4.821525-60.17722 41.543175-124.882081 51.369901-124.882081 51.369901S64.286996 603.613561 64.286996 506.250906zM247.95035 216.050224C312.365919 224.072323 377.59426 291.027229 384.987265 298.856466c0.551031 0.422457 0.734709 0.840323 0.734708 0.840323-1.54748 1.607175-3.274045 3.324556-4.894995 5.193471-0.40409 0.422457-1.14339 0.688789-1.437274 1.26278-1.322475 1.258188-2.612807 2.479641-3.935282 3.705686-0.518888 0.303067-0.886242 0.725525-1.584216 1.221453a93.950852 93.950852 0 0 0-3.682726 3.512825c-0.440825 0.078063-0.918386 0.537256-1.322476 0.877059-1.327067 1.184717-2.83322 2.369435-4.343964 3.554152-0.257148 0.307659-0.440825 0.532664-0.918385 0.725525-1.657686 1.184717-3.16843 2.250045-4.637848 3.627623-0.367354 0-0.551031 0.156126-0.734708 0.422458-1.699013 1.147982-3.462314 2.291372-5.230207 3.476089-0.183677 0.151534-0.367354 0.151534-0.587766 0.303068-1.694422 1.147982-3.425578 2.254637-5.115409 3.439354l-0.261739 0.073471c-1.983713 1.147982-3.825076 2.3327-5.556234 3.398027-46.121327 26.624-94.005955 32.813919-94.005955 32.813919S142.349776 372.079354 142.349776 289.920574C142.349776 207.803121 247.95035 216.050224 247.95035 216.050224zM427.053919 326.026906L509.704036 392.752215 404.493776 477.560538 321.434978 410.793901l0.854098-0.64287c19.736108-11.066547 71.312646-41.970224 104.764843-84.124125z m124.918816-91.838565l1.561256 1.019408 1.40513-1.019408L638.278027 298.475336l-83.187372 64.286996-1.561256-1.382171-1.855139 1.382171L468.376682 298.475336l83.596053-64.286995z m-75.537219-123.371337s10.690009-31.72104 76.974493-32.754224c66.022744 1.033184 76.859695 32.754224 76.859695 32.754224 15.079892 29.755695-24.2913 54.386798-30.628161 57.968503A13709.201794 13709.201794 0 0 0 556.39017 192.860987l-2.984753-1.368395-3.283229 1.368395s-36.937471-20.714188-43.242188-24.07548c-6.378188-3.581704-45.639175-28.208215-30.449076-57.968503zM661.237668 504.409543L553.497256 587.766816h-0.151534L445.41704 504.409543 551.628341 422.457399l1.868915 1.368395 1.827587-1.368395L661.237668 504.409543z m123.017758-94.263104l0.964305 0.652054L702.151749 477.560538 596.950673 392.752215 679.53191 326.026906c33.599139 42.153901 84.734852 73.057578 104.723516 84.124125z m-62.477776-111.289973c7.250655-7.829238 72.749919-74.784143 136.995588-82.806242 0 0 105.531695-8.247103 105.531695 73.87035 0 82.154188-105.201076 77.383175-105.201076 77.383175s-47.650439-6.189919-93.684521-32.809327c-1.804628-1.069919-3.751605-2.254637-5.666439-3.398027-0.073471 0-0.073471-0.078063-0.257148-0.078063-1.731157-1.184717-3.457722-2.295964-5.299085-3.439354-0.183677-0.151534-0.440825-0.151534-0.624503-0.303068-1.620951-1.184717-3.31078-2.3327-4.968466-3.476089-0.293883-0.266332-0.330619-0.422457-0.587767-0.422458-1.767892-1.377578-3.384251-2.442906-4.784789-3.627623-0.514296-0.192861-0.844915-0.417865-0.991856-0.725525-1.510744-1.184717-2.869955-2.369435-4.3807-3.554152-0.514296-0.339803-0.734709-0.798996-1.249005-0.872467-1.327067-1.304108-2.686278-2.484233-3.939874-3.517417-0.551031-0.495928-0.918386-0.918386-1.322475-1.221453-1.510744-1.221453-2.686278-2.447498-3.939875-3.705686-0.367354-0.573991-0.844915-0.840323-1.506152-1.26278-1.653094-1.868915-3.274045-3.586296-4.968467-5.188879 0 0 0.293883-0.422457 0.844915-0.844915zM1092.878924 513.04696c0-107.083767-96.086099-138.308879-96.086099-138.308879 41.566135-50.313758 29.875085-94.322798 29.875085-94.322798-24.011193-91.833973-97.087139-103.318386-178.290798-103.318386-81.203659 0-149.490224 68.888108-159.551139 78.402583-3.600072 3.613848-8.384861 7.682296-12.728825 11.296143L599.981345 206.714834c16.218691-7.83383 31.771552-15.327857 36.519606-17.862601 11.172161-5.634296 81.460807-45.804484 54.36843-94.221776 0 0-18.886601-51.806135-137.427229-53.298511-118.76104 1.492377-137.652233 53.298511-137.652233 53.298511-27.165848 48.417291 43.237596 88.58748 54.409758 94.217184 4.784789 2.539336 20.525919 10.033363 36.404807 17.867193L430.594296 266.800215c-4.307229-3.618439-9.165489-7.686888-12.765561-11.300735-10.09765-9.514475-78.420951-78.402583-159.551139-78.402583-81.240395 0-154.206135 11.484413-178.364269 103.318386 0 0-11.842583 44.00904 29.948556 94.32739 0 0-96.086099 31.22052-96.086098 138.304287 0 107.267444 96.086099 126.888753 96.086098 126.888753s-40.454888 31.927677-27.836269 93.996771c0 0 8.127713 105.628126 176.43566 101.972951 0 0 82.838386 2.277596 172.688645-93.808502l90.222207 72.552466c-20.190709 9.845094-44.941202 21.926457-51.177041 25.062744-11.172161 5.817973-81.575605 45.873363-54.409758 94.217184 0 0 18.891193 51.916341 137.652234 53.335247 118.540628-1.418906 137.431821-53.335247 137.43182-53.335247 27.092377-48.343821-43.200861-88.399211-54.36843-94.217184-6.350637-3.136287-31.064395-15.21765-51.255103-25.067336l90.258941-72.547874c89.85026 96.086099 172.688646 93.813094 172.688646 93.813094 168.454888 3.650583 176.545865-101.977543 176.545865-101.977543 12.545148-62.069094-27.946475-93.996771-27.946475-93.996771S1092.878924 620.323587 1092.878924 513.04696z" fill="#B18E72" opacity=".53" p-id="6300"></path></svg>