<?xml version="1.0" standalone="no"?><!DOCTYPE svg PUBLIC "-//W3C//DTD SVG 1.1//EN" "http://www.w3.org/Graphics/SVG/1.1/DTD/svg11.dtd"><svg t="1618387505799" class="icon" viewBox="0 0 1403 1024" version="1.1" xmlns="http://www.w3.org/2000/svg" p-id="7677" xmlns:xlink="http://www.w3.org/1999/xlink" width="274.0234375" height="200"><defs><style type="text/css"></style></defs><path d="M1037.274 682.667S957.63 551.822 798.341 551.822c-51.2 0-100.504 18.963-144.119 49.304-62.578 45.511-199.11 109.985-316.681 43.615 0-1.897 367.881 244.622 367.881 244.622l331.852-206.696z" p-id="7678"></path><path d="M1128.296 612.504c0-1.897-117.57-195.319-335.644-195.319-70.163 0-138.43 20.86-197.215 53.096-85.333 49.304-248.415 164.978-409.6 91.023l513.896 328.059 428.563-276.86z"  opacity=".5" p-id="7679"></path><path d="M701.63 1014.519c-34.134 0-72.06-11.378-108.09-41.719-3.792-5.689-5.688-11.378-5.688-17.067s3.792-11.377 7.585-15.17l68.267-45.511L9.48 468.385C0 462.696-1.896 451.32 3.793 441.837c1.896-1.896 45.51-70.163 121.363-151.704 51.2-53.096 104.296-100.503 161.185-140.326 94.815-66.37 193.422-111.881 292.03-130.844 91.022-17.067 182.044-13.274 273.066 9.481 81.54 20.86 163.082 60.682 244.622 115.675 60.682 41.718 121.363 92.918 180.148 153.6 41.719 41.718 83.437 89.125 123.26 140.325 3.792 5.69 3.792 11.378 3.792 17.067s-3.792 9.482-7.585 13.274l-650.43 430.46 64.475 51.2c3.792 3.792 7.585 9.48 7.585 15.17s-3.793 11.378-7.585 15.17c-22.756 15.17-62.578 34.134-108.09 34.134z m-62.578-54.993c49.304 30.34 98.607 17.067 125.155 3.793l-58.785-47.408-66.37 43.615zM164.978 303.407l481.659 502.519-356.504-612.504c-41.718 32.237-85.333 70.163-125.155 109.985z m1097.955 37.926L817.303 804.03l538.549-356.504c-30.34-37.926-62.578-73.956-92.919-106.193zM45.511 447.526L591.644 804.03 138.43 331.852C92.919 381.156 60.68 424.77 45.51 447.526zM1092.267 189.63L766.104 802.133l468.385-487.348c-47.408-49.304-94.815-89.126-142.222-125.155zM603.022 54.993l96.711 714.903L824.89 62.578c-73.956-17.067-147.911-18.963-221.867-7.585zM860.92 72.059L741.452 764.207 1060.03 168.77c-66.37-43.614-132.741-75.851-199.111-96.71zM441.837 377.363l218.074 373.57-94.815-688.355c-81.54 17.066-163.081 54.992-242.726 108.089l119.467 206.696z"  p-id="7680"></path></svg>