<?xml version="1.0" standalone="no"?><!DOCTYPE svg PUBLIC "-//W3C//DTD SVG 1.1//EN" "http://www.w3.org/Graphics/SVG/1.1/DTD/svg11.dtd"><svg t="1618389325686" class="icon" viewBox="0 0 1024 1024" version="1.1" xmlns="http://www.w3.org/2000/svg" p-id="14964" xmlns:xlink="http://www.w3.org/1999/xlink" width="200" height="200"><defs><style type="text/css"></style></defs><path d="M903.936 988.928c34.816-74.24 54.912-153.6 60.416-233.728 1.024-14.336 1.536-28.8 1.536-43.264v-6.144c-0.512-76.288-14.208-152.576-40.704-224.128-27.264-74.112-68.224-142.976-120.064-202.624-14.464-16.64-29.952-32.768-46.08-48-4.736-4.48-9.6-8.832-14.464-13.184l-3.456-3.072c-0.128-0.128-0.384-0.256-0.512-0.512-0.512-0.512-1.024-0.896-1.536-1.408C557.056 57.216 300.032 10.624 75.52 95.36c-9.6 3.584-19.072 7.424-28.416 11.52-5.76 2.432-11.52 5.12-17.152 7.808v0.128l11.648 25.088 108.032 231.68 22.528 48.256c0.64-0.384 1.408-0.768 2.048-1.152 1.152-0.64 2.304-1.28 3.584-1.92 1.664-0.896 3.328-1.792 4.864-2.56 1.28-0.64 2.432-1.28 3.712-1.92 14.464-7.296 29.568-13.056 44.928-18.176 0.768-0.256 1.536-0.512 2.304-0.64 1.152-0.384 2.432-0.768 3.584-1.152 5.632-1.664 11.392-3.2 17.28-4.608 1.408-0.384 2.688-0.64 4.096-0.896l7.296-1.536c1.152-0.256 2.304-0.512 3.328-0.64 15.744-3.072 31.36-3.712 47.232-5.12h0.384c25.088 0 50.176 1.408 74.752 6.656 0.896 0.128 1.92 0.384 2.816 0.64 19.328 4.096 38.144 10.368 56.32 18.176 21.632 9.216 41.856 21.248 60.928 34.944 0.384 0.256 0.768 0.512 1.024 0.768 0.896 0.64 1.664 1.28 2.56 1.92l0.128 0.128c0.128 0.128 0.384 0.256 0.512 0.384 0.128 0.128 0.384 0.256 0.512 0.384 0.384 0.256 0.768 0.512 1.152 0.896 0.128 0.128 0.384 0.256 0.512 0.384l0.384 0.384c0.64 0.512 1.408 1.024 2.048 1.664 30.336 24.832 54.528 53.76 75.776 86.656 26.112 40.576 40.32 93.056 42.88 141.184 0.128 1.408 0.128 2.944 0.256 4.352 0.768 15.872 0.128 31.872-1.536 47.616-2.048 19.456-6.016 38.912-11.776 57.6-6.144 20.352-14.464 39.936-24.704 58.624-0.768 1.28-1.408 2.688-2.176 3.968l50.816 23.68 228.992 106.752c-0.256-0.128 24.96 11.648 24.96 11.648z" p-id="14965"></path><path d="M952.832 1017.088c18.048-37.12 33.024-76.16 44.288-116.096 11.264-39.808 19.072-81.024 23.296-122.368 4.224-41.344 4.736-83.328 1.536-124.8-3.2-41.6-9.984-83.2-20.352-123.392-10.496-40.576-24.576-80.384-41.984-118.144-17.408-37.888-38.272-74.496-62.208-108.928-47.616-68.352-108.416-129.152-176.768-176.768-34.432-23.936-71.04-44.928-108.928-62.208-37.76-17.408-77.568-31.488-118.144-41.984C453.376 12.032 411.904 5.12 370.176 2.048c-41.6-3.2-83.584-2.56-124.8 1.536C204.032 7.68 162.944 15.616 123.008 26.88 83.072 38.144 44.032 53.12 6.912 71.168c-6.016 2.944-8.576 10.24-5.76 16.256l17.536 37.632 11.52 24.704c0.128 0.128 0.128 0.256 0.256 0.512L138.24 381.44c0.128 0.128 0.128 0.384 0.256 0.512l22.528 48.256 18.176 38.912c0.64 1.28 1.408 2.432 2.432 3.456 0.128 0.128 0.256 0.128 0.384 0.256l13.184 28.288L284.288 692.48l-52.48-24.448c-5.76-2.688-12.544-0.256-15.232 5.504-0.768 1.664-1.152 3.456-1.024 5.248 0.128 2.944 1.28 5.76 3.328 7.808 0.896 0.896 2.048 1.664 3.2 2.304l22.016 10.24-24.192-2.048h-1.024-1.664c-0.256 0-0.512 0.128-0.768 0.128-2.56 0.512-4.864 2.048-6.4 3.968-0.128 0.128-0.128 0.256-0.256 0.256-0.128 0.128-0.256 0.384-0.384 0.64-0.128 0.128-0.128 0.384-0.256 0.512-0.128 0.128-0.256 0.256-0.256 0.512-0.128 0.256-0.256 0.384-0.256 0.64 0 0.128-0.128 0.256-0.128 0.384-0.128 0.384-0.256 0.64-0.384 1.024-0.256 0.768-0.384 1.536-0.384 2.304v1.28c0 0.256 0 0.64 0.128 0.896v0.384c0 0.128 0.128 0.384 0.128 0.512 0 0.256 0.128 0.512 0.128 0.64v0.128l0.384 1.152c0.384 1.024 0.896 1.92 1.536 2.816 0.384 0.384 0.64 0.896 1.024 1.28 0.512 0.512 0.896 0.896 1.536 1.28 0.512 0.384 1.024 0.64 1.536 0.896 0.128 0 0.128 0.128 0.256 0.128 1.152 0.512 2.56 0.896 3.968 1.024l1.152 0.128 23.04 2.048-19.2 5.12c-0.128 0-0.256 0.128-0.384 0.128l-4.096 1.024c-0.512 0.128-0.896 0.256-1.28 0.384-0.128 0-0.256 0.128-0.256 0.128-0.384 0.128-0.64 0.256-1.024 0.512-0.128 0-0.128 0.128-0.256 0.128-0.768 0.512-1.536 1.024-2.176 1.664l-0.128 0.128-0.256 0.256c-0.128 0.128-0.256 0.256-0.384 0.512-0.128 0.128-0.256 0.256-0.384 0.512-0.128 0.128-0.128 0.256-0.256 0.384-0.128 0.256-0.256 0.384-0.384 0.64 0 0.128-0.128 0.128-0.128 0.256l-0.384 0.768c0 0.128-0.128 0.128-0.128 0.256l-0.384 0.768c0 0.128 0 0.128-0.128 0.256-0.128 0.256-0.128 0.512-0.256 0.768v0.256c0 0.256-0.128 0.512-0.128 0.768v0.256c0 0.256 0 0.512-0.128 0.768V740.096c0 0.384 0 0.64 0.128 1.024v0.128c0 0.384 0.128 0.768 0.256 1.152 0.256 0.896 0.64 1.92 1.152 2.816 0 0 0 0.128 0.128 0.128 0.256 0.384 0.512 0.768 0.768 1.024 0 0 0 0.128 0.128 0.128 0.256 0.384 0.64 0.768 0.896 1.024 0.64 0.64 1.408 1.28 2.176 1.664 0 0 0.128 0 0.128 0.128 0.384 0.256 0.768 0.384 1.024 0.512 0.128 0 0.128 0.128 0.256 0.128 0.384 0.128 0.64 0.256 1.024 0.384 0.128 0 0.256 0.128 0.512 0.128 0.256 0.128 0.64 0.128 0.896 0.128 0.256 0 0.384 0.128 0.64 0.128h2.944c0.256 0 0.64-0.128 0.896-0.128 0.128 0 0.256 0 0.512-0.128l4.48-1.152c0.128 0 0.256-0.128 0.512-0.128l18.688-4.992-20.352 14.336-0.256 0.256c-0.128 0.128-0.384 0.256-0.512 0.384-0.128 0.128-0.256 0.256-0.512 0.384l-0.256 0.256s0 0.128-0.128 0.128l-0.512 0.512c-0.128 0.128-0.256 0.256-0.256 0.384-0.128 0.128-0.256 0.384-0.384 0.512-0.128 0.128-0.128 0.256-0.256 0.384-0.128 0.128-0.256 0.384-0.256 0.512-0.128 0.128-0.128 0.256-0.256 0.512-0.128 0.128-0.128 0.256-0.256 0.512-0.128 0.128-0.128 0.384-0.256 0.512 0 0.128-0.128 0.256-0.128 0.384-0.128 0.256-0.128 0.384-0.256 0.64 0 0.128-0.128 0.256-0.128 0.512s-0.128 0.384-0.128 0.64c0 0.128 0 0.384-0.128 0.512 0 0.128 0 0.384-0.128 0.512V769.28c0 0.256 0 0.384 0.128 0.64v0.512c0 0.256 0.128 0.384 0.128 0.64 0 0.128 0 0.256 0.128 0.384v0.128c0 0.128 0.128 0.256 0.128 0.384 0.128 0.256 0.128 0.384 0.256 0.64 0 0.128 0.128 0.256 0.128 0.256l0.384 0.768 0.128 0.128c0.128 0.256 0.384 0.512 0.512 0.768 0.384 0.512 0.768 1.024 1.28 1.536l0.128 0.128c0.384 0.384 0.768 0.768 1.28 1.024 0.128 0.128 0.256 0.128 0.384 0.256 0.512 0.256 0.896 0.512 1.408 0.768 0 0 0.128 0 0.128 0.128 0.128 0 0.256 0.128 0.256 0.128 0.512 0.256 1.024 0.384 1.408 0.512h0.128c0.128 0 0.256 0 0.384 0.128 0.512 0.128 1.024 0.256 1.536 0.256h2.432c0.384 0 0.896-0.128 1.28-0.256 0.128 0 0.256 0 0.384-0.128h0.256c0.512-0.128 0.896-0.256 1.408-0.512 0.128 0 0.256-0.128 0.256-0.128 0.128 0 0.128-0.128 0.256-0.128 0.384-0.256 0.896-0.512 1.28-0.768 0 0 0.128 0 0.128-0.128l20.352-14.208-14.592 20.864v0.128c-0.256 0.384-0.512 0.896-0.768 1.28 0 0.128-0.128 0.256-0.128 0.256 0 0.128-0.128 0.128-0.128 0.256-0.256 0.512-0.384 0.896-0.512 1.408 0 0.128 0 0.128-0.128 0.256s0 0.128-0.128 0.256c-0.128 0.384-0.128 0.768-0.256 1.152v2.688c0 0.512 0.128 0.896 0.256 1.408 0 0.128 0 0.256 0.128 0.512v0.128c0.128 0.512 0.256 0.896 0.512 1.408 0 0.128 0.128 0.256 0.128 0.384 0 0 0 0.128 0.128 0.128 0.256 0.512 0.512 0.896 0.768 1.408 0.128 0.128 0.128 0.256 0.256 0.384 0.256 0.384 0.64 0.768 1.024 1.28l0.128 0.128c0.512 0.512 1.024 0.896 1.536 1.28 0.256 0.128 0.512 0.384 0.768 0.512 0.128 0 0.128 0.128 0.256 0.128 0.256 0.128 0.512 0.256 0.64 0.384 0.128 0 0.256 0.128 0.384 0.128h0.128c0.128 0 0.256 0.128 0.384 0.128 0.128 0.128 0.384 0.128 0.512 0.256 0.128 0 0.256 0.128 0.384 0.128 0.256 0 0.512 0.128 0.64 0.128h0.384c0.256 0 0.512 0.128 0.768 0.128H257.536c0.256 0 0.512-0.128 0.896-0.128h0.256c0.256 0 0.512-0.128 0.896-0.256 0.128 0 0.128 0 0.256-0.128 0.256-0.128 0.512-0.128 0.896-0.256h0.128c0.256-0.128 0.64-0.256 0.896-0.384h0.128c0.256-0.128 0.64-0.384 0.896-0.512 0.64-0.384 1.28-0.896 1.792-1.408l0.768-0.768 0.128-0.128c0.128-0.128 0.256-0.384 0.384-0.512l14.592-20.864-6.656 24.96c0 0.128-0.128 0.256-0.128 0.384-0.128 0.512-0.256 0.896-0.256 1.408v0.128c-0.128 0.896-0.128 1.92 0 2.816v0.256c0 0.384 0.128 0.896 0.256 1.28v0.128c0.256 0.896 0.64 1.792 1.024 2.56 0 0.128 0.128 0.128 0.128 0.256 0.256 0.384 0.384 0.64 0.64 0.896 0 0.128 0.128 0.128 0.128 0.256 0.256 0.384 0.64 0.768 0.896 1.024 4.48 4.48 11.776 4.48 16.256 0 0.128-0.128 0.256-0.256 0.256-0.384l0.64-0.64c0-0.128 0.128-0.128 0.128-0.256 0.128-0.128 0.128-0.256 0.256-0.384 0.128-0.256 0.256-0.384 0.384-0.64 0.128-0.128 0.256-0.384 0.256-0.512 0.128-0.384 0.384-0.768 0.512-1.152 0.128-0.256 0.128-0.384 0.256-0.64s0.128-0.512 0.256-0.768c0-0.128 0.128-0.256 0.128-0.384l6.656-24.96 2.304 26.752c0 0.256 0.128 0.512 0.128 0.768 0 0.384 0.128 0.768 0.256 1.152 0 0.256 0.128 0.384 0.256 0.64 0.128 0.512 0.256 0.896 0.512 1.28 0 0.128 0.128 0.128 0.128 0.256 0.512 1.152 1.28 2.176 2.176 3.072l0.256 0.256c0.384 0.256 0.64 0.64 1.024 0.896 0.128 0.128 0.384 0.256 0.512 0.384 0.384 0.256 0.896 0.512 1.408 0.768 0.256 0.128 0.384 0.128 0.64 0.256 0.512 0.256 1.024 0.384 1.536 0.512 0.128 0 0.384 0.128 0.512 0.128 0.512 0.128 1.152 0.128 1.664 0.256h0.256c2.432 0 4.736-0.64 6.528-1.92 0 0 0.128 0 0.128-0.128 0.256-0.128 0.512-0.384 0.768-0.512l0.128-0.128c0.256-0.128 0.512-0.384 0.64-0.64 0 0 0.128-0.128 0.128-0.256 0.256-0.256 0.384-0.384 0.512-0.64 0.128-0.128 0.128-0.128 0.128-0.256 0.128-0.256 0.384-0.384 0.512-0.64 0-0.128 0.128-0.128 0.128-0.256 0.128-0.256 0.256-0.384 0.384-0.64 0.128-0.128 0.128-0.256 0.128-0.384 0.128-0.256 0.256-0.384 0.256-0.64 0.128-0.128 0.128-0.256 0.128-0.512 0.128-0.128 0.128-0.384 0.256-0.64 0-0.128 0.128-0.384 0.128-0.64 0-0.128 0.128-0.384 0.128-0.512 0-0.256 0.128-0.512 0.128-0.768 0-0.128 0-0.256 0.128-0.384v-0.768-0.384-1.28l-2.304-26.88 9.6 20.736 2.048 4.48c0.256 0.512 0.64 1.152 0.896 1.664 0.384 0.64 0.896 1.152 1.408 1.664 3.328 3.328 8.448 4.352 12.928 2.304 5.76-2.688 8.192-9.472 5.504-15.232L331.648 739.84l5.376 2.56 214.144 99.84c1.024 1.024 2.176 1.92 3.456 2.56 0.128 0 0.256 0.128 0.256 0.128l38.784 18.048H594.048c0.128 0.128 0.384 0.128 0.512 0.256 0.128 0 0.128 0.128 0.256 0.128 1.152 0.384 2.176 0.64 3.328 0.64l296.96 138.496 0.128 0.128 0.128 0.128c0.512 0.384 0.896 0.896 1.536 1.28 0.128 0 0.128 0.128 0.256 0.128 0.512 0.384 1.024 0.64 1.664 1.024l37.632 17.536c6.144 2.944 13.44 0.384 16.384-5.632zM351.616 633.728c0 0.128-0.128 0.128-0.128 0.256l-0.128 0.128-0.128 0.128-15.36 22.016 57.216-213.76c12.672 3.072 25.216 7.168 37.248 12.032 11.904 4.992 23.552 10.752 34.432 17.408l-113.152 161.792z m94.592-28.288c-0.128 0.128-0.256 0.128-0.256 0.256l-68.096 47.744c-0.128 0-0.128 0.128-0.256 0.128L354.688 669.44l63.872-91.136c0-0.128 0.128-0.128 0.128-0.256l65.28-93.184c1.92 1.408 3.84 2.816 5.76 4.352 0.128 0 0.128 0.128 0.256 0.128 1.664 1.28 3.328 2.56 4.864 3.968l0.128 0.128 2.304 1.92c11.136 9.344 22.016 20.224 31.488 31.488 0.64 0.768 1.28 1.536 2.048 2.432 1.28 1.536 2.56 3.2 3.84 4.736l0.384 0.384c1.536 1.92 2.944 3.84 4.352 5.888L446.208 605.44z m-112.64-170.112c12.416 0 24.832 1.024 37.12 2.816l-27.904 104.32c0 0.128-0.128 0.256-0.128 0.256l-28.8 107.648-9.728-110.976v-0.384l-8.832-100.992c12.544-1.792 25.472-2.688 38.272-2.688z m141.824 224.128c-0.128 0-0.256 0.128-0.384 0.128l-107.136 28.672 184.192-129.024c0.64 1.152 1.408 2.304 2.048 3.328 0.512 1.024 1.152 1.92 1.664 2.944v0.128c5.12 9.088 9.728 18.56 13.568 28.032 4.992 12.16 9.088 24.704 12.16 37.376l-106.112 28.416zM238.848 453.12c10.88-4.352 22.144-7.808 33.664-10.624l18.304 209.792-46.976-100.864s0-0.128-0.128-0.128l-38.272-82.048c10.752-6.144 21.888-11.52 33.408-16.128zM485.12 720.128h-0.384L373.76 710.4l107.52-28.8c0.128 0 0.256-0.128 0.384-0.128l104.064-27.904c1.792 12.288 2.688 24.576 2.688 36.992 0 12.8-0.896 25.728-2.816 38.528l-100.48-8.96z m122.88 23.552c9.344-49.792 5.504-102.016-12.032-149.504-27.904-75.776-90.24-138.112-166.144-166.144-25.856-9.6-53.248-15.104-80.768-16.512-27.648-1.536-55.552 1.024-82.56 7.424-13.44 3.2-26.752 7.424-39.552 12.544-6.4 2.56-12.8 5.376-18.944 8.448-3.072 1.536-6.144 3.072-9.216 4.736-2.048 1.152-2.304 1.92-3.712 0.128-1.28-1.792-2.048-4.48-3.072-6.528-1.28-2.688-2.432-5.376-3.712-7.936 75.008-38.784 166.528-43.904 245.376-13.824S577.28 511.488 607.36 590.336c30.08 78.848 24.96 170.368-13.824 245.376-5.248-2.432-10.624-4.992-15.872-7.424 14.592-26.368 24.832-55.04 30.336-84.608z m-22.4-242.944z m-112.64 279.68c-0.128 0-0.128-0.128-0.256-0.128l-100.864-46.976 209.536 18.304c-2.816 11.392-6.272 22.528-10.496 33.408-4.608 11.52-9.984 22.784-16.128 33.536l-81.792-38.144z m177.92-60.928c2.304-34.048-0.64-68.608-8.96-101.632-7.68-30.336-19.968-59.52-35.968-86.4-16.128-27.008-36.096-51.84-59.264-73.216-16.384-15.232-34.304-28.672-53.504-40.064-5.76-3.456-11.648-6.656-17.664-9.6-11.904-6.016-24.32-11.392-36.864-15.872-25.216-8.96-51.584-14.848-78.336-17.664-26.752-2.688-53.76-2.304-80.256 1.28-26.496 3.584-52.736 10.496-77.568 20.48-8.32 3.328-16.512 7.168-24.448 11.264-44.032-94.08-87.936-188.032-131.712-281.984 157.824-70.272 344.192-73.472 504.192-8.576s291.84 196.608 356.352 356.864 61.056 346.496-9.344 504.192c-93.952-43.776-188.032-87.68-281.984-131.456 20.48-39.552 32.384-83.328 35.328-127.616zM920.448 988.16c3.456-7.808 6.784-15.744 9.984-23.68 0.128-0.256 0.256-0.64 0.384-0.896l4.224-10.752c0.256-0.64 0.512-1.28 0.64-1.792 1.28-3.328 2.432-6.528 3.712-9.856 0.256-0.768 0.512-1.664 0.896-2.432 1.152-3.072 2.176-6.272 3.2-9.344 0.384-0.896 0.64-1.92 0.896-2.816 1.024-2.944 2.048-6.016 2.944-8.96 0.384-1.024 0.64-2.048 1.024-3.2l2.688-8.832c0.384-1.152 0.64-2.304 1.024-3.328 0.896-2.816 1.664-5.76 2.432-8.576 0.384-1.152 0.64-2.432 1.024-3.584l2.304-8.448c0.256-1.28 0.64-2.432 0.896-3.712 0.64-2.816 1.408-5.504 2.048-8.32 0.256-1.28 0.64-2.56 0.896-3.84 0.64-2.816 1.28-5.504 1.92-8.32 0.256-1.28 0.512-2.688 0.896-3.968 0.64-2.688 1.152-5.504 1.664-8.192 0.256-1.28 0.512-2.688 0.768-4.096 0.512-2.688 1.024-5.504 1.536-8.192 0.256-1.408 0.512-2.688 0.768-4.096 0.512-2.688 0.896-5.376 1.408-8.192 0.256-1.408 0.384-2.816 0.64-4.224l1.152-8.064c0.256-1.408 0.384-2.816 0.512-4.224 0.384-2.688 0.768-5.376 1.024-8.192 0.128-1.408 0.384-2.816 0.512-4.224 0.256-2.688 0.64-5.376 0.896-8.192l0.384-4.224c0.256-2.688 0.512-5.376 0.768-8.192l0.384-4.224c0.256-2.688 0.384-5.376 0.512-8.192 0.128-1.408 0.128-2.816 0.256-4.224 0.128-2.688 0.256-5.504 0.384-8.192 0.128-1.408 0.128-2.816 0.128-4.224 0.128-2.688 0.128-5.504 0.256-8.192 0-1.408 0.128-2.816 0.128-4.224 0-2.816 0.128-5.504 0.128-8.32v-4.224-8.448-4.096c0-2.816-0.128-5.632-0.256-8.576 0-1.28-0.128-2.688-0.128-3.968-0.128-2.944-0.256-5.76-0.384-8.704 0-1.28-0.128-2.56-0.128-3.84-0.128-2.944-0.384-6.016-0.512-8.96-0.128-1.152-0.128-2.432-0.256-3.584-0.256-3.072-0.512-6.272-0.768-9.344-0.128-1.024-0.128-2.176-0.256-3.2-0.256-3.328-0.64-6.656-1.024-9.984-0.128-0.896-0.128-1.664-0.256-2.56-0.384-3.712-0.896-7.424-1.28-11.264 0-0.384-0.128-0.896-0.128-1.28-1.024-8.448-2.304-16.768-3.712-25.216-23.04-137.984-87.68-263.424-186.88-362.752-1.536-1.536-3.072-3.072-4.608-4.48l-0.384-0.384c-1.152-1.152-2.176-2.176-3.328-3.2-0.128-0.128-0.384-0.256-0.512-0.512l-0.896-0.896c-0.512-0.384-0.896-0.896-1.28-1.28-1.28-1.152-2.432-2.432-3.712-3.584-1.024-1.024-2.176-2.048-3.2-2.944-0.512-0.512-1.024-1.024-1.664-1.536-1.664-1.536-3.328-3.072-4.864-4.48-0.768-0.64-1.536-1.408-2.304-2.048-0.896-0.768-1.664-1.536-2.56-2.304 0 0-0.128 0-0.128-0.128-1.408-1.152-2.688-2.432-4.096-3.584-0.512-0.512-1.152-1.024-1.536-1.408-0.256-0.256-0.64-0.512-0.896-0.768-1.536-1.28-2.944-2.56-4.48-3.84-1.28-1.024-2.432-2.048-3.712-3.072-0.512-0.512-1.152-0.896-1.664-1.408l-6.144-4.992c-0.896-0.768-1.792-1.408-2.56-2.176-0.384-0.256-0.64-0.512-1.024-0.768-3.072-2.432-6.016-4.864-9.088-7.168 0 0-0.128 0-0.128-0.128-71.04-54.912-152.064-94.72-239.104-117.248-1.28-0.384-2.688-0.64-3.968-1.024-2.176-0.512-4.352-1.024-6.4-1.664-0.128 0-0.384-0.128-0.512-0.128h-0.256c-2.56-0.64-5.12-1.28-7.808-1.792-1.024-0.256-2.176-0.512-3.2-0.768-6.016-1.408-12.032-2.688-18.176-3.84-1.792-0.384-3.584-0.768-5.376-1.024-0.384-0.128-0.768-0.128-1.28-0.256-1.408-0.256-2.688-0.512-4.096-0.768l-0.64-0.128c-0.128 0-0.256 0-0.384-0.128h-0.384c-3.968-0.768-8.064-1.408-12.544-2.048-1.408-0.256-2.944-0.384-4.352-0.64-1.28-0.256-2.56-0.384-3.84-0.512-1.408-0.256-2.816-0.384-4.224-0.64-1.408-0.128-2.688-0.384-4.096-0.512l-2.304-0.256c-3.456-0.384-6.912-0.896-10.368-1.28l-3.456-0.384-4.864-0.512c-0.896-0.128-1.792-0.128-2.688-0.256C268.672 38.4 164.096 52.864 66.56 90.88c-0.128 0-0.128 0.128-0.256 0.128s-0.256 0.128-0.512 0.128c-0.512 0.256-1.152 0.384-1.664 0.64-2.816 1.152-5.76 2.304-8.576 3.456-0.512 0.256-1.024 0.384-1.536 0.64-1.536 0.64-3.2 1.28-4.736 1.92l-1.152 0.512s-0.128 0-0.128 0.128c-0.512 0.128-0.896 0.384-1.408 0.512-3.2 1.408-6.656 2.816-10.24 4.48-0.128 0-0.256 0.128-0.384 0.128l-7.168-15.36c32.512-15.104 66.432-27.776 101.12-37.632 38.528-10.88 78.208-18.432 118.144-22.4 39.808-4.096 80.384-4.48 120.448-1.536 40.192 3.072 80.256 9.6 119.168 19.712 39.168 10.112 77.568 23.68 114.048 40.448 36.608 16.768 71.936 36.992 105.088 60.032 65.92 45.952 124.672 104.704 170.624 170.624 23.168 33.152 43.264 68.48 60.032 105.088 16.768 36.48 30.336 74.752 40.448 113.92 9.984 38.784 16.64 78.976 19.712 119.168 3.072 40.064 2.56 80.64-1.536 120.448-3.968 39.936-11.52 79.616-22.4 118.016-9.856 34.688-22.528 68.608-37.632 101.12l-15.616-7.04z" p-id="14966"></path></svg>