<?xml version="1.0" standalone="no"?><!DOCTYPE svg PUBLIC "-//W3C//DTD SVG 1.1//EN" "http://www.w3.org/Graphics/SVG/1.1/DTD/svg11.dtd"><svg t="1618389830551" class="icon" viewBox="0 0 1024 1024" version="1.1" xmlns="http://www.w3.org/2000/svg" p-id="1254" xmlns:xlink="http://www.w3.org/1999/xlink" width="200" height="200"><defs><style type="text/css"></style></defs><path d="M887.091559 490.503482c-28.799596 28.799596-66.431068 43.775386-104.190538 44.92737-59.90316 59.775162-156.925799 59.775162-216.828959-0.127998-13.56781-13.56781-24.191661-29.183591-31.487559-45.695359-16.639767-7.423896-32.127549-17.919749-45.695359-31.615557-60.031158-59.90316-60.031158-156.925799-0.255996-216.828959 1.023986-37.887469 15.999776-75.390943 44.92737-104.190538 50.047298-50.047298 125.950234-58.239183 184.573411-24.831652 53.247253-17.535754 114.174399-5.119928 156.541805 37.247477 42.367406 42.367406 54.783232 103.294551 37.247477 156.541805 33.53553 58.623178 25.215646 134.654111-24.831652 184.573411z" fill="#dbdbdb" p-id="1255"></path><path d="M997.938005 298.634173c23.295673-77.438914 2.559964-160.381751-54.783232-217.852944-57.343196-57.343196-140.414031-78.078905-217.852944-54.783232C640.695015-19.569364 535.224494-4.209579 467.001451 64.013464c-38.52746 38.52746-61.055144 89.342747-63.743106 143.613986-81.662855 85.502801-80.382873 221.564893 3.711948 305.659713 14.719794 14.719794 31.231562 27.007621 49.151311 36.991481L3.64795 1002.6243c-4.863932 4.863932-4.863932 12.79982 0 17.663752 4.863932 4.863932 12.79982 4.863932 17.663752 0l452.473654-452.473654c9.855862 18.047747 22.271688 34.559515 36.991481 49.279309 83.966822 83.966822 220.028914 85.246804 305.659713 3.711948 54.271239-2.687962 105.086526-25.215646 143.613986-63.743106 68.351041-68.351041 83.582828-173.821562 37.887469-258.428376zM504.760922 501.511328c-15.359785-7.80789-29.311589-18.047747-41.727415-30.335575-64.639093-64.639093-64.639093-169.853618-0.127998-234.492711 2.303968-2.303968 3.58395-5.247926 3.583949-8.447881 1.151984-42.495404 18.431741-82.558842 48.51132-112.638421 52.73526-52.73526 134.78211-63.871104 199.549201-26.879623 3.071957 1.791975 6.783905 2.175969 10.111859 1.023986 55.807217-18.303743 116.094372-6.143914 160.125754 31.743555L504.760922 501.511328zM902.451344 139.14841c37.887469 44.031382 50.175296 104.190539 31.871553 159.997756-1.151984 3.327953-0.767989 7.039901 1.023986 10.111858 37.119479 64.767092 26.111634 146.813941-26.751625 199.6772-30.079578 30.079578-70.143016 47.359336-112.63842 48.511319-3.199955 0.127998-6.271912 1.40798-8.447882 3.58395-64.639093 64.511095-169.853618 64.511095-234.492711-0.127998-12.415826-12.415826-22.655682-26.495628-30.463573-41.855413L902.451344 139.14841zM424.506047 495.62341c-75.518941-75.518941-75.518941-198.269219-0.127998-273.916158 2.303968-2.303968 3.58395-5.247926 3.58395-8.447881 1.40798-49.663303 21.503698-96.382648 56.703204-131.582155 61.695135-61.695135 157.437792-74.494955 233.084731-31.35956 3.071957 1.791975 6.783905 2.175969 10.111859 1.023986 65.919075-21.631697 137.086077-6.911903 188.541355 38.527459L902.451344 103.820906c-49.407307-43.391391-116.990359-58.367181-180.349471-39.423448C648.502906 24.974011 556.856191 38.413823 497.465024 97.80499c-33.53553 33.53553-53.119255 77.566912-55.679219 124.670251-70.783007 74.622953-69.503025 193.021293 3.58395 266.236266 12.287828 12.287828 25.983636 22.655682 40.959425 31.103564l-11.903833 11.903833c-18.303743-9.215871-35.071508-21.247702-49.9193-36.095494z m517.880737 43.775387c-35.199506 35.199506-81.918851 55.295224-131.582155 56.703204-3.199955 0.127998-6.271912 1.40798-8.447881 3.58395-75.518941 75.390943-198.397217 75.262944-273.916158-0.127998-14.847792-14.847792-27.007621-31.615557-36.223492-50.175296l11.903833-11.903834c8.447882 14.97579 18.943734 28.799596 31.231562 41.087424 73.214973 73.214973 191.613313 74.366957 266.236266 3.58395 47.103339-2.559964 91.26272-22.143689 124.670251-55.679219 59.519165-59.391167 72.830979-151.16588 33.407532-224.892846 18.815736-63.359111 3.967944-130.942164-39.423448-180.349471L934.066901 107.532853c45.311365 51.455278 60.159156 122.62228 38.527459 188.541356-1.151984 3.327953-0.767989 7.039901 1.023986 10.111858 43.263393 75.646939 30.463573 171.517594-31.231562 233.21273z" fill="#8a8a8a" p-id="1256"></path></svg>