<?xml version="1.0" standalone="no"?><!DOCTYPE svg PUBLIC "-//W3C//DTD SVG 1.1//EN" "http://www.w3.org/Graphics/SVG/1.1/DTD/svg11.dtd"><svg t="1618476488755" class="icon" viewBox="0 0 4255 1024" version="1.1" xmlns="http://www.w3.org/2000/svg" p-id="4628" xmlns:xlink="http://www.w3.org/1999/xlink" width="831.0546875" height="200"><defs><style type="text/css"></style></defs><path d="M3481.6 235.140741h72.059259V34.133333h-72.059259v201.007408z m371.674074 523.377778h364.088889v-72.05926h-292.02963V201.007407H2723.081481v242.725926H2108.681481V201.007407H1407.051852V34.133333h-72.059259v235.140741h701.629629v242.725926h754.725926V273.066667h1058.133333l3.792593 485.451852z m-2165.57037 0h1107.437037v-242.725926h254.103703V758.518519h470.281482v-72.05926H3117.511111v-242.725926H2723.081481v242.725926H1759.762963V34.133333h-72.059259V758.518519z m345.125926 265.481481h1088.474074v-299.614815h-72.05926v231.348148H2104.888889v-231.348148h-72.059259V1024z m345.125926-34.133333h72.059259V34.133333h-72.059259v955.733334zM3049.244444 235.140741h72.05926V34.133333h-72.05926v201.007408zM3481.6 1024h773.688889V0H0v273.066667h690.251852v235.14074h648.533333V758.518519h386.844445v-72.05926h-314.785186v-250.311111H762.311111V201.007407H72.059259V72.059259h4111.170371v367.881482H3481.6V1024z m701.62963-72.059259H3553.659259V512h629.570371v439.940741zM1008.82963 470.281481h72.059259V273.066667h292.02963V201.007407h-364.088889v269.274074zM345.125926 235.140741H417.185185V34.133333H345.125926v201.007408z" fill="#CA8200" p-id="4629"></path></svg>