<?xml version="1.0" standalone="no"?><!DOCTYPE svg PUBLIC "-//W3C//DTD SVG 1.1//EN" "http://www.w3.org/Graphics/SVG/1.1/DTD/svg11.dtd"><svg t="1618476481919" class="icon" viewBox="0 0 4255 1024" version="1.1" xmlns="http://www.w3.org/2000/svg" p-id="4487" xmlns:xlink="http://www.w3.org/1999/xlink" width="831.0546875" height="200"><defs><style type="text/css"></style></defs><path d="M777.481481 235.140741h-72.059259V34.133333h72.059259v201.007408zM405.807407 758.518519H41.718519v-72.05926h292.029629V201.007407h1198.459259v242.725926h614.4V201.007407h701.62963V34.133333H2920.296296v235.140741H2218.666667v242.725926H1463.940741V273.066667H405.807407V758.518519z m2161.777778 0H1463.940741v-242.725926h-254.103704V758.518519H743.348148v-72.05926H1137.777778v-242.725926h394.429629v242.725926h963.318519V34.133333h72.059259V758.518519z m-341.333333 265.481481H1137.777778v-299.614815h72.059259v231.348148h944.355556v-231.348148h72.059259V1024z m-345.125926-34.133333h-72.059259V34.133333h72.059259v955.733334zM1209.837037 235.140741H1137.777778V34.133333h72.059259v201.007408zM777.481481 1024H7.585185V0h4247.703704v273.066667H3565.037037v235.14074H2920.296296V758.518519H2533.451852v-72.05926h314.785185v-250.311111h644.740741V201.007407h686.459259V72.059259H75.851852v367.881482h701.629629V1024zM75.851852 951.940741h629.57037V512H75.851852v439.940741z m3170.607407-481.65926h-72.059259V273.066667H2882.37037V201.007407h360.296297v269.274074h3.792592z m663.703704-235.14074h-72.059259V34.133333h72.059259v201.007408z" fill="#CA8200" p-id="4488"></path></svg>