<?xml version="1.0" standalone="no"?><!DOCTYPE svg PUBLIC "-//W3C//DTD SVG 1.1//EN" "http://www.w3.org/Graphics/SVG/1.1/DTD/svg11.dtd"><svg t="1618476703301" class="icon" viewBox="0 0 1024 1024" version="1.1" xmlns="http://www.w3.org/2000/svg" p-id="8429" xmlns:xlink="http://www.w3.org/1999/xlink" width="200" height="200"><defs><style type="text/css"></style></defs><path d="M721.454545 735.418182c30.952727 30.952727 80.989091 30.952727 111.709091 0l167.563636-167.563636c30.952727-30.952727 30.952727-80.989091 0-111.709091l-111.709091-111.709091c-30.952727-30.952727-80.989091-30.952727-111.709091 0l-111.709091 111.709091c-30.952727 30.952727-30.952727 80.989091 0 111.709091l55.854545 55.854545c30.952727 30.952727 80.989091 30.952727 111.709091 0l55.854545-55.854545c30.952727-30.952727 30.952727-80.989091 0-111.709091l-27.927273-27.927273-13.963636 13.963636 27.927273 27.927273c23.04 23.04 23.04 60.741818 0 83.781818l-55.854545 55.854545c-23.04 23.04-60.741818 23.04-83.781818 0l-55.854545-55.854545c-23.04-23.04-23.04-60.741818 0-83.781818l0 0 111.709091-111.709091c23.04-23.04 60.741818-23.04 83.781818 0l111.709091 111.709091c23.04 23.04 23.04 60.741818 0 83.781818l-167.563636 167.563636c-23.04 23.04-60.741818 23.04-83.781818 0l-209.454545-209.454545 209.454545-209.454545c30.952727-30.952727 30.952727-80.989091 0-111.709091l-167.563636-167.563636c-30.952727-30.952727-80.989091-30.952727-111.709091 0l-111.709091 111.709091c-30.952727 30.952727-30.952727 80.989091 0 111.709091l111.709091 111.709091c30.952727 30.952727 80.989091 30.952727 111.709091 0l55.854545-55.854545c30.952727-30.952727 30.952727-80.989091 0-111.709091l-55.854545-55.854545c-30.952727-30.952727-80.989091-30.952727-111.709091 0l-27.927273 27.927273 13.963636 13.963636 27.927273-27.927273c23.04-23.04 60.741818-23.04 83.781818 0l55.854545 55.854545c23.04 23.04 23.04 60.741818 0 83.781818l-55.854545 55.854545c-23.04 23.04-60.741818 23.04-83.781818 0l0 0-111.709091-111.709091c-23.04-23.04-23.04-60.741818 0-83.781818l111.709091-111.709091c23.04-23.04 60.741818-23.04 83.781818 0l167.563636 167.563636c23.04 23.04 23.04 60.741818 0 83.781818l-209.454545 209.454545-209.454545-209.454545c-30.952727-30.952727-80.989091-30.952727-111.709091 0l-167.563636 167.563636c-30.952727 30.952727-30.952727 80.989091 0 111.709091l111.709091 111.709091c30.952727 30.952727 80.989091 30.952727 111.709091 0l111.709091-111.709091c30.952727-30.952727 30.952727-80.989091 0-111.709091l-55.854545-55.854545c-30.952727-30.952727-80.989091-30.952727-111.709091 0l-55.854545 55.854545c-30.952727 30.952727-30.952727 80.989091 0 111.709091l27.927273 27.927273 13.963636-13.963636-27.927273-27.927273c-23.04-23.04-23.04-60.741818 0-83.781818l55.854545-55.854545c23.04-23.04 60.741818-23.04 83.781818 0l55.854545 55.854545c23.04 23.04 23.04 60.741818 0 83.781818l0 0-111.709091 111.709091c-23.04 23.04-60.741818 23.04-83.781818 0l-111.709091-111.709091c-23.04-23.04-23.04-60.741818 0-83.781818l167.563636-167.563636c23.04-23.04 60.741818-23.04 83.781818 0l209.454545 209.454545-209.454545 209.454545c-30.952727 30.952727-30.952727 80.989091 0 111.709091l167.563636 167.563636c30.952727 30.952727 80.989091 30.952727 111.709091 0l111.709091-111.709091c30.952727-30.952727 30.952727-80.989091 0-111.709091l-111.709091-111.709091c-30.952727-30.952727-80.989091-30.952727-111.709091 0l-55.854545 55.854545c-30.952727 30.952727-30.952727 80.989091 0 111.709091l55.854545 55.854545c30.952727 30.952727 80.989091 30.952727 111.709091 0l27.927273-27.927273-13.963636-13.963636-27.927273 27.927273c-23.04 23.04-60.741818 23.04-83.781818 0l-55.854545-55.854545c-23.04-23.04-23.04-60.741818 0-83.781818l55.854545-55.854545c23.04-23.04 60.741818-23.04 83.781818 0l0 0 111.709091 111.709091c23.04 23.04 23.04 60.741818 0 83.781818l-111.709091 111.709091c-23.04 23.04-60.741818 23.04-83.781818 0l-167.563636-167.563636c-23.04-23.04-23.04-60.741818 0-83.781818l209.454545-209.454545L721.454545 735.418182z" p-id="8430" fill="#E0BC9C"></path></svg>