<?xml version="1.0" standalone="no"?><!DOCTYPE svg PUBLIC "-//W3C//DTD SVG 1.1//EN" "http://www.w3.org/Graphics/SVG/1.1/DTD/svg11.dtd"><svg t="1618388704680" class="icon" viewBox="0 0 1024 1024" version="1.1" xmlns="http://www.w3.org/2000/svg" p-id="12815" xmlns:xlink="http://www.w3.org/1999/xlink" width="200" height="200"><defs><style type="text/css"></style></defs><path d="M685.184 702.08H400.768c-143.36 0-260.736-117.376-260.736-260.736 0-143.36 117.376-260.736 260.736-260.736h284.416c143.36 0 260.736 117.376 260.736 260.736 0 143.488-117.376 260.736-260.736 260.736z" p-id="12816"></path><path d="M964.736 424.704c0-159.232-126.208-289.536-283.904-296.192 0.384-2.176 0.512-4.352 0.512-6.528V93.056c0-24.192-19.712-43.904-43.904-43.904h-78.72c0.256-2.048 0.512-4.096 0.512-6.144 0-23.68-19.328-43.008-43.008-43.008h-8.576C483.968 0 464.64 19.328 464.64 43.008c0 2.048 0.256 4.096 0.512 6.144H386.56c-24.192 0-43.904 19.712-43.904 43.904v28.928c0 2.176 0.256 4.352 0.512 6.528-157.568 6.656-283.904 136.96-283.904 296.192S185.6 714.24 343.168 720.896c-0.384 2.176-0.512 4.352-0.512 6.528v28.928c0 22.4 16.768 40.832 38.4 43.52v205.312c0 10.368 8.448 18.816 18.816 18.816s18.816-8.448 18.816-18.816V800.256h7.168v204.928c0 10.368 8.448 18.816 18.816 18.816s18.816-8.448 18.816-18.816V800.256h7.168v204.928c0 10.368 8.448 18.816 18.816 18.816s18.816-8.448 18.816-18.816V800.256h7.168v204.928c0 10.368 8.448 18.816 18.816 18.816s18.816-8.448 18.816-18.816V800.256h7.168v204.928c0 10.368 8.448 18.816 18.816 18.816s18.816-8.448 18.816-18.816V800.256h7.168v204.928c0 10.368 8.448 18.816 18.816 18.816s18.816-8.448 18.816-18.816V799.872c21.632-2.688 38.4-21.248 38.4-43.52v-28.928c0-2.176-0.256-4.352-0.512-6.528 157.824-6.656 284.16-136.96 284.16-296.192z m-456.96-387.072h8.576c2.816 0 5.248 2.432 5.248 5.248 0 2.816-2.432 5.248-5.248 5.248h-8.576c-2.816 0-5.248-2.432-5.248-5.248-0.128-2.816 2.304-5.248 5.248-5.248zM628.224 683.52h-97.408V165.888h97.408c11.136 10.752 21.632 22.912 31.36 36.352 42.624 59.392 66.048 138.368 66.048 222.336 0.128 104.32-36.224 200.32-97.408 258.944z m-231.808 0c-61.184-58.496-97.408-154.624-97.408-258.816 0-83.968 23.424-162.944 66.048-222.464 9.728-13.44 20.224-25.728 31.36-36.352h96.768V683.52h-96.768zM380.288 93.056c0-3.456 2.816-6.272 6.272-6.272h250.88c3.456 0 6.272 2.816 6.272 6.272v28.928c0 3.456-2.816 6.272-6.272 6.272H386.56c-3.456 0-6.272-2.816-6.272-6.272V93.056zM96.896 424.704c0-139.136 110.464-253.056 248.32-258.56-3.712 4.608-7.296 9.344-10.88 14.208-47.104 65.792-73.088 152.576-73.088 244.352 0 99.456 30.848 192.768 83.84 258.56-137.728-5.504-248.192-119.424-248.192-258.56z m546.816 331.648c0 3.456-2.816 6.272-6.272 6.272H386.56c-3.456 0-6.272-2.816-6.272-6.272v-28.928c0-3.456 2.816-6.272 6.272-6.272h250.88c3.456 0 6.272 2.816 6.272 6.272v28.928z m35.712-73.088c53.12-65.792 83.84-159.104 83.84-258.56 0-91.776-25.984-178.56-73.088-244.352-3.456-4.864-7.168-9.6-10.752-14.208 137.6 5.888 247.68 119.552 247.68 258.56 0 138.88-110.08 252.672-247.68 258.56z" p-id="12817"></path></svg>