<?xml version="1.0" standalone="no"?><!DOCTYPE svg PUBLIC "-//W3C//DTD SVG 1.1//EN" "http://www.w3.org/Graphics/SVG/1.1/DTD/svg11.dtd"><svg t="1618388845691" class="icon" viewBox="0 0 1024 1024" version="1.1" xmlns="http://www.w3.org/2000/svg" p-id="13530" xmlns:xlink="http://www.w3.org/1999/xlink" width="200" height="200"><defs><style type="text/css"></style></defs><path d="M727.572214 313.05947l28.273863-37.485257c7.164418-9.467266 4.989505-17.783108-5.245377-17.783109 10.234883 0 12.409795-8.187906 5.245377-17.783108l-28.273863-37.485257c-1.791104-2.302849-4.221889-4.477761-6.908546-6.268866l20.213893-26.866567c7.164418-9.467266 4.989505-17.783108-5.245377-17.783108H362.826587c-10.234883 0-12.409795 8.187906-5.245378 17.783108l16.11994 21.365318c-7.548226 0.895552-16.503748 5.757121-21.109445 11.770115l-28.273863 37.485257c-7.164418 9.467266-4.989505 17.783108 5.245377 17.783108-10.234883 0-12.409795 8.187906-5.245377 17.783109l28.273863 37.485257c5.117441 6.78061 15.608196 12.025987 23.54023 12.025987-7.932034 0-18.422789 5.245377-23.54023 12.025987l-28.273863 37.485258c-7.164418 9.467266-4.989505 17.783108 5.245377 17.783108-10.234883 0-12.409795 8.187906-5.245377 17.783109l28.273863 37.485257c5.117441 6.78061 15.608196 12.025987 23.54023 12.025987-7.932034 0-18.422789 5.245377-23.54023 12.025987l-28.273863 37.485257c-7.164418 9.467266-4.989505 17.783108 5.245377 17.783109-10.234883 0-12.409795 8.187906-5.245377 17.783108l28.273863 37.485258c5.117441 6.78061 15.608196 12.025987 23.54023 12.025987-7.932034 0-18.422789 5.245377-23.54023 12.025987l-28.273863 37.485257c-7.164418 9.467266-4.989505 17.783108 5.245377 17.783108h421.037482c10.234883 0 12.409795-8.187906 5.245377-17.783108L727.572214 605.649175c-5.117441-6.78061-15.608196-12.025987-23.54023-12.025987 7.932034 0 18.422789-5.245377 23.54023-12.025987l28.273863-37.485257c7.164418-9.467266 4.989505-17.783108-5.245377-17.783108 10.234883 0 12.409795-8.187906 5.245377-17.783109l-28.273863-37.485257c-5.117441-6.78061-15.608196-12.025987-23.54023-12.025987 7.932034 0 18.422789-5.245377 23.54023-12.025987l28.273863-37.485258c7.164418-9.467266 4.989505-17.783108-5.245377-17.783108 10.234883 0 12.409795-8.187906 5.245377-17.783109l-28.273863-37.485257c-5.117441-6.78061-15.608196-12.025987-23.54023-12.025987 7.932034 0.63968 18.422789-4.605697 23.54023-11.386307z" fill="#f4ea2a" p-id="13531"></path><path d="M549.869065 789.109445h-75.73813c-7.676162 0-13.817091 6.14093-13.817092 13.817092s6.14093 13.817091 13.817092 13.817091h75.73813c7.676162 0 13.817091-6.14093 13.817092-13.817091s-6.268866-13.817091-13.817092-13.817092zM476.177911 826.594703c-7.676162 0-13.817091 6.14093-13.817091 13.817091v169.771115c0 7.676162 6.14093 13.817091 13.817091 13.817091s13.817091-6.14093 13.817091-13.817091V840.411794c0-7.676162-6.14093-13.817091-13.817091-13.817091zM512.895552 826.594703c-7.676162 0-13.817091 6.14093-13.817091 13.817091v169.771115c0 7.676162 6.14093 13.817091 13.817091 13.817091s13.817091-6.14093 13.817092-13.817091V840.411794c-0.127936-7.676162-6.268866-13.817091-13.817092-13.817091zM547.822089 826.594703c-7.676162 0-13.817091 6.14093-13.817091 13.817091v169.771115c0 7.676162 6.14093 13.817091 13.817091 13.817091s13.817091-6.14093 13.817091-13.817091V840.411794c0-7.676162-6.268866-13.817091-13.817091-13.817091zM764.801599 231.308346l-31.728136-37.485258c-0.895552-1.023488-1.91904-2.046977-2.942528-3.070464 1.023488-1.023488 2.046977-2.046977 2.942528-3.070465l31.728136-37.485257c7.804098-9.211394 10.106947-19.318341 6.14093-27.890055-1.791104-3.838081-7.42029-12.537731-22.516742-12.537732h-91.218391V78.808596c0-17.783108-14.456772-32.23988-32.23988-32.23988h-73.691154c0.255872-1.535232 0.383808-3.070465 0.383808-4.605698v-9.723138c0-17.783108-14.456772-32.23988-32.23988-32.23988h-14.712644c-17.783108 0-32.23988 14.456772-32.23988 32.23988v9.723138c0 1.535232 0.127936 3.070465 0.383808 4.605698h-73.691154c-17.783108 0-32.23988 14.456772-32.23988 32.23988v30.960519h-91.218391c-15.096452 0-20.725637 8.827586-22.516742 12.537732-3.966017 8.571714-1.663168 18.678661 6.14093 27.890055l31.728136 37.485257c0.895552 1.023488 1.91904 2.046977 2.942528 3.070465-1.023488 1.023488-2.046977 2.046977-2.942528 3.070464l-31.728136 37.485258c-7.42029 8.827586-9.851074 18.422789-6.652674 26.610694-3.198401 8.187906-0.895552 17.911044 6.652674 26.610695l31.728136 37.485258c0.895552 1.023488 1.91904 2.046977 2.942528 3.070464-1.023488 1.023488-2.046977 2.046977-2.942528 3.070465l-31.728136 37.485257c-7.42029 8.827586-9.851074 18.422789-6.652674 26.610695-3.198401 8.187906-0.895552 17.911044 6.652674 26.610695l31.728136 37.485257c0.895552 1.023488 1.91904 2.046977 2.942528 3.070465-1.023488 1.023488-2.046977 2.046977-2.942528 3.070465l-31.728136 37.485257c-7.42029 8.827586-9.851074 18.422789-6.652674 26.610695-3.198401 8.187906-0.895552 17.911044 6.652674 26.610694l31.728136 37.485258c0.895552 1.023488 1.91904 2.046977 2.942528 3.070464-1.023488 1.023488-2.046977 2.046977-2.942528 3.070465l-31.728136 37.485258c-7.804098 9.211394-10.106947 19.318341-6.14093 27.890055 1.791104 3.838081 7.42029 12.537731 22.516742 12.537731h91.218391v30.960519c0 17.783108 14.456772 32.23988 32.23988 32.23988h73.691154c-0.255872 1.535232-0.383808 3.070465-0.383808 4.605698v9.723138c0 17.783108 14.456772 32.23988 32.23988 32.23988h14.712644c17.783108 0 32.23988-14.456772 32.23988-32.23988V742.54073c0-1.535232-0.127936-3.070465-0.383808-4.605698h73.691154c17.783108 0 32.23988-14.456772 32.23988-32.23988V674.734633h91.218391c15.096452 0 20.725637-8.827586 22.516742-12.537731 3.966017-8.571714 1.663168-18.678661-6.14093-27.890055l-31.728136-37.485258c-0.895552-1.023488-1.91904-2.046977-2.942528-3.070465 1.023488-1.023488 2.046977-2.046977 2.942528-3.070464l31.728136-37.485258c7.42029-8.827586 9.851074-18.422789 6.652674-26.610694 3.198401-8.187906 0.895552-17.911044-6.652674-26.610695l-31.728136-37.485257c-0.895552-1.023488-1.91904-2.046977-2.942528-3.070465 1.023488-1.023488 2.046977-2.046977 2.942528-3.070465l31.728136-37.485257c7.42029-8.827586 9.851074-18.422789 6.652674-26.610695 3.198401-8.187906 0.895552-17.911044-6.652674-26.610695l-31.728136-37.485257c-0.895552-1.023488-1.91904-2.046977-2.942528-3.070465 1.023488-1.023488 2.046977-2.046977 2.942528-3.070464l31.728136-37.485258c7.42029-8.827586 9.851074-18.422789 6.652674-26.610695 3.198401-8.187906 0.767616-17.911044-6.652674-26.610694z m-264.827586-189.345328v-9.723138c0-2.558721 2.046977-4.605697 4.605697-4.605697h14.712644c2.558721 0 4.605697 2.046977 4.605697 4.605697v9.723138c0 2.558721-2.046977 4.605697-4.605697 4.605698h-14.712644c-2.430785 0-4.605697-2.046977-4.605697-4.605698z m-105.547226 36.845578c0-2.558721 2.046977-4.605697 4.605697-4.605697h226.062968c2.558721 0 4.605697 2.046977 4.605697 4.605697v30.960519H394.426787V78.808596z m-82.390805 91.090454L284.529735 137.403298h454.94053l-27.506247 32.367816c-3.070465 3.582209-10.874563 7.164418-15.992004 7.164418H327.90005c-4.989505 0-12.793603-3.454273-15.864068-7.036482z m0 41.835083c3.070465-3.582209 10.874563-7.164418 15.992004-7.164418h368.071964c4.989505 0 12.921539 3.582209 15.992004 7.164418l27.506247 32.367816H284.529735l27.506247-32.367816zM524.025987 742.54073v9.723138c0 2.558721-2.046977 4.605697-4.605697 4.605697h-14.712644c-2.558721 0-4.605697-2.046977-4.605697-4.605697V742.54073c0-2.558721 2.046977-4.605697 4.605697-4.605698h14.712644c2.430785 0 4.605697 2.046977 4.605697 4.605698z m105.547226-36.845578c0 2.558721-2.046977 4.605697-4.605697 4.605698H398.904548c-2.558721 0-4.605697-2.046977-4.605697-4.605698V674.734633h235.146426v30.960519z m82.390805-91.090454l27.506247 32.367816H284.529735l27.506247-32.367816c3.070465-3.582209 10.874563-7.164418 15.992004-7.164418h368.071964c4.989505 0.127936 12.793603 3.582209 15.864068 7.164418z m0-41.835083c-3.070465 3.582209-10.874563 7.164418-15.992004 7.164418H327.90005c-4.989505 0-12.921539-3.582209-15.992004-7.164418L284.529735 540.401799h454.94053l-27.506247 32.367816z m0-92.497751l27.506247 32.367816H284.529735l27.506247-32.367816c3.070465-3.582209 10.874563-7.164418 15.992004-7.164418h368.071964c4.989505 0.127936 12.793603 3.582209 15.864068 7.164418z m0-41.835082c-3.070465 3.582209-10.874563 7.164418-15.992004 7.164417H327.90005c-4.989505 0-12.921539-3.582209-15.992004-7.164417L284.529735 406.068966h454.94053l-27.506247 32.367816z m0-92.369815l27.506247 32.367816H284.529735l27.506247-32.367816c3.070465-3.582209 10.874563-7.164418 15.992004-7.164418h368.071964c4.989505 0 12.793603 3.582209 15.864068 7.164418z m0-41.963019c-3.070465 3.582209-10.874563 7.164418-15.992004 7.164418H327.90005c-4.989505 0-12.921539-3.582209-15.992004-7.164418L284.529735 271.736132h454.94053l-27.506247 32.367816z" fill="#c60506" p-id="13532"></path></svg>