<?xml version="1.0" standalone="no"?><!DOCTYPE svg PUBLIC "-//W3C//DTD SVG 1.1//EN" "http://www.w3.org/Graphics/SVG/1.1/DTD/svg11.dtd"><svg t="1618388910536" class="icon" viewBox="0 0 1024 1024" version="1.1" xmlns="http://www.w3.org/2000/svg" p-id="13862" data-spm-anchor-id="a313x.7781069.0.i44" xmlns:xlink="http://www.w3.org/1999/xlink" width="200" height="200"><defs><style type="text/css"></style></defs><path d="M649.6 657.152H415.872c-56.704 0-103.04-46.336-103.04-103.04V263.296c0-56.704 46.336-103.04 103.04-103.04h233.6c56.704 0 103.04 46.336 103.04 103.04V554.24c0.128 56.576-46.336 102.912-102.912 102.912z" fill="#f4ea2a" p-id="13863" data-spm-anchor-id="a313x.7781069.0.i42" class="selected"></path><path d="M549.76 787.328h-75.52c-8.192 0-14.976 6.656-14.976 14.976s6.656 14.976 14.976 14.976h75.52c8.192 0 14.976-6.656 14.976-14.976s-6.784-14.976-14.976-14.976zM476.288 824.576c-8.192 0-14.976 6.656-14.976 14.976v169.344c0 8.192 6.656 14.976 14.976 14.976 8.192 0 14.976-6.656 14.976-14.976V839.552c0-8.192-6.656-14.976-14.976-14.976zM512.768 824.576c-8.192 0-14.976 6.656-14.976 14.976v169.344c0 8.192 6.656 14.976 14.976 14.976 8.192 0 14.976-6.656 14.976-14.976V839.552c0-8.192-6.656-14.976-14.976-14.976zM547.712 824.576c-8.192 0-14.976 6.656-14.976 14.976v169.344c0 8.192 6.656 14.976 14.976 14.976 8.192 0 14.976-6.656 14.976-14.976V839.552c-0.128-8.192-6.784-14.976-14.976-14.976zM658.048 116.224V81.408c0-19.2-15.616-34.816-34.816-34.816h-70.912c0.256-1.664 0.384-3.328 0.384-4.992v-6.656c0-19.2-15.616-34.816-34.816-34.816h-11.648c-19.2 0-34.816 15.616-34.816 34.816v6.656c0 1.664 0.128 3.328 0.384 4.992h-70.912c-19.2 0-34.816 15.616-34.816 34.816v34.816c-60.544 18.816-104.576 75.264-104.576 141.824V523.52c0 66.56 44.032 123.008 104.576 141.824v38.144c0 19.2 15.616 34.816 34.816 34.816h70.912c-0.256 1.664-0.384 3.328-0.384 4.992v6.656c0 19.2 15.616 34.816 34.816 34.816h11.648c19.2 0 34.816-15.616 34.816-34.816v-6.656c0-1.664-0.128-3.328-0.384-4.992h70.912c19.2 0 34.816-15.616 34.816-34.816v-38.144c60.544-18.816 104.576-75.264 104.576-141.824V258.176c-0.128-66.56-44.16-123.136-104.576-141.952z m-112.896 526.08h-66.176c-47.104 0-85.504-38.4-85.504-85.504V225.024c0-47.104 38.4-85.504 85.504-85.504h66.176c47.104 0 85.504 38.4 85.504 85.504v331.648c0 47.232-38.4 85.632-85.504 85.632zM501.248 41.6v-6.656c0-2.688 2.304-4.992 4.992-4.992h11.648c2.688 0 4.992 2.304 4.992 4.992v6.656c0 2.688-2.304 4.992-4.992 4.992h-11.648c-2.688 0-4.992-2.304-4.992-4.992z m-105.344 68.096v-28.16c0-2.688 2.304-4.992 4.992-4.992h222.336c2.688 0 4.992 2.304 4.992 4.992v28.16H395.904z m-104.576 413.952V258.176c0-62.464 48.512-113.664 109.824-118.272-23.04 21.12-37.632 51.456-37.632 85.12v331.648c0 33.664 14.464 64 37.632 85.12-61.312-4.48-109.824-55.68-109.824-118.144z m231.424 219.776v6.656c0 2.688-2.304 4.992-4.992 4.992h-11.648c-2.688 0-4.992-2.304-4.992-4.992v-6.656c0-2.688 2.304-4.992 4.992-4.992h11.648c2.688 0 4.992 2.304 4.992 4.992z m105.344-39.808c0 2.688-2.304 4.992-4.992 4.992H400.768c-2.688 0-4.992-2.304-4.992-4.992v-28.16h232.32v28.16z m104.576-179.968c0 62.464-48.512 113.664-109.824 118.272 23.04-21.12 37.632-51.456 37.632-85.12V225.024c0-33.664-14.464-64-37.632-85.12 61.312 4.608 109.824 55.808 109.824 118.272v265.472z" fill="#ff0000" p-id="13864" data-spm-anchor-id="a313x.7781069.0.i45" class="selected"></path></svg>