<?xml version="1.0" standalone="no"?><!DOCTYPE svg PUBLIC "-//W3C//DTD SVG 1.1//EN" "http://www.w3.org/Graphics/SVG/1.1/DTD/svg11.dtd"><svg t="1618391713660" class="icon" viewBox="0 0 1024 1024" version="1.1" xmlns="http://www.w3.org/2000/svg" p-id="17517" data-spm-anchor-id="a313x.7781069.0.i134" xmlns:xlink="http://www.w3.org/1999/xlink" width="200" height="200"><defs><style type="text/css"></style></defs><path d="M207.488 207.488c-168.192 168.192-168.192 440.832 0 609.024 168.192 168.192 440.832 168.192 609.024 0 168.192-168.192 168.192-440.832 0-609.024-168.192-168.192-440.832-168.192-609.024 0zM704 490.112c12.032 12.032 12.032 31.872 0 43.904L533.888 704c-12.032 12.032-31.872 12.032-43.904 0L320 533.888c-12.032-12.032-12.032-31.872 0-43.904L490.112 320c12.032-12.032 31.872-12.032 43.904 0L704 490.112z" fill="#B79C63" p-id="17518" data-spm-anchor-id="a313x.7781069.0.i130" class="selected"></path><path d="M512 1023.872c-136.704 0-265.216-53.248-361.984-149.888C53.376 777.216 0.128 648.704 0.128 512s53.248-265.216 149.888-361.984C246.784 53.376 375.296 0.128 512 0.128c136.704 0 265.216 53.248 361.984 149.888 96.64 96.64 149.888 225.152 149.888 361.984 0 136.704-53.248 265.216-149.888 361.856-96.768 96.768-225.28 150.016-361.984 150.016z m0-980.096c-119.936 0-239.872 45.696-331.136 136.96C-1.792 363.392-1.792 660.48 180.864 843.136s479.744 182.656 662.4 0 182.656-479.744 0-662.4c-91.392-91.264-211.328-136.96-331.264-136.96z m0 691.072c-14.08 0-27.392-5.504-37.376-15.36L304.64 549.248c-9.984-9.984-15.36-23.168-15.36-37.248s5.504-27.392 15.36-37.248L474.752 304.64c9.984-9.984 23.168-15.36 37.376-15.36s27.392 5.504 37.376 15.36L719.36 474.624c9.984 9.984 15.36 23.168 15.36 37.248s-5.504 27.392-15.36 37.248L549.376 719.36c-9.984 9.984-23.296 15.488-37.376 15.488z m0-402.176c-2.432 0-4.736 0.896-6.528 2.688L335.36 505.472c-2.304 2.304-2.688 5.12-2.688 6.528 0 1.408 0.384 4.224 2.688 6.528L505.472 688.64c3.584 3.584 9.6 3.584 13.184 0L688.64 518.528c2.304-2.304 2.688-5.12 2.688-6.528 0-1.408-0.384-4.224-2.688-6.528L518.528 335.36c-1.792-1.792-4.096-2.688-6.528-2.688z" fill="#E2D885" p-id="17519" data-spm-anchor-id="a313x.7781069.0.i133" class=""></path><path d="M512 961.536c-115.2 0-230.4-43.904-318.08-131.584-175.36-175.36-175.36-460.672 0-636.032C278.912 109.056 391.808 62.208 512 62.208s233.088 46.72 318.08 131.712c175.36 175.36 175.36 460.672 0 636.032C742.4 917.76 627.2 961.536 512 961.536zM224.64 224.64c-158.464 158.464-158.464 416.128 0 574.592 79.232 79.232 183.296 118.784 287.36 118.784 104.064 0 208.128-39.552 287.36-118.784 76.8-76.8 119.04-178.816 119.04-287.36s-42.24-210.56-119.04-287.36c-158.464-158.208-416.256-158.208-574.72 0.128zM512 734.848c-14.08 0-27.392-5.504-37.376-15.36L304.64 549.248c-9.984-9.984-15.36-23.168-15.36-37.248s5.504-27.392 15.36-37.248L474.752 304.64c20.608-20.608 54.016-20.608 74.624 0L719.36 474.624c9.984 9.984 15.36 23.168 15.36 37.248s-5.504 27.392-15.36 37.248L549.376 719.36c-9.984 9.984-23.296 15.488-37.376 15.488z m0-402.176c-1.408 0-4.224 0.384-6.528 2.688L335.36 505.472c-3.584 3.584-3.584 9.6 0 13.184L505.472 688.64c3.584 3.584 9.6 3.584 13.184 0L688.64 518.528c2.304-2.304 2.688-5.12 2.688-6.528 0-1.408-0.384-4.224-2.688-6.528L518.528 335.36c-2.304-2.304-5.12-2.688-6.528-2.688z" fill="#E2D885" p-id="17520"></path></svg>