<?xml version="1.0" standalone="no"?><!DOCTYPE svg PUBLIC "-//W3C//DTD SVG 1.1//EN" "http://www.w3.org/Graphics/SVG/1.1/DTD/svg11.dtd"><svg t="1618391102281" class="icon" viewBox="0 0 1024 1024" version="1.1" xmlns="http://www.w3.org/2000/svg" p-id="11426" data-spm-anchor-id="a313x.7781069.0.i77" xmlns:xlink="http://www.w3.org/1999/xlink" width="200" height="200"><defs><style type="text/css"></style></defs><path d="M950.681612 170.183281L67.431762 989.831975l-33.144264-33.528175L864.173803 82.523741z" fill="#e6e6e6" p-id="11427" data-spm-anchor-id="a313x.7781069.0.i78" class="selected"></path><path d="M1022.856766 144.717225c-0.25594-2.815343-4.095044-28.537339-56.306858-81.389004C914.082154 10.220616 883.241352 0.750826 881.961651 0.366916c-2.943313-0.895791-6.142566-0.12797-8.318059 2.047522-0.25594 0.25594-18.683639 18.299729-36.855398 36.215547l-0.12797 0.12797c-5.886626 5.758656-11.645282 11.517312-16.636117 16.636118l-0.25594 0.25594c-1.919552 1.919552-3.839104 3.839104-5.502716 5.630686-21.115072 21.498982-22.522743 29.945011-20.347251 43.637815-0.639851 2.431433-7.038357 17.275968-70.383572 71.023423-37.495249 31.864563-61.681604 28.025459-63.217245 27.769518-3.071283-0.895791-6.014596 0.12797-8.190089 2.431433-0.895791 0.895791-87.65954 93.802107-133.728787 139.231503-29.945011 29.5611-90.218943 92.778346-179.286155 187.988124l-2.943313 3.199253c-18.811609 20.219281-22.138833 28.025459-22.138833 33.784115-7.422268 9.085879-39.926681 45.173457-64.241006 72.047184-15.484386 17.147998-30.072981 33.400204-39.542771 44.021725-30.072981 33.784115-39.414801 38.263069-43.893755 40.438562-5.246775 2.559403-26.105907 23.418534-121.059745 126.43449l-9.469789 10.237611c-29.43313 31.992533-34.807876 37.751189-34.168026 65.136797 0.511881 24.058385 1.279701 32.632384 11.773253 36.983368 5.758656 2.431433 11.517312 0 15.740326-2.815343L54.890689 989.320094l-0.63985 0.511881c-4.478955 4.350984-5.246775 8.829939-5.118806 11.901222 0.12797 3.967074 1.919552 6.910387 3.327224 8.829939 3.071283 5.886626 12.924983 12.157163 39.670741 13.308894 1.535642 0.12797 3.071283 0.12797 4.478954 0.12797 28.409369 0 40.950442-12.541073 44.021726-16.380177 4.734895-4.350984 40.950442-37.367278 76.782079-70.511542 22.522743-20.731161 40.438562-37.495249 53.235574-49.780382 24.314325-23.034624 26.361847-25.594026 26.873728-28.92125 1.151731-2.175492 5.758656-7.550238 10.109641-12.029192 4.350984-3.839104 84.844197-76.782079 116.58079-109.286492 21.115072-21.626952 34.679906-29.17719 42.869994-33.528175 4.606925-2.559403 8.318059-4.606925 11.133401-7.934148 8.446029-9.085879 248.134086-233.41752 340.01664-319.285479 1.663612-1.535642 2.687373-3.711134 2.687373-6.014596 0.511881-31.096742 31.864563-66.288528 32.120503-66.544469 0.511881-0.511881 47.732859-51.827903 59.634082-62.065514 9.98167-8.573999 23.034624-9.59776 23.162593-9.597759 2.047522-0.12797 3.967074-1.023761 5.502716-2.431433l78.957571-77.93381c1.919552-2.047522 2.815343-4.478955 2.559403-7.038357z m-58.09844 37.879159c-2.431433-3.839104-5.630686-8.701969-9.341819-14.076715l1.791581-1.663612c0.767821-0.767821 0.895791-1.919552 0.127971-2.815343-0.767821-0.767821-1.919552-0.895791-2.815343-0.12797l-1.407672 1.279702c-3.455194-4.990835-7.294298-10.493551-11.389342-15.996267l1.407672-1.407671c0.767821-0.767821 0.767821-2.047522 0.12797-2.815343-0.767821-0.767821-2.047522-0.767821-2.815343-0.12797l-1.023761 1.023761c-3.199253-4.350984-6.654447-8.573999-10.10964-12.924984l1.407671-1.407671c0.767821-0.767821 0.767821-2.047522 0-2.815343-0.767821-0.767821-2.047522-0.767821-2.815343 0l-1.151731 1.151731c-3.711134-4.350984-7.422268-8.701969-11.261372-12.669043l1.407672-1.407671c0.767821-0.767821 0.767821-2.047522 0-2.815343-0.767821-0.767821-2.047522-0.767821-2.815343 0l-1.407671 1.407671-0.127971-0.12797c-4.223014-4.350984-8.957909-8.573999-14.076714-12.924983l0.767821-0.767821c0.767821-0.767821 0.767821-2.047522 0-2.815343-0.767821-0.767821-2.047522-0.767821-2.815343 0l-1.023761 1.023761c-4.223014-3.455194-8.573999-6.782417-12.924984-10.10964l0.511881-0.511881c0.767821-0.767821 0.767821-2.047522 0-2.815343s-2.047522-0.767821-2.815343 0l-0.895791 0.895791c-5.502716-3.967074-10.877461-7.806178-16.124236-11.389341l0.51188-0.511881c0.767821-0.767821 0.767821-2.047522-0.12797-2.815343-0.767821-0.767821-2.047522-0.767821-2.815343 0.12797l-1.023761 1.023761c-7.934148-5.374746-15.100476-9.8537-20.475221-13.052953l4.478955-4.478955c14.844535 9.59776 54.899187 36.215547 73.070945 54.643247 17.915818 18.171759 43.125934 53.491515 52.723694 67.440259l-4.734895 5.374746zM56.426331 966.541411l846.906332-837.052632c3.711134 3.967074 7.422268 8.190088 11.133401 12.541073l-854.84048 827.838782-3.199253-3.327223z m-7.678208-7.678208L886.440606 113.748453c4.990835 4.223014 9.8537 8.446029 13.948744 12.669043l0.12797 0.12797L53.610988 963.726068l-4.862865-4.862865z m-6.910387-7.038357L870.572309 101.33535c4.350984 3.199253 8.701969 6.526477 12.924984 9.98167L46.06075 956.04786l-4.223014-4.223014z m-6.270537-6.270537l-0.51188-0.51188L851.376789 87.898486c5.118805 3.455194 10.621521 7.166327 15.996267 11.133402L39.150363 949.009503l-3.583164-3.455194z m881.330298-800.453174c3.455194 4.223014 6.782417 8.573999 9.98167 12.797013l-860.343196 819.008844-4.223014-4.223015 854.58454-827.582842zM73.190418 983.561438l-3.839104-3.967074 859.959286-818.624933c4.095044 5.502716 7.934148 11.005431 11.261371 15.868297L73.318388 983.689408l-0.12797-0.12797zM48.364213 875.426677l9.469789-10.237611c29.30516-31.736593 106.59912-115.684999 116.32485-122.723356 8.190088-3.967074 19.57943-11.261372 48.88459-44.277665 9.46979-10.749491 24.058385-26.873728 39.542771-44.021726 67.56823-74.990497 67.6962-75.502378 68.464021-78.829601 0.511881-1.919552 0.25594-3.455194 0.12797-4.350984 0.25594-1.023761 2.559403-6.398507 17.531908-22.522744l2.943313-3.199253c88.811271-95.081808 148.957233-158.171083 178.774274-187.604213 41.462323-40.950442 115.557029-119.908013 131.297355-136.672101 10.877461 0.511881 37.495249-1.919552 72.942975-31.992533 23.162594-19.7074 41.462323-36.471488 54.131366-49.780381 21.115072-22.138833 23.162594-30.712832 22.138833-36.599458-1.407671-7.934148-1.919552-11.517312 15.612356-29.43313l0.767821-0.767821c4.734895 2.943313 12.285133 7.550238 20.859131 13.180924L31.344185 943.250847c-0.639851-0.12797-1.151731-0.25594-1.791582-0.25594-2.303462 0-4.478955 0.895791-6.014596 2.431432l-1.151731 1.151731-0.12797 0.12797c-0.639851 0.639851-1.535642 1.407671-2.431433 2.047523-0.895791-5.118805-1.023761-16.124237-1.151731-20.219281-0.511881-20.475221 0.639851-21.754922 29.689071-53.107605z m883.121879-660.06994c-6.014596 0.895791-18.93958 3.839104-29.945011 13.308894-12.669043 10.877461-59.122201 61.297693-61.041753 63.601156-1.407671 1.535642-33.656145 37.623219-36.471487 73.966736-61.425663 57.458589-333.490163 311.863211-338.864909 318.389688-0.767821 0.895791-3.455194 2.303462-6.270537 3.967074-8.957909 4.862865-23.930415 13.180924-46.837068 36.599457-31.992533 32.760354-115.173119 107.878821-115.940939 108.646642-0.12797 0.12797-0.25594 0.25594-0.383911 0.25594-3.455194 3.455194-11.773252 11.901222-14.332654 18.68364-9.59776 11.133401-97.897151 92.522405-152.796338 142.558726-0.511881 0.511881-0.767821 0.767821-1.151731 1.279702-0.895791 1.023761-9.98167 11.133401-34.551936 10.10964-18.043789-0.767821-24.058385-3.839104-25.466056-4.862865l-0.38391-0.767821 4.350984-4.223014 0.511881-0.38391c2.175492-1.407671 3.455194-3.711134 3.839104-6.270537 0.12797-1.023761 0-2.175492-0.25594-3.199253l867.381553-806.979651c3.967074 5.886626 7.294298 11.005431 9.59776 14.588595l-20.987102 20.731161z m50.676172-50.036321c-10.877461-15.612356-34.807876-48.88459-52.979634-67.184319-18.299729-18.555669-55.539037-43.637815-72.815005-54.899187 10.365581-10.237611 19.963341-19.7074 25.210116-24.698235 9.72573 4.478955 35.191786 18.555669 72.815005 56.690768 36.855398 37.367278 47.476919 59.378141 50.420231 67.56823l-22.650713 22.522743z" fill="#D2A76D" p-id="11428" data-spm-anchor-id="a313x.7781069.0.i75" class=""></path><path d="M711.761376 225.082467c1.791582-1.791582 2.047522-4.478955 0.38391-6.142566-1.535642-1.535642-4.350984-1.407671-6.142566 0.511881-1.791582 1.791582-2.047522 4.478955-0.383911 6.142566 1.535642 1.407671 4.350984 1.279701 6.142567-0.511881zM677.977261 260.018313c1.791582-1.791582 2.047522-4.478955 0.38391-6.142566-1.535642-1.535642-4.350984-1.407671-6.142566 0.511881-1.791582 1.791582-2.047522 4.478955-0.38391 6.142566 1.663612 1.407671 4.350984 1.279701 6.142566-0.511881zM649.823832 289.835354c1.791582-1.791582 2.047522-4.478955 0.38391-6.142566-1.535642-1.535642-4.350984-1.407671-6.142566 0.51188-1.791582 1.791582-2.047522 4.478955-0.38391 6.142567 1.663612 1.535642 4.350984 1.279701 6.142566-0.511881zM610.920912 330.273916c1.791582-1.791582 2.047522-4.478955 0.38391-6.142567-1.535642-1.535642-4.350984-1.407671-6.142566 0.511881-1.791582 1.791582-2.047522 4.478955-0.38391 6.142566 1.663612 1.535642 4.350984 1.279701 6.142566-0.51188zM542.840802 402.06516c1.791582-1.791582 2.047522-4.478955 0.38391-6.142567-1.535642-1.535642-4.350984-1.407671-6.142566 0.511881-1.791582 1.791582-2.047522 4.478955-0.383911 6.142566 1.535642 1.535642 4.350984 1.407671 6.142567-0.51188zM488.581466 458.883898c1.791582-1.791582 2.047522-4.478955 0.38391-6.142566-1.535642-1.535642-4.350984-1.407671-6.142566 0.51188-1.791582 1.791582-2.047522 4.478955-0.38391 6.142567 1.663612 1.535642 4.350984 1.279701 6.142566-0.511881zM410.391715 541.168693c1.791582-1.791582 2.047522-4.478955 0.383911-6.142566-1.535642-1.535642-4.350984-1.407671-6.142567 0.51188-1.791582 1.791582-2.047522 4.478955-0.38391 6.142566 1.663612 1.407671 4.350984 1.279701 6.142566-0.51188zM328.746771 627.036651c1.791582-1.791582 2.047522-4.478955 0.383911-6.142566-1.535642-1.535642-4.350984-1.407671-6.142567 0.51188s-2.047522 4.478955-0.38391 6.142567c1.535642 1.535642 4.223014 1.407671 6.142566-0.511881zM275.895107 682.191778c1.791582-1.791582 2.047522-4.478955 0.38391-6.142566-1.535642-1.535642-4.350984-1.407671-6.142566 0.51188-1.791582 1.791582-2.047522 4.478955-0.38391 6.142567 1.535642 1.407671 4.223014 1.279701 6.142566-0.511881zM208.838758 752.575351c1.791582-1.791582 2.047522-4.478955 0.38391-6.142567-1.535642-1.535642-4.350984-1.407671-6.142566 0.511881-1.791582 1.791582-2.047522 4.478955-0.38391 6.142566 1.663612 1.535642 4.350984 1.279701 6.142566-0.51188zM168.912077 794.549554c1.791582-1.791582 2.047522-4.478955 0.38391-6.142567-1.535642-1.535642-4.350984-1.407671-6.142566 0.511881-1.791582 1.791582-2.047522 4.478955-0.383911 6.142566 1.535642 1.407671 4.350984 1.279701 6.142567-0.51188zM141.270528 823.214863c1.791582-1.791582 2.047522-4.478955 0.383911-6.142566-1.535642-1.535642-4.350984-1.407671-6.142567 0.51188-1.791582 1.791582-2.047522 4.478955-0.38391 6.142567 1.663612 1.535642 4.350984 1.279701 6.142566-0.511881zM108.254234 858.406649c1.791582-1.791582 2.047522-4.478955 0.383911-6.142566-1.535642-1.535642-4.350984-1.407671-6.142567 0.511881-1.791582 1.791582-2.047522 4.478955-0.38391 6.142566 1.535642 1.535642 4.223014 1.279701 6.142566-0.511881z" fill="#D2A76D" p-id="11429" data-spm-anchor-id="a313x.7781069.0.i80" class=""></path></svg>