<?xml version="1.0" standalone="no"?><!DOCTYPE svg PUBLIC "-//W3C//DTD SVG 1.1//EN" "http://www.w3.org/Graphics/SVG/1.1/DTD/svg11.dtd"><svg t="1618390607492" class="icon" viewBox="0 0 1024 1024" version="1.1" xmlns="http://www.w3.org/2000/svg" p-id="8365" data-spm-anchor-id="a313x.7781069.0.i37" xmlns:xlink="http://www.w3.org/1999/xlink" width="200" height="200"><defs><style type="text/css"></style></defs><path d="M272.277826 246.118176v622.075203l510.01724-576.407745-0.639601-34.410493s-27.630731 19.955528-57.308182 61.657464c-23.793129 33.515053-58.331543 83.275953-95.428357 108.348282C537.58401 488.910431 451.237976 327.987008 383.69619 272.853467c-77.90331-63.576265-111.418364-26.73529-111.418364-26.735291z" fill="#e6e6e6" p-id="8366" data-spm-anchor-id="a313x.7781069.0.i36" class=""></path><path d="M819.26396 216.952405c-9.466084-15.734166-25.32817-26.22361-44.772017-29.421612-38.376015-6.396002-62.680824 11.640725-81.485072 30.061212-4.733042 4.733042-10.233604 11.384884-16.373767 19.060087-16.373766 20.083448-38.759775 47.714179-63.960025 56.412742-8.826483 3.070081-19.827608 2.558401-40.934416-21.234728-18.932167-21.362648-41.829856-56.924422-73.426108-105.917801-6.523923-10.105684-13.431605-20.723048-20.723048-31.980013C409.40812 28.654091 319.224485 28.398251 293.256715 30.828732h-0.255841v-0.38376c0-16.757527-13.687445-30.444972-30.444971-30.444972h-24.17689c-16.757527 0-30.444972 13.687445-30.444972 30.444972v5.500562c0 9.466084 4.349282 17.908807 11.129045 23.537289V926.524922c-11.001124 2.430481-17.013367 5.628482-19.955528 10.489444-1.15128 1.790881-1.918801 3.837601-1.918801 6.140162v58.587383c0 12.152405 14.199126 16.245846 29.677452 18.676328 13.943285 2.302561 32.235853 3.581761 51.6797 3.581761s37.736415-1.2792 51.6797-3.581761c15.350406-2.558401 29.677452-6.523923 29.677452-18.676328v-56.284822c46.690818-63.064585 160.923423-217.975765 262.747782-360.35078C815.554279 315.067083 816.705559 295.879076 817.217239 287.692192c0.12792-2.814241-0.76752-5.500562-2.558401-7.547283 0.25584-4.221362-0.76752-8.314803-4.349281-11.256964-7.803123-6.268082-19.955528 0.25584-28.654092 6.779763-0.51168 0.38376-0.89544 0.76752-1.2792 1.15128l-4.349282 4.988882v-45.795378c12.664085 0.51168 26.22361 14.838726 30.444972 20.339288 2.430481 3.198001 6.268082 4.733042 10.233604 4.093442 3.965522-0.6396 7.163523-3.325921 8.442723-7.163523 3.581761-10.617364 1.407121-24.176889-5.884322-36.329294z m-528.309806-167.703186c-0.25584 0.38376-0.51168 0.89544-0.895441 1.151281 0.38376-0.25584 0.6396-0.76752 0.895441-1.151281z m469.338663 250.339538v-52.19138c1.407121-1.2792 2.686321-2.430481 3.837601-3.453842v51.29594l-3.837601 4.349282z m-4.860962 5.628482l-5.628482 6.396003v-53.726421c2.046721-2.046721 3.837601-3.965522 5.628482-5.628482v52.9589z m-10.489444 11.896565l-7.419363 8.442723v-54.366021c1.15128-1.2792 2.302561-2.558401 3.325921-3.709682 1.407121-1.535041 2.686321-2.942161 3.965522-4.349281v53.982261z m-12.408245 14.071205l-9.210243 10.361524v-54.110181l9.210243-10.745284v54.493941z m-14.071205 15.990007l-9.210244 10.361524v-53.086821c2.942161-3.581761 6.012242-7.419363 9.210244-11.129044v53.854341z m-14.071206 15.990006l-10.873204 12.408245V324.021487c0-0.12792 0.12792-0.12792 0.12792-0.255841 3.325921-4.093442 6.907683-8.570643 10.745284-13.303685v52.703061zM688.529669 381.201749l-12.664085 14.454966v-50.14466c3.070081-3.453841 7.291443-8.698563 12.664085-15.350406v51.0401z m-17.652967 20.083448l-14.454966 16.501686v-52.57514c5.756402-5.116802 10.617364-10.233604 14.454966-14.327046v50.4005zM651.432854 423.415365l-16.245846 18.548408V381.585509c5.884322-3.709681 11.384884-7.803123 16.245846-12.024485v53.854341z m-21.234728 24.04897l-18.036727 20.595128v-75.60075c6.396002-2.046721 12.408245-4.733042 18.036727-7.931043v62.936665z m-23.025609 26.22361l-19.827608 22.641849v-100.161399h1.535041c6.396002 0 12.408245-0.89544 18.292567-2.302561V473.687945zM582.356027 501.830356l-21.618488 24.56065V390.667833c6.779763 2.558401 13.687445 4.349282 20.467208 5.116802 0.38376 0 0.76752 0 1.15128 0.12792V501.830356z m-26.47945 30.317052L532.467208 558.754778V375.317427c7.803123 5.372642 15.606246 9.849844 23.409369 13.303685v143.526296z m-28.398251 32.235852l-25.20025 28.654092V350.245097c8.186883 7.931043 16.629606 15.222486 25.20025 21.490568v192.647595z m-30.189132 34.282574l-26.99113 30.700812V315.450843c8.698563 10.489444 17.652967 20.595128 26.99113 29.933292v253.281699z m-31.980012 36.329294L436.527171 667.614741V270.806746c8.826483 12.664085 18.420487 25.83985 28.782011 38.631855v325.556527zM431.666209 673.243223l-30.572892 34.794254V224.243848c9.466084 10.745284 19.699688 23.793129 30.572892 39.399375V673.243223z m-35.561774 40.422736l-32.363773 36.840974V189.705434c9.466084 6.779763 20.339288 15.990006 32.363773 29.037851v494.922674z m-37.224735 42.341536L324.725047 794.76727V172.947908c6.779763 0.6396 18.420487 3.325921 34.154653 13.431605v569.627982z m-39.143535 44.516178l-37.864335 43.109057V185.867833c6.779763-4.349282 21.362648-12.152405 37.864335-13.047845v627.703685zM260.509182 66.390506v877.915303c-0.6396 0-1.15128 0-1.790881-0.12792-1.02336 0-2.046721-0.12792-2.942161-0.12792-0.76752 0-1.535041-0.12792-2.302561-0.12792-0.89544 0-1.790881-0.12792-2.686321-0.12792-0.76752 0-1.535041-0.12792-2.174641-0.12792-0.76752-0.12792-1.662961-0.12792-2.430481-0.25584-0.76752 0-1.407121-0.12792-2.046721-0.255841-0.76752-0.12792-1.535041-0.12792-2.302561-0.25584-0.51168 0-0.89544-0.12792-1.2792-0.12792V66.390506h19.955528z m-31.212492-35.817614c0-4.988882 4.093442-9.082324 9.082323-9.082324H262.555903c4.988882 0 9.082324 4.093442 9.082323 9.082324v5.500562c0 4.988882-4.093442 9.082324-9.082323 9.082324h-24.30481c-4.988882 0-9.082324-4.093442-9.082323-9.082324v-5.500562zM338.412492 996.880949c-7.675203 2.430481-28.526171 5.884322-59.866583 5.884323-31.340412 0-52.19138-3.325921-59.866584-5.884323v-35.817614c3.070081 0.6396 6.268082 1.2792 9.594004 1.790881 0.25584 0 0.6396 0.12792 0.895441 0.12792 0.6396 0.12792 1.407121 0.25584 2.04672 0.25584 1.15128 0.12792 2.430481 0.38376 3.709682 0.51168 0.25584 0 0.51168 0 0.6396 0.127921 10.489444 1.2792 22.513929 2.046721 35.561774 2.30256H278.545909c6.779763 0 13.559525-0.12792 20.083448-0.51168h1.2792c0.76752 0 1.535041-0.12792 2.302561-0.12792 0.51168 0 1.02336 0 1.407121-0.12792 0.76752 0 1.662961-0.12792 2.430481-0.12792h0.76752c2.174641-0.12792 4.349282-0.25584 6.396002-0.51168 0.51168 0 0.89544-0.12792 1.407121-0.12792 1.662961-0.12792 3.453841-0.38376 5.116802-0.51168h0.51168l0.89544-0.12792c0.25584 0 0.51168 0 0.767521-0.12792 0.76752-0.12792 1.662961-0.25584 2.430481-0.255841 0.25584 0 0.51168-0.12792 0.76752-0.12792h0.38376c0.51168-0.12792 0.89544-0.12792 1.407121-0.25584 0.25584 0 0.51168-0.12792 0.76752-0.12792 0.89544-0.12792 1.662961-0.25584 2.430481-0.38376 0.38376-0.12792 0.76752-0.12792 1.2792-0.25584l0.767521-0.12792h0.12792c0.51168-0.12792 1.15128-0.25584 1.66296-0.25584 0.38376 0 0.6396-0.12792 1.023361-0.25584 1.02336-0.25584 2.174641-0.38376 3.198001-0.639601 0.12792 0 0.25584 0 0.38376-0.12792v35.817614z m264.666584-421.240724C500.359275 719.166521 385.359151 874.973142 340.587133 935.479325c-0.12792 0.12792-0.12792 0.25584-0.25584 0.383761-0.51168 0.6396-0.89544 1.2792-1.407121 1.9188l-0.76752 1.151281v0.12792l-0.38376 0.12792c-1.15128 0.38376-2.558401 0.76752-3.965522 1.02336-0.12792 0-0.25584 0-0.38376 0.12792-0.38376 0.12792-0.76752 0.12792-1.2792 0.25584-0.38376 0.12792-0.89544 0.12792-1.279201 0.255841-0.51168 0.12792-0.89544 0.12792-1.40712 0.25584-0.51168 0.12792-1.02336 0.12792-1.535041 0.25584-0.51168 0.12792-1.02336 0.12792-1.535041 0.25584-0.51168 0.12792-1.15128 0.12792-1.66296 0.25584s-1.15128 0.12792-1.662961 0.25584c-0.6396 0.12792-1.2792 0.12792-1.918801 0.25584s-1.2792 0.12792-1.79088 0.25584c-0.6396 0.12792-1.407121 0.12792-2.046721 0.25584s-1.2792 0.12792-2.046721 0.25584c-0.76752 0.12792-1.535041 0.12792-2.174641 0.255841s-1.407121 0.12792-2.046721 0.25584c-0.76752 0.12792-1.662961 0.12792-2.43048 0.25584-0.76752 0-1.407121 0.12792-2.174641 0.12792-0.89544 0-1.790881 0.12792-2.686321 0.12792-0.76752 0-1.535041 0.12792-2.302561 0.12792-0.89544 0-1.918801 0.12792-2.942161 0.12792-0.76752 0-1.535041 0.12792-2.302561 0.12792-1.02336 0-2.174641 0.12792-3.198002 0.12792-0.76752 0-1.535041 0-2.30256 0.12792h-2.302561c34.026733-41.957776 144.421736-178.57639 254.049219-314.427483 80.077951-99.265959 136.234853-168.982386 175.506308-217.847845-27.886571 40.166896-64.983385 93.253716-114.872204 163.098064zM792.144909 288.331793c1.2792-0.89544 2.558401-1.662961 3.837602-2.430481v0.38376c-0.12792 0.51168-0.25584 1.15128-0.51168 2.046721-16.117926 22.130169-332.33629 413.821362-513.599001 637.809369v-57.691943l37.864335-43.109057v22.258089c0 1.407121 1.15128 2.430481 2.430481 2.430481 1.407121 0 2.430481-1.15128 2.430481-2.430481v-27.886571l34.154653-38.759775v21.234728c0 1.407121 1.15128 2.430481 2.430481 2.430481 1.407121 0 2.430481-1.15128 2.430481-2.430481v-26.86321l32.363773-36.840975v18.420488c0 1.407121 1.15128 2.430481 2.430481 2.430481s2.430481-1.15128 2.430481-2.430481v-24.04897l30.572892-34.794253v16.757526c0 1.407121 1.15128 2.430481 2.43048 2.430481s2.430481-1.15128 2.430481-2.430481v-22.258088l28.782012-32.747533v14.966646c0 1.407121 1.15128 2.430481 2.430481 2.430481s2.430481-1.15128 2.430481-2.430481v-20.595128l26.99113-30.700812v13.431605c0 1.407121 1.15128 2.430481 2.430481 2.430481s2.430481-1.15128 2.430481-2.430481v-19.060088l25.20025-28.654091v11.896565c0 1.407121 1.15128 2.430481 2.430481 2.430481 1.407121 0 2.430481-1.15128 2.430481-2.430481V583.699188l23.409369-26.60737v8.186883c0 1.407121 1.15128 2.430481 2.430481 2.430481 1.407121 0 2.430481-1.15128 2.430481-2.430481v-13.815366l21.618488-24.560649v9.210243c0 1.407121 1.15128 2.430481 2.430481 2.430481s2.430481-1.15128 2.430481-2.430481v-14.838725l19.827608-22.641849v7.931043c0 1.407121 1.15128 2.430481 2.430481 2.430481 1.407121 0 2.430481-1.15128 2.430481-2.430481v-13.559525l18.036727-20.595128v6.779762c0 1.407121 1.15128 2.430481 2.430481 2.430481s2.430481-1.15128 2.430481-2.430481v-12.408245l16.245846-18.548407v5.500562c0 1.407121 1.15128 2.430481 2.430481 2.430481s2.430481-1.15128 2.430481-2.430481v-11.129044l14.454966-16.501687v3.453842c0 1.407121 1.15128 2.430481 2.430481 2.430481 1.407121 0 2.430481-1.15128 2.430481-2.430481v-9.082324l12.664084-14.454965v2.686321c0 1.407121 1.15128 2.430481 2.430481 2.430481s2.430481-1.15128 2.430481-2.430481v-8.314804l10.873205-12.408244v3.070081c0 1.407121 1.15128 2.430481 2.430481 2.430481 1.407121 0 2.430481-1.15128 2.430481-2.430481v-8.698564l9.210243-10.361524v1.023361c0 1.407121 1.15128 2.430481 2.430481 2.430481s2.430481-1.15128 2.430481-2.430481v-6.651843l9.210244-10.361524v0.12792c0 1.407121 1.15128 2.430481 2.430481 2.430481s2.430481-1.15128 2.43048-2.430481v-5.756402l7.419363-8.442723v1.02336c0 1.407121 1.15128 2.430481 2.430481 2.430481s2.430481-1.15128 2.430481-2.430481v-6.651843l5.628482-6.396002v0.51168c0 1.407121 1.15128 2.430481 2.430481 2.430481s2.430481-1.15128 2.430481-2.430481v-6.140162l3.965522-4.477202c0.38376 0.89544 1.2792 1.535041 2.302561 1.535041 1.407121 0 2.430481-1.15128 2.430481-2.430481v-4.477202l2.558401-2.942161c0.51168 0.51168 1.15128 0.89544 1.918801 0.89544 1.407121 0 2.430481-1.15128 2.43048-2.430481v-3.453841l17.780887-18.164647z m-23.025609 1.40712v-49.760899c0.76752-0.51168 1.407121-1.02336 2.046721-1.407121v48.865459l-2.046721 2.302561z m6.907683-75.216989v-2.046721c0-1.407121-1.15128-2.430481-2.430481-2.430481s-2.430481 1.15128-2.430481 2.430481v2.558401c-0.6396 0.12792-1.2792 0.38376-2.046721 0.6396v-3.198001c0-1.407121-1.15128-2.430481-2.430481-2.430481s-2.430481 1.15128-2.43048 2.430481v5.372642c-1.2792 0.6396-2.430481 1.407121-3.837602 2.302561V216.568645c0-1.407121-1.15128-2.430481-2.430481-2.430481s-2.430481 1.15128-2.430481 2.430481v7.035602c-1.790881 1.407121-3.581761 2.814241-5.628482 4.477202v-7.675203c0-1.407121-1.15128-2.430481-2.430481-2.430481s-2.430481 1.15128-2.430481 2.430481v12.280325c-2.302561 2.174641-4.860962 4.605122-7.419363 7.163523v-12.024485c0-1.407121-1.15128-2.430481-2.430481-2.430481s-2.430481 1.15128-2.430481 2.430481v17.141287c-2.942161 3.070081-6.012242 6.396002-9.210243 9.977764v-13.175766c0-1.407121-1.15128-2.430481-2.430481-2.430481s-2.430481 1.15128-2.430481 2.430481v18.804248c-2.942161 3.325921-6.012242 6.907683-9.210244 10.617364v-17.013367c0-1.407121-1.15128-2.430481-2.430481-2.430481-1.407121 0-2.430481 1.15128-2.430481 2.430481v22.897689c-3.453841 4.221362-7.163523 8.570643-10.873204 13.175765v-15.478326c0-1.407121-1.15128-2.430481-2.430481-2.430481s-2.430481 1.15128-2.430481 2.430481v21.618489c-3.709681 4.605122-7.547283 9.338164-11.512804 14.327045-0.38376 0.51168-0.76752 1.02336-1.151281 1.407121v-17.652967c0-1.407121-1.15128-2.430481-2.430481-2.430481-1.407121 0-2.430481 1.15128-2.430481 2.430481v23.793129c-5.628482 7.035603-10.233604 12.664085-12.536165 15.094566l-1.40712 1.535041-0.51168 0.51168v-19.827608c0-1.407121-1.15128-2.430481-2.430481-2.430481s-2.430481 1.15128-2.430481 2.430481V340.651093c-4.477202 4.605122-9.977764 9.977764-16.245847 14.966646v-19.315928c0-1.407121-1.15128-2.430481-2.430481-2.430481s-2.430481 1.15128-2.430481 2.430481v23.025609c-5.500562 4.093442-11.640725 7.803123-18.036727 10.617365v-22.641849c0-1.407121-1.15128-2.430481-2.430481-2.430481-1.407121 0-2.430481 1.15128-2.43048 2.430481v24.560649c-6.268082 2.174641-12.919925 3.453841-19.827608 3.198002v-25.20025c0-1.407121-1.15128-2.430481-2.430481-2.430481s-2.430481 1.15128-2.430481 2.430481v24.816489c-6.779763-0.89544-13.943285-3.198001-21.618489-7.035602v-31.340413c0-1.407121-1.15128-2.430481-2.430481-2.430481-1.407121 0-2.430481 1.15128-2.43048 2.430481v28.782012c-7.419363-4.221362-15.350406-9.721924-23.40937-16.373767v-40.422736c0-1.407121-1.15128-2.430481-2.430481-2.430481-1.407121 0-2.430481 1.15128-2.430481 2.430481V344.488695c-8.186883-7.035603-16.629606-15.350406-25.200249-24.68857V270.295066c0-1.407121-1.15128-2.430481-2.430481-2.430481s-2.430481 1.15128-2.430481 2.430481v43.748657c-8.826483-9.977764-17.908807-20.978888-26.991131-33.131293v-60.122424c0-1.407121-1.15128-2.430481-2.430481-2.430481s-2.430481 1.15128-2.430481 2.430481v53.470581c-4.733042-6.523923-9.594004-13.303685-14.327045-20.339288-4.860962-7.163523-9.721924-13.943285-14.454966-20.083448v-59.866583c0-1.407121-1.15128-2.430481-2.430481-2.430481s-2.430481 1.15128-2.430481 2.430481v53.470581c-10.745284-13.687445-20.978888-25.07233-30.572892-34.410494v-55.645221c0-1.407121-1.15128-2.430481-2.430481-2.430481s-2.430481 1.15128-2.430481 2.430481V188.426234c-11.768645-10.873204-22.641849-18.676327-32.363772-24.17689V114.744285c0-1.407121-1.15128-2.430481-2.430481-2.430481-1.407121 0-2.430481 1.15128-2.430481 2.430481V161.563023c-13.943285-7.163523-25.45609-9.594004-34.154654-9.977764V101.95228c0-1.407121-1.15128-2.430481-2.430481-2.430481-1.407121 0-2.430481 1.15128-2.43048 2.430481v49.505059c-14.838726 0.51168-28.014491 5.244722-37.864335 9.977764V59.482823c2.174641-1.790881 4.093442-3.965522 5.756402-6.268082 13.943285-2.558401 103.48732-13.559525 172.052467 92.230356 7.291443 11.256964 14.071205 21.874329 20.595128 31.980012 32.107933 49.888819 55.389382 85.962274 75.34491 108.476203 15.606246 17.652967 36.968894 36.713054 63.960025 27.24697 30.956652-10.745284 55.517302-41.062336 73.426108-63.064584 5.884322-7.163523 10.873204-13.431605 14.838726-17.269207 14.582886-14.327046 32.747533-29.293691 63.064585-24.17689 9.849844 1.662961 16.757527 5.500562 21.746408 9.721924-6.779763-2.302561-12.408245-3.709681-18.292567-3.837601z" fill="#D2A76D" p-id="8367" data-spm-anchor-id="a313x.7781069.0.i34" class=""></path></svg>