<?xml version="1.0" standalone="no"?><!DOCTYPE svg PUBLIC "-//W3C//DTD SVG 1.1//EN" "http://www.w3.org/Graphics/SVG/1.1/DTD/svg11.dtd"><svg t="1618390097399" class="icon" viewBox="0 0 1024 1024" version="1.1" xmlns="http://www.w3.org/2000/svg" p-id="2843" xmlns:xlink="http://www.w3.org/1999/xlink" width="200" height="200"><defs><style type="text/css"></style></defs><path d="M313.216 876.032H738.56v-108.288H322.048zM429.184 416.512h-126.848l-3.456 61.952h130.304zM425.6 585.856h-126.72l-3.584 62.08h130.304zM739.968 416.512H590.976v61.952h153.216zM597.248 647.936h153.216l-4.224-62.08H597.248zM582.912 338.176h-117.12L450.816 733.44h144.896z" fill="#2c2c2c" p-id="2844"></path><path d="M790.528 223.232v-0.384-0.64c0-0.256 0-0.384-0.128-0.64 0-0.128 0-0.384-0.128-0.512 0-0.256-0.128-0.384-0.128-0.64 0-0.128-0.128-0.256-0.128-0.384-0.128-0.256-0.128-0.512-0.256-0.768 0-0.128 0-0.128-0.128-0.256-0.128-0.384-0.256-0.64-0.512-0.896-1.536-2.944-4.352-5.12-7.808-5.76h-0.128c-0.256 0-0.64-0.128-0.896-0.128H621.696l-19.2-201.088c-0.512-6.016-5.632-10.496-11.52-10.496H431.872h-0.128c-4.48 0.512-8.32 3.456-9.728 7.68 0 0.128-0.128 0.256-0.128 0.384 0 0.128-0.128 0.256-0.128 0.512s-0.128 0.384-0.128 0.64V10.24c0 0.256-0.128 0.512-0.128 0.768l-19.2 201.088H243.712c-0.256 0-0.64 0.128-0.896 0.128h-0.256c-0.256 0.128-0.64 0.128-0.896 0.256-0.128 0-0.128 0-0.256 0.128-0.256 0.128-0.512 0.128-0.768 0.256-0.128 0-0.128 0.128-0.256 0.128-0.256 0.128-0.512 0.256-0.64 0.384-0.128 0-0.256 0.128-0.384 0.256-0.256 0.128-0.384 0.256-0.512 0.384-0.128 0.128-0.256 0.256-0.384 0.256l-0.384 0.384c-0.128 0.128-0.256 0.256-0.512 0.384-0.128 0.128-0.256 0.256-0.384 0.256-0.128 0.128-0.384 0.256-0.512 0.512-0.128 0.128-0.128 0.256-0.256 0.256-0.128 0.128-0.256 0.384-0.512 0.512-0.128 0.128-0.128 0.256-0.256 0.256-0.128 0.256-0.256 0.384-0.384 0.64-0.128 0.128-0.128 0.256-0.256 0.384-0.128 0.256-0.256 0.384-0.384 0.64 0 0.128-0.128 0.256-0.128 0.384-0.128 0.256-0.128 0.384-0.256 0.64 0 0.128-0.128 0.256-0.128 0.384-0.128 0.256-0.128 0.384-0.256 0.64 0 0.128-0.128 0.256-0.128 0.512s-0.128 0.384-0.128 0.64c0 0.128 0 0.384-0.128 0.512v1.024l-29.824 786.432c0 0.896 0 1.664 0.128 2.56 0.256 6.272 5.248 11.136 11.52 11.136 6.016 0 10.88-4.608 11.52-10.368 3.072-4.224 24.064-17.408 86.4-29.696 57.6-11.392 128.256-17.664 198.784-17.664s141.184 6.272 198.784 17.664c62.336 12.288 83.328 25.472 86.4 29.696 0.64 5.888 5.504 10.368 11.52 10.368 6.272 0 11.392-4.992 11.52-11.136 0.128-0.768 0.256-1.664 0.128-2.56l-29.824-786.432zM443.52 23.808h137.088l18.048 188.416h-38.784l-5.376-143.744c0.256-1.024 0.512-2.176 0.512-3.328 0-6.4-5.12-11.52-11.52-11.52h-61.568c-4.608 0-8.576 2.688-10.496 6.656-0.768 1.536-1.28 3.2-1.408 4.992l-5.504 146.944h-38.784l17.792-188.416z m93.056 188.288h-49.152l5.12-135.552h39.04l4.992 135.552zM789.888 981.76c-15.872-6.912-38.656-13.696-65.792-19.456-60.544-12.8-135.936-19.84-212.096-19.84s-151.552 7.04-212.096 19.84c-27.136 5.76-49.92 12.416-65.792 19.456-2.048 0.896-4.224 1.92-6.4 2.944l28.416-749.44H767.872l28.416 749.44c-2.176-1.024-4.352-2.048-6.4-2.944z" fill="#2c2c2c" p-id="2845"></path><path d="M754.688 395.648c0-0.896-0.128-1.792-0.256-2.688l-3.328-79.616c-0.256-5.248-3.84-9.472-8.704-10.752-1.152-0.384-2.56-0.64-3.84-0.64H288.896c-1.024 0-2.048 0.128-3.072 0.384-0.256 0-0.64-0.128-0.896-0.128-6.4-0.256-11.776 4.736-12.032 11.008l-17.536 426.112c-0.256 6.272 4.48 11.52 10.752 12.032 1.408 0.64 2.944 0.896 4.48 0.896h11.648l-9.856 119.04V873.6c0 0.256 0 0.384 0.128 0.64 0 0.128 0 0.384 0.128 0.512 0 0.256 0.128 0.384 0.128 0.512 0 0.128 0.128 0.384 0.128 0.512 0 0.128 0.128 0.384 0.128 0.512 0.128 0.128 0.128 0.384 0.256 0.512 0.128 0.128 0.128 0.256 0.256 0.384 0.128 0.128 0.128 0.384 0.256 0.512 0.128 0.128 0.128 0.256 0.256 0.384 0.128 0.128 0.256 0.384 0.384 0.512 0.128 0.128 0.256 0.256 0.256 0.384 0.128 0.128 0.256 0.384 0.384 0.512l0.384 0.384 0.384 0.384 0.384 0.384 0.384 0.384c0.128 0.128 0.384 0.256 0.512 0.384 0.128 0.128 0.256 0.256 0.384 0.256 0.128 0.128 0.384 0.256 0.512 0.256 0.128 0.128 0.256 0.128 0.384 0.256 0.128 0.128 0.384 0.128 0.512 0.256 0.128 0.128 0.384 0.128 0.512 0.256 0.128 0.128 0.384 0.128 0.512 0.128 0.256 0.128 0.384 0.128 0.64 0.256 0.128 0 0.256 0.128 0.512 0.128s0.384 0.128 0.64 0.128c0.128 0 0.256 0 0.512 0.128 0.256 0 0.512 0.128 0.64 0.128H740.992c0.256 0 0.512 0 0.64-0.128 0.128 0 0.256 0 0.512-0.128 0.256 0 0.384-0.128 0.64-0.128 0.128 0 0.256-0.128 0.512-0.128s0.384-0.128 0.64-0.256c0.128 0 0.384-0.128 0.512-0.128 0.128-0.128 0.384-0.128 0.512-0.256 0.128-0.128 0.384-0.128 0.512-0.256 0.128-0.128 0.256-0.128 0.384-0.256 0.128-0.128 0.384-0.256 0.512-0.256 0.128-0.128 0.256-0.256 0.384-0.256 0.128-0.128 0.384-0.256 0.512-0.384l0.384-0.384 0.384-0.384 0.384-0.384 0.384-0.384c0.128-0.128 0.256-0.256 0.384-0.512 0.128-0.128 0.256-0.256 0.256-0.384 0.128-0.128 0.256-0.384 0.384-0.512 0.128-0.128 0.128-0.256 0.256-0.384 0.128-0.128 0.128-0.384 0.256-0.512 0.128-0.128 0.128-0.256 0.256-0.384 0.128-0.128 0.128-0.384 0.256-0.512 0-0.128 0.128-0.384 0.128-0.512 0-0.128 0.128-0.384 0.128-0.512 0-0.128 0.128-0.384 0.128-0.512 0-0.128 0-0.384 0.128-0.512 0-0.256 0.128-0.384 0.128-0.64v-0.512-0.64-0.128-0.512-0.512l-9.856-119.04h10.752c1.536 0 3.072-0.256 4.48-0.896H757.632c6.4-0.256 11.392-5.632 11.008-12.032l-14.08-342.144c0.128-0.384 0.128-0.896 0.128-1.536z m-19.456 94.848l2.56 62.08H608.128l-2.048-62.08h129.152z m-129.92-23.168l-2.048-60.16h128.64l2.432 60.16H605.312z m133.504 108.288l2.688 64.256H611.072l-2.176-64.256h129.92zM728.448 325.12l2.432 58.88H602.496l-1.92-58.88h127.872z m-278.4 0h127.36l13.568 404.096H436.48L450.048 325.12zM285.184 575.616H418.56l-2.176 64.256H282.624l2.56-64.256z m1.024-23.04l2.56-62.08h132.608l-2.048 62.08h-133.12z m3.456-85.248l2.432-60.16h131.968l-2.048 60.16H289.664z m3.456-83.2l2.432-58.88h131.456l-1.92 58.88H293.12z m-14.208 345.216L281.6 663.04h134.016l-2.176 66.304H278.912z m17.536 131.584l8.96-108.416h412.928l8.96 108.416H296.448z m317.568-131.584L611.84 663.04h130.56l2.688 66.304H614.016z" fill="#2c2c2c" p-id="2846"></path><path d="M319.232 355.328m-17.024 0a17.024 17.024 0 1 0 34.048 0 17.024 17.024 0 1 0-34.048 0Z" fill="#2c2c2c" p-id="2847"></path><path d="M359.424 355.328m-17.024 0a17.024 17.024 0 1 0 34.048 0 17.024 17.024 0 1 0-34.048 0Z" fill="#2c2c2c" p-id="2848"></path><path d="M399.616 355.328m-17.024 0a17.024 17.024 0 1 0 34.048 0 17.024 17.024 0 1 0-34.048 0Z" fill="#2c2c2c" p-id="2849"></path><path d="M624.896 355.328m-17.024 0a17.024 17.024 0 1 0 34.048 0 17.024 17.024 0 1 0-34.048 0Z" fill="#2c2c2c" p-id="2850"></path><path d="M665.088 355.328m-17.024 0a17.024 17.024 0 1 0 34.048 0 17.024 17.024 0 1 0-34.048 0Z" fill="#2c2c2c" p-id="2851"></path><path d="M705.28 355.328m-17.024 0a17.024 17.024 0 1 0 34.048 0 17.024 17.024 0 1 0-34.048 0Z" fill="#2c2c2c" p-id="2852"></path><path d="M313.856 520.576m-17.024 0a17.024 17.024 0 1 0 34.048 0 17.024 17.024 0 1 0-34.048 0Z" fill="#2c2c2c" p-id="2853"></path><path d="M354.048 520.576m-17.024 0a17.024 17.024 0 1 0 34.048 0 17.024 17.024 0 1 0-34.048 0Z" fill="#2c2c2c" p-id="2854"></path><path d="M394.24 520.576m-17.024 0a17.024 17.024 0 1 0 34.048 0 17.024 17.024 0 1 0-34.048 0Z" fill="#2c2c2c" p-id="2855"></path><path d="M630.144 520.576m-17.024 0a17.024 17.024 0 1 0 34.048 0 17.024 17.024 0 1 0-34.048 0Z" fill="#2c2c2c" p-id="2856"></path><path d="M670.336 520.576m-17.024 0a17.024 17.024 0 1 0 34.048 0 17.024 17.024 0 1 0-34.048 0Z" fill="#2c2c2c" p-id="2857"></path><path d="M710.528 520.576m-17.024 0a17.024 17.024 0 1 0 34.048 0 17.024 17.024 0 1 0-34.048 0Z" fill="#2c2c2c" p-id="2858"></path><path d="M308.48 695.424m-17.024 0a17.024 17.024 0 1 0 34.048 0 17.024 17.024 0 1 0-34.048 0Z" fill="#2c2c2c" p-id="2859"></path><path d="M348.672 695.424m-17.024 0a17.024 17.024 0 1 0 34.048 0 17.024 17.024 0 1 0-34.048 0Z" fill="#2c2c2c" p-id="2860"></path><path d="M388.992 695.424m-17.024 0a17.024 17.024 0 1 0 34.048 0 17.024 17.024 0 1 0-34.048 0Z" fill="#2c2c2c" p-id="2861"></path><path d="M635.52 695.424m-17.024 0a17.024 17.024 0 1 0 34.048 0 17.024 17.024 0 1 0-34.048 0Z" fill="#2c2c2c" p-id="2862"></path><path d="M675.712 695.424m-17.024 0a17.024 17.024 0 1 0 34.048 0 17.024 17.024 0 1 0-34.048 0Z" fill="#2c2c2c" p-id="2863"></path><path d="M715.904 695.424m-17.024 0a17.024 17.024 0 1 0 34.048 0 17.024 17.024 0 1 0-34.048 0Z" fill="#2c2c2c" p-id="2864"></path></svg>