<?xml version="1.0" standalone="no"?><!DOCTYPE svg PUBLIC "-//W3C//DTD SVG 1.1//EN" "http://www.w3.org/Graphics/SVG/1.1/DTD/svg11.dtd"><svg t="1618390070731" class="icon" viewBox="0 0 1024 1024" version="1.1" xmlns="http://www.w3.org/2000/svg" p-id="2401" xmlns:xlink="http://www.w3.org/1999/xlink" width="200" height="200"><defs><style type="text/css"></style></defs><path d="M696.166687 716.480599c8.55995-91.732002-20.441672-186.402495-87.260386-258.71491-3.066251-3.321772-6.260262-6.643543-9.582034-9.965315-3.066251-3.066251-6.132502-6.004741-9.326513-8.943231l-0.255521-0.255521c-1.277604-1.149844-2.555209-2.427449-3.832813-3.577293l-3.449532-3.06625c-1.277604-1.149844-2.682969-2.299688-3.960574-3.321772-131.721023-111.407112-329.110917-105.14685-453.294074 19.164067-80.872364 80.872364-111.790393 192.918278-92.754086 297.554086C44.205115 810.001248 75.123144 871.965066 125.20524 921.919401c130.95446 130.95446 343.164566 130.95446 474.119027 0 57.619963-57.364442 89.815596-130.443419 96.84242-205.438802zM176.948222 834.275733c1.022084 1.022084 2.682969 1.022084 3.705053 0l7.410106-7.410106c1.022084 1.149844 2.171928 2.171928 3.194011 3.321772l-7.410106 7.410106c-1.022084 1.022084-1.022084 2.682969 0 3.705053 1.022084 1.022084 2.682969 1.022084 3.705053 0l7.410106-7.410106c1.149844 1.149844 2.171928 2.171928 3.321772 3.194011l-7.410106 7.410106c-1.022084 1.022084-1.022084 2.682969 0 3.705053 1.022084 1.022084 2.682969 1.022084 3.705053 0l7.537867-7.537867c18.908546 17.886463 38.966937 33.600998 59.280848 46.632564-30.790268-0.638802-61.836057-14.053649-86.110543-38.328134-24.146725-24.146725-37.689333-55.320274-38.328135-86.110543 13.287087 20.697193 29.384903 41.011104 47.526888 60.175171l-7.537867 7.537867c-1.022084 1.022084-1.022084 2.682969 0 3.705053z" fill="#55AEFF" p-id="2402"></path><path d="M952.070867 74.739863m-41.905427 0a41.905427 41.905427 0 1 0 83.810854 0 41.905427 41.905427 0 1 0-83.810854 0Z" fill="#55AEFF" p-id="2403"></path><path d="M643.273862 435.918653L783.171553 296.020961l91.093201 91.0932c5.74922 5.74922 15.075733 5.74922 20.824953 0s5.74922-15.075733 0-20.824953l-91.0932-91.093201 66.435433-66.435433 91.0932 91.0932c5.74922 5.74922 15.075733 5.74922 20.824954 0s5.74922-15.075733 0-20.824953l-91.093201-91.0932 53.91491-53.91491c10.220836 1.660886 20.697193 0.894323 30.534747-2.299688 9.837555-3.066251 19.164067-8.55995 26.957455-16.353337 25.935371-25.935371 25.935371-68.096319 0-94.031691-25.935371-25.935371-68.096319-25.935371-94.031691 0C892.917779 37.05053 886.657517 58.642046 889.979289 78.955958l-28.107299 28.107298-91.0932-91.0932c-5.74922-5.74922-15.075733-5.74922-20.824953 0s-5.74922 15.075733 0 20.824953l91.0932 91.093201-66.435434 66.435433L683.518403 103.230443c-5.74922-5.74922-15.075733-5.74922-20.824953 0s-5.74922 15.075733 0 20.824953l91.0932 91.0932L588.209108 380.726138c-141.814099-114.345602-350.702433-105.657891-482.423456 26.063132-141.047536 141.047536-141.047536 370.505303 0 511.425078 141.047536 141.047536 370.505303 141.047536 511.425078 0 131.721023-131.593263 140.408734-340.481597 26.063132-482.295695z m10.604117-47.271367l21.335995-21.335995 2.427448 2.427449-21.335995 21.335995-2.427448-2.427449z m-3.705053 8.55995L628.58141 418.798752c-0.766563-0.894323-1.533125-1.660886-2.299688-2.555209L647.745477 394.779788l2.427449 2.427448z m31.173549-36.028446l23.380163-23.380162 2.427448 2.427448-23.380162 23.380162-2.427449-2.427448z m29.512664-29.512664l24.785527-24.785527 2.427449 2.427448-24.785527 24.785528-2.427449-2.427449z m45.61048-45.61048l8.30443-8.30443 2.427448 2.427449-8.304429 8.304429-2.427449-2.427448z m29.129383-29.129383l5.110418-5.110418 2.427448 2.427449-5.110418 5.110418-2.427448-2.427449z m25.935371-25.935371l40.500062-40.500062 2.427449 2.427448-40.500062 40.500063-2.427449-2.427449z m47.399127-75.123144l5.110418-5.110418 16.353337 16.353337-5.110418 5.110418-16.353337-16.353337zM176.948222 834.275733c1.022084 1.022084 2.682969 1.022084 3.705053 0l7.410106-7.410106c1.022084 1.149844 2.171928 2.171928 3.194011 3.321772l-7.410106 7.410106c-1.022084 1.022084-1.022084 2.682969 0 3.705053 1.022084 1.022084 2.682969 1.022084 3.705053 0l7.410106-7.410106c1.149844 1.149844 2.171928 2.171928 3.321772 3.194011l-7.410106 7.410106c-1.022084 1.022084-1.022084 2.682969 0 3.705053 1.022084 1.022084 2.682969 1.022084 3.705053 0l7.537867-7.537867c18.908546 17.886463 38.966937 33.600998 59.280848 46.632564-30.790268-0.638802-61.836057-14.053649-86.110543-38.328134-24.146725-24.146725-37.689333-55.320274-38.328135-86.110543 13.287087 20.697193 29.384903 41.011104 47.526888 60.175171l-7.537867 7.537867c-1.022084 1.022084-1.022084 2.682969 0 3.705053z m483.44554-494.049657l23.380162-23.380162 3.321772 3.321772-23.252402 23.507922-3.449532-3.449532z m-2.68297 9.454273l-21.335995 21.335995-3.321771-3.321771 21.335995-21.335995 3.321771 3.321771z m32.195633-38.966937l24.785528-24.785527 3.321771 3.321772-24.785527 24.785527-3.321772-3.321772z m45.610481-45.61048l8.304429-8.304429 3.321772 3.321771-8.30443 8.30443-3.321771-3.321772z m29.129382-29.129382l5.110418-5.110418 3.321772 3.321771-5.110418 5.110418-3.321772-3.321771z m25.935371-25.935372l40.500063-40.500062 3.321771 3.321772-40.500062 40.500062-3.321772-3.321772z m61.325016-61.197255l5.110418-5.110418 3.321772 3.321772-5.110418 5.110418-3.321772-3.321772zM626.792764 373.827074l3.321771 3.321772-21.335995 21.463755c-1.149844-1.149844-2.299688-2.171928-3.577292-3.194011l21.591516-21.591516zM397.334997 631.264379l6.132501-6.132501 3.321772 3.321771-6.132501 6.132502-3.321772-3.321772z m-2.81073 9.326513L214.126513 821.116407c-1.149844-1.022084-2.171928-2.171928-3.321772-3.194011L391.202495 637.524641l3.321772 3.066251z m15.075733-21.591516l7.665627-7.665627 3.321772 3.321772-7.665627 7.665627-3.321772-3.321772z m13.670368-13.670368l7.665627-7.665627 3.321772 3.321772-7.665627 7.665627-3.321772-3.321772z m13.798129-13.798128l6.132501-6.132502 3.321772 3.321772-6.132502 6.132501-3.321771-3.321771z m12.265003-12.137243l9.454273-9.454273 3.321772 3.321771-9.454274 9.454274-3.321771-3.321772z m15.459014-15.586775l9.454273-9.454273 3.321772 3.321772-9.454273 9.454273-3.321772-3.321772z m15.586775-15.586775l9.454273-9.454273 3.321772 3.321772-9.454273 9.454273-3.321772-3.321772z m15.586775-15.586774l10.348596-10.348597 3.321772 3.321772-10.348597 10.348596-3.321771-3.321771z m16.481098-16.481098l11.6262-11.626201 3.321772 3.321771-11.626201 11.626201-3.321771-3.321771z m17.758702-17.758703l15.714535-15.714535 3.321772 3.321772-15.714535 15.714535-3.321772-3.321772z m21.847037-21.847037l14.30917-14.30917 3.321772 3.321772-14.309171 14.30917-3.321771-3.321772z m222.941984-230.224329l-3.321772-3.321772 5.110418-5.110418 3.321772 3.321772-5.110418 5.110418zM754.169931 267.019339l-8.304429 8.304429-3.321771-3.321772 8.304429-8.304429 3.321771 3.321772z m-29.001622 29.129382l-24.785527 24.785527-3.321771-3.321771 24.785527-24.785528 3.321771 3.321772zM694.12252 327.06675L670.742358 350.574672l-3.321772-3.321771 23.380163-23.380162 3.321771 3.194011z m-29.512663 29.640424l-21.335995 21.335995-3.321772-3.321772 21.335995-21.335995 3.321772 3.321772z m-27.468497 27.468497L615.805365 405.511666c-1.149844-1.149844-2.171928-2.171928-3.321772-3.194012l21.335995-21.335995 3.321772 3.194012zM599.707548 421.609482l-7.282345 7.282346-3.321772-3.321772 7.282346-7.282345 3.321771 3.321771z m-13.414847 13.414847l-17.503181 17.503182-3.321772-3.321772 17.503182-17.503181 3.321771 3.321771zM390.435933 624.365315l6.132501-6.132502 3.321772 3.321772-6.132502 6.132502-3.321771-3.321772z m-2.81073 9.326513L207.099688 814.217342c-1.149844-1.149844-2.171928-2.171928-3.194011-3.321771l180.397754-180.397754 3.321772 3.194011z m14.947972-21.591516l7.665627-7.665627 3.321772 3.321772-7.665627 7.665627-3.321772-3.321772z m13.798129-13.670368l7.665627-7.665627 3.321771 3.321772-7.665627 7.665627-3.321771-3.321772z m13.798128-13.798129l6.132502-6.132501 3.321772 3.321771-6.132502 6.132502-3.321772-3.321772z m12.137243-12.265003l9.454273-9.454273 3.321772 3.321772-9.454273 9.454273-3.321772-3.321772z m15.586775-15.586775l9.454273-9.454273 3.321772 3.321772-9.454274 9.454273-3.321771-3.321772z m15.586775-15.459014l9.454273-9.454273 3.321771 3.321772-9.454273 9.454273-3.321771-3.321772z m15.586774-15.586775l10.348597-10.348596 3.321771 3.321772-10.348596 10.348596-3.321772-3.321772z m16.481098-16.608858l11.626201-11.626201 3.321772 3.321772-11.626201 11.626201-3.321772-3.321772z m17.758703-17.630942l15.714535-15.714535 3.321772 3.321771-15.714536 15.714536-3.321771-3.321772z m21.847037-21.847037l14.30917-14.30917 3.321772 3.321771-14.309171 14.309171-3.321771-3.321772z m48.037928-27.724017l-17.503181 17.503181-3.321772-3.321772 17.503182-17.503181 0.255521 0.255521 3.06625 3.066251z m168.004991-167.877231l-8.304429 8.30443-3.321772-3.321772 8.304429-8.304429 3.321772 3.321771z m17.503182-24.018964l5.110418-5.110418 3.321771 3.321772-5.110418 5.110418-3.321771-3.321772zM732.067374 303.047785l-24.785527 24.785528-3.321772-3.321772 24.785527-24.785527 3.321772 3.321771z m-30.918029 31.04579l-23.380162 23.380162-3.321772-3.321772 23.380162-23.380162 3.321772 3.321772z m-29.640424 29.512663l-21.335995 21.335995-3.321772-3.321771L668.187149 360.284467l3.321772 3.321771z m-27.468497 27.468497l-21.335995 21.335995c-1.022084-1.149844-2.171928-2.171928-3.194011-3.321772l21.335995-21.335995 3.194011 3.321772z m-37.433811 37.433811l-7.282346 7.282346-3.321772-3.321772 7.282346-7.282345 3.321772 3.321771z m201.222707-201.222707l-10.220836-10.220836 40.500062-40.500062 10.220836 10.220836-40.500062 40.500062zM877.714286 122.905552l20.569432-20.569432c2.81073 4.727137 6.132502 9.070992 10.220836 13.159326 4.088334 4.088334 8.43219 7.410106 13.159326 10.220836l-20.569432 20.569432L877.714286 122.905552z m46.760324-85.599501c17.1199-17.1199 45.099439-17.1199 62.347099 0 17.1199 17.1199 17.1199 45.099439 0 62.347099-1.022084 1.022084-2.044167 1.916407-3.06625 2.81073-17.247661 14.30917-43.055271 13.414847-59.280849-2.81073-9.965315-9.965315-14.18141-23.763444-12.520524-36.795009 1.149844-9.454273 5.365939-18.397505 12.520524-25.55209zM121.627948 422.759326c128.399251-128.399251 335.115658-132.104304 467.986525-11.115159l3.066251 3.066251-7.282346 7.282346-21.080474-21.080475c-1.660886-1.660886-4.471616-1.660886-6.132502 0-1.660886 1.660886-1.660886 4.471616 0 6.132502l21.080474 21.080474-17.503181 17.503182-21.080474-21.080474c-1.660886-1.660886-4.471616-1.660886-6.132502 0-1.660886 1.660886-1.660886 4.471616 0 6.132501l21.080474 21.080474-14.30917 14.309171-21.080474-21.080475c-1.660886-1.660886-4.471616-1.660886-6.132502 0-1.660886 1.660886-1.660886 4.471616 0 6.132502l21.080475 21.080474-15.714536 15.714535-24.274485-24.274485c-1.660886-1.660886-4.471616-1.660886-6.132502 0-1.660886 1.660886-1.660886 4.471616 0 6.132502l24.274486 24.274485-11.626201 11.626201-30.662508-30.662508c-1.660886-1.660886-4.471616-1.660886-6.132502 0-1.660886 1.660886-1.660886 4.471616 0 6.132502l30.662508 30.662507-10.348596 10.348597-30.662508-30.662508c-1.660886-1.660886-4.471616-1.660886-6.132501 0-1.660886 1.660886-1.660886 4.471616 0 6.132501l30.662507 30.662508-9.454273 9.454274-30.662508-30.662508c-1.660886-1.660886-4.471616-1.660886-6.132501 0-1.660886 1.660886-1.660886 4.471616 0 6.132501l30.662508 30.662508-9.454274 9.454273-30.662507-30.662507c-1.660886-1.660886-4.471616-1.660886-6.132502 0-1.660886 1.660886-1.660886 4.471616 0 6.132501l30.662508 30.662508-9.454273 9.454273-30.662508-30.662508c-1.660886-1.660886-4.471616-1.660886-6.132502 0-1.660886 1.660886-1.660886 4.471616 0 6.132502l30.662508 30.662508-6.132502 6.132501-30.662507-30.662508c-1.660886-1.660886-4.471616-1.660886-6.132502 0-1.660886 1.660886-1.660886 4.471616 0 6.132502l30.662508 30.662508-7.665627 7.665627-30.662508-30.662508c-1.660886-1.660886-4.471616-1.660886-6.132501 0-1.660886 1.660886-1.660886 4.471616 0 6.132501l30.662507 30.662508-7.665627 7.665627-30.662507-30.662508c-1.660886-1.660886-4.471616-1.660886-6.132502 0-1.660886 1.660886-1.660886 4.471616 0 6.132502l30.662508 30.662508-6.132502 6.132501-30.662508-30.662507c-1.660886-1.660886-4.471616-1.660886-6.132501 0-1.660886 1.660886-1.660886 4.471616 0 6.132501l30.662508 30.662508-179.886713 180.014473c-25.168808-26.574173-45.866001-55.320274-60.302932-83.683094-2.044167-4.088334-6.515783-6.515783-11.115159-6.132502-4.599376 0.383281-8.43219 3.705053-9.709794 8.048908-13.542608 47.654648 1.660886 101.058515 39.989021 139.38665s91.604242 53.531628 139.38665 39.989021c4.471616-1.277604 7.665627-5.110418 8.176668-9.709794 0.383281-4.599376-1.916407-8.943231-6.132501-11.115159-28.107299-14.18141-56.470119-34.623082-82.788771-59.408609l180.269994-180.269994 32.195633 32.195633c1.660886 1.660886 4.471616 1.660886 6.132501 0 1.660886-1.660886 1.660886-4.471616 0-6.132501l-32.195633-32.195633 6.132502-6.132502 32.195633 32.195633c1.660886 1.660886 4.471616 1.660886 6.132501 0 1.660886-1.660886 1.660886-4.471616 0-6.132501L416.499064 626.026201l7.665627-7.665627 32.195633 32.195633c1.660886 1.660886 4.471616 1.660886 6.132502 0 1.660886-1.660886 1.660886-4.471616 0-6.132501l-32.195633-32.195634 7.665627-7.665627 32.195633 32.195634c1.660886 1.660886 4.471616 1.660886 6.132501 0 1.660886-1.660886 1.660886-4.471616 0-6.132502l-32.195633-32.195633 6.132502-6.132502 32.195633 32.195633c1.660886 1.660886 4.471616 1.660886 6.132502 0 1.660886-1.660886 1.660886-4.471616 0-6.132501l-32.195634-32.195633 9.454274-9.454274 32.195633 32.195634c1.660886 1.660886 4.471616 1.660886 6.132501 0 1.660886-1.660886 1.660886-4.471616 0-6.132502l-32.195633-32.195633 9.454273-9.454273 32.195634 32.195633c1.660886 1.660886 4.471616 1.660886 6.132501 0 1.660886-1.660886 1.660886-4.471616 0-6.132502l-32.195633-32.195633 9.454273-9.454273 32.195633 32.195633c1.660886 1.660886 4.471616 1.660886 6.132502 0 1.660886-1.660886 1.660886-4.471616 0-6.132501l-32.195633-32.195634 10.348596-10.348596 32.195633 32.195633c1.660886 1.660886 4.471616 1.660886 6.132502 0 1.660886-1.660886 1.660886-4.471616 0-6.132501l-32.195633-32.195634 11.626201-11.6262 25.80761 25.80761c1.660886 1.660886 4.471616 1.660886 6.132502 0 1.660886-1.660886 1.660886-4.471616 0-6.132501l-25.807611-25.807611 15.714535-15.714535 22.6136 22.613599c1.660886 1.660886 4.471616 1.660886 6.132501 0 1.660886-1.660886 1.660886-4.471616 0-6.132501l-22.613599-22.6136 14.30917-14.30917 22.6136 22.613599c1.660886 1.660886 4.471616 1.660886 6.132501 0 1.660886-1.660886 1.660886-4.471616 0-6.132501l-22.613599-22.6136 17.503181-17.503181 22.6136 22.613599c1.660886 1.660886 4.471616 1.660886 6.132501 0 1.660886-1.660886 1.660886-4.471616 0-6.132501l-22.99688-22.358079 7.282345-7.282345 2.171928 2.171927c71.673612 78.700437 99.65315 183.336245 83.810854 282.222832-10.859638 68.096319-42.54423 133.509669-94.926013 185.891454-132.232065 132.232065-347.380661 132.232065-479.612726 0-44.843918-44.843918-74.612102-99.397629-88.921273-156.889832-28.107299-112.045914 1.533125-235.590268 88.921273-322.850655z" fill="#002C5B" p-id="2404"></path></svg>