<?xml version="1.0" standalone="no"?><!DOCTYPE svg PUBLIC "-//W3C//DTD SVG 1.1//EN" "http://www.w3.org/Graphics/SVG/1.1/DTD/svg11.dtd"><svg t="1618390969296" class="icon" viewBox="0 0 1024 1024" version="1.1" xmlns="http://www.w3.org/2000/svg" p-id="10708" xmlns:xlink="http://www.w3.org/1999/xlink" width="200" height="200"><defs><style type="text/css"></style></defs><path d="M147.328 360.064h729.216v91.648H147.328z" fill="#2c2c2c" p-id="10709"></path><path d="M932.864 178.176V30.592c0-16.256-13.184-29.44-29.44-29.44h-21.76c-16.256 0-29.44 13.184-29.44 29.44v146.944H171.776V30.592c0-16.256-13.184-29.44-29.44-29.44h-21.76c-16.256 0-29.44 13.184-29.44 29.44v147.584c-21.248 3.584-37.504 22.144-37.504 44.416 0 24.832 20.224 45.056 45.056 45.056h25.216c7.296 0 13.184 5.888 13.184 13.184V464.896c0 77.312 40.448 145.28 101.248 184.064l-18.56 350.208c-0.384 6.4 2.048 12.672 6.4 16.896 3.84 3.84 8.96 5.888 14.336 5.888h1.024l52.224-0.128h0.64c11.264-0.768 21.12-10.24 22.912-22.016l48-316.8H468.48v310.4c0 16.256 13.184 29.44 29.44 29.44h28.288c16.256 0 29.44-13.184 29.44-29.44V683.008h103.168l48 316.8c1.792 11.904 11.648 21.376 22.912 22.144h0.64l52.224 0.128h1.024c5.376 0 10.496-2.048 14.336-5.888 4.352-4.352 6.656-10.496 6.4-16.896l-18.56-350.208c60.8-38.784 101.248-106.752 101.248-184.064V280.96c0-7.296 5.888-13.184 13.184-13.184H925.44c24.832 0 45.056-20.224 45.056-45.056-0.128-22.4-16.384-40.96-37.632-44.544zM872.832 30.592c0-4.864 3.968-8.704 8.704-8.704h21.76c4.864 0 8.704 3.968 8.704 8.704v146.944h-39.296V30.592z m-760.96 0c0-4.864 3.968-8.704 8.704-8.704h21.76c4.864 0 8.704 3.968 8.704 8.704v146.944H111.872V30.592z m754.432 407.296H157.696v-107.904h708.48v107.904z m-569.6 558.976c-0.384 2.304-2.56 4.224-3.584 4.48l-51.968 0.128h-0.512c-0.128-0.128-0.256-0.512-0.128-1.024L258.56 660.48c26.112 12.928 55.168 20.864 85.888 22.4l-47.744 313.984z m238.208-3.456c0 4.864-3.968 8.704-8.704 8.704H497.92c-4.864 0-8.704-3.968-8.704-8.704V683.008H535.04v310.4z m248.704 6.912c0 0.512-0.128 0.896-0.128 1.024h-0.512l-51.968-0.128c-1.152-0.256-3.328-2.048-3.584-4.48L679.68 682.752c30.72-1.536 59.776-9.344 85.888-22.4l18.048 339.968z m-12.544-366.592c-0.896 0.384-1.792 0.896-2.56 1.536-29.312 17.152-63.36 27.136-99.712 27.136h-313.6c-36.352 0-70.4-9.856-99.712-27.136-0.768-0.64-1.664-1.152-2.56-1.536-56.96-34.688-95.104-97.28-95.104-168.832v-6.4h708.48v6.4c0 71.552-38.144 134.272-95.232 168.832z m95.232-353.92v29.44H157.696v-28.416-1.024c-0.128-4.352-1.024-8.448-2.688-12.16h713.856c-1.536 3.712-2.432 7.808-2.56 12.16z m59.008-32.896H98.688c-13.44 0-24.32-10.88-24.32-24.32s10.88-24.32 24.32-24.32h826.496c13.44 0 24.32 10.88 24.32 24.32s-10.752 24.32-24.192 24.32z" fill="#2c2c2c" p-id="10710"></path></svg>