<?xml version="1.0" standalone="no"?><!DOCTYPE svg PUBLIC "-//W3C//DTD SVG 1.1//EN" "http://www.w3.org/Graphics/SVG/1.1/DTD/svg11.dtd"><svg t="1618391988040" class="icon" viewBox="0 0 1024 1024" version="1.1" xmlns="http://www.w3.org/2000/svg" p-id="20908" xmlns:xlink="http://www.w3.org/1999/xlink" width="200" height="200"><defs><style type="text/css"></style></defs><path d="M237.113861 775.101233c0-25.626657-20.84884-46.426379-46.550199-46.426379L66.502112 728.674854c-25.665543 0-46.51029 20.804838-46.51029 46.426379 0 25.622564 20.844747 46.427402 46.51029 46.427402L190.563662 821.528636C216.27423 821.529659 237.113861 800.726867 237.113861 775.101233z" p-id="20909" fill="#2c2c2c"></path><path d="M19.991822 511.960091c0 25.66145 20.844747 46.426379 46.51029 46.426379L190.563662 558.38647c25.710568 0 46.550199-20.760836 46.550199-46.426379 0-25.671683-20.84884-46.472428-46.550199-46.472428L66.502112 465.487663C40.836569 465.487663 19.991822 486.288408 19.991822 511.960091z" p-id="20910" fill="#2c2c2c"></path><path d="M66.491879 295.238165l124.062574 0c25.710568 0 46.555315-20.799722 46.555315-46.426379 0-25.666566-20.849864-46.427402-46.555315-46.427402L66.491879 202.384383c-25.660426 0-46.50415 20.760836-46.50415 46.427402C19.986705 274.433326 40.831452 295.238165 66.491879 295.238165z" p-id="20911" fill="#2c2c2c"></path><path d="M927.656233 63.058175l-47.874357 0-16.370853 0L655.795499 63.058175l0-0.005117L159.557484 63.053058c-25.705452 0-46.505173 20.785396-46.505173 46.427402l0 46.427402 77.506235 0c51.417043 0 93.060489 41.605583 93.060489 92.898807 0 51.288107-41.643446 92.892667-93.060489 92.892667l-77.506235 0 0 77.395718 77.506235 0c51.417043 0 93.060489 41.561581 93.060489 92.854804 0 51.293223-41.643446 92.853781-93.060489 92.853781l-77.506235 0 0 77.393671 77.506235 0c51.417043 0 93.060489 41.606607 93.060489 92.900853 0 51.288107-41.643446 92.892667-93.060489 92.892667l-77.506235 0 0 46.387493c0 25.664519 20.804838 46.472428 46.505173 46.472428l457.759655 0 38.479383 0 207.615525 0 0 0.005117 64.24521 0 0-0.010233c35.418674 0 64.184835-20.803815 64.184835-46.468334L991.842091 109.485577C991.841068 83.841523 963.075931 63.058175 927.656233 63.058175zM865.625458 364.445386c-9.015328 45.385677-21.797445 71.320349-38.311561 77.804017l-2.25332 0c-12.043291 0-28.557406-4.306072-49.580209-12.967336-4.50664 0-7.535627-1.064238-9.015328-3.241834-39.086204-6.483668-78.877465-9.725502-119.443369-9.725502l0 25.934672c-1.51347 25.934672-2.25332 51.869345-2.25332 77.804017 0 15.144932 0.73985 28.112268 2.25332 38.902008 34.544771 0 69.863161 0 105.921401 0 4.507664-2.127454 10.494005-4.305049 18.029632-6.483668 2.993171 2.178619 12.007475 7.598049 27.043936 16.20917 0 4.356214 0 7.598049 0 9.725502 0 10.839883-2.25332 19.451004-6.760984 25.934672-1.51347 12.967336-2.25332 67.014276-2.25332 162.090679 0 8.661264 0 19.451004 0 32.41834 1.478677 10.839883 2.25332 18.387789 2.25332 22.692838-1.51347 8.611122-5.281283 16.20917-11.268648 22.692838l-9.014304 0c-12.043291 0-21.057595-2.177596-27.043936-6.483668-39.087227-4.356214-78.137615-5.420453-117.190049-3.241834-61.623499-2.178619-106.697067-1.11438-135.219681 3.241834-7.534604 2.127454-14.296611 4.306072-20.282952 6.483668-16.549931-2.177596-24.789593-8.662287-24.789593-19.451004-1.514493-2.178619-0.774643-5.369288 2.25332-9.725502 1.478677-6.483668 2.25332-11.852956 2.25332-16.20917 0-12.967336 0-25.934672 0-38.902008l0-58.351989c0-32.419364 0-64.836681 0-97.255021-4.50664-4.305049-6.760984-11.852956-6.760984-22.692838 0-15.09479 8.239662-24.820292 24.790616-29.176506 4.507664 2.178619 10.492982 4.356214 18.029632 6.483668 12.007475 0 33.80492 0 65.355497 0 12.007475 0 23.276123 0 33.80492 0-1.514493-12.967336-1.514493-33.481556 0-61.594847 1.477654-25.934672 2.25332-46.448892 2.25332-61.593823L588.426135 416.314731c-43.594891 0-76.624145 1.11438-99.160417 3.241834-25.564235 2.177596-46.587038 4.356214-63.102177 6.483668-13.521968 4.356214-24.049742 6.483668-31.550577 6.483668-7.535627 0-11.268648-5.369288-11.268648-16.20917 0-12.967336 0-26.997887 0-42.143842 0-8.611122 2.993171-17.272385 9.014304-25.934672 5.986341-2.127454 14.261818-3.241834 24.790616-3.241834 7.500834 0 13.521968 1.11438 18.029632 3.241834 61.588707-4.306072 112.682385-6.483668 153.24829-6.483668l0-58.351989c0-4.306072-0.775666-12.967336-2.25332-25.934672 0-15.09479 0-26.998911 0-35.660174-1.514493-6.483668 1.477654-10.788717 9.014304-12.967336 1.478677 0 5.247514 1.11438 11.268648 3.241834 7.500834 0 13.521968 0 18.028609 0 1.478677 0 3.733021 0 6.760984 0 1.478677 2.177596 2.993171 3.241834 4.50664 3.241834 10.494005 0 15.776312 7.598049 15.776312 22.692838 0 4.356214-0.775666 8.662287-2.254344 12.967336-1.51347 6.483668-1.51347 10.839883 0 12.967336-4.50664 25.934672-6.021134 52.982702-4.50664 81.044828 19.507286 0 48.805566 1.11438 87.892793 3.241834 37.536918 2.177596 66.835198 2.177596 87.892793 0 16.515139 0 31.550577-2.127454 45.072545-6.483668L865.626481 364.445386z" p-id="20912" fill="#2c2c2c" data-spm-anchor-id="a313x.7781069.0.i151" class="selected"></path><path d="M570.397526 627.031896c-28.557406 0-49.579185 0-63.102177 0l0 113.464191c0 10.839883 0 22.692838 0 35.660174 34.544771 0 69.089541 0 103.668081 0 12.007475 0 52.573379 0 121.697713 0L732.661144 627.031896c-12.043291 2.178619-29.29828 2.178619-51.833529 0-24.050766-2.127454-41.340547-3.241834-51.833529-3.241834C616.949772 623.790062 597.441463 624.904443 570.397526 627.031896z" p-id="20913" fill="#2c2c2c"></path></svg>