<?xml version="1.0" standalone="no"?><!DOCTYPE svg PUBLIC "-//W3C//DTD SVG 1.1//EN" "http://www.w3.org/Graphics/SVG/1.1/DTD/svg11.dtd"><svg t="1618390678426" class="icon" viewBox="0 0 1024 1024" version="1.1" xmlns="http://www.w3.org/2000/svg" p-id="8746" xmlns:xlink="http://www.w3.org/1999/xlink" width="200" height="200"><defs><style type="text/css"></style></defs><path d="M735.232-464.46933322s-76.928 54.912-85.76 229.12V-181.33333322c0 54.528-44.288 98.816-98.816 98.816s-114.688-44.16-114.688-98.816v-118.528c0-8.704-2.688-20.608-2.688-20.608-2.176-1.28-4.096-18.688-6.528-19.328l-244.224-97.792c-6.912-2.944-10.24-10.88-7.296-17.792l12.672-34.944v-0.128c10.24-19.712 30.848-33.152 54.656-33.152 6.528 0 12.8 1.024 18.688 2.944l9.856 4.096 196.736 74.24c29.824 10.496 61.952 16.128 95.488 16.128 40.832 0 79.744-8.448 114.944-23.808l49.152-30.336 98.688-70.912s38.656-28.672 41.344-24.704c1.792 2.432-121.216 102.4-132.224 111.488z" fill="#2c2c2c" p-id="8747"></path><path d="M933.504 94.464c-6.656-9.984-18.176-6.016-49.28 7.808-16.64 7.424-32.512 15.232-33.28 15.488-0.256 0.128-0.512 0.256-0.896 0.512l-167.168 93.184c-40.064 17.28-82.688 26.112-126.592 26.112-36.224 0-71.808-6.016-105.6-17.92-0.128 0-0.256-0.128-0.384-0.128-0.64-0.256-1.28-0.512-2.048-0.768V115.968h1.792c9.088 0 16.896-4.352 21.504-11.904 6.272-10.112 6.016-25.472-0.384-38.144L464.384 52.48c-0.512-1.024-1.152-2.048-1.92-3.072 1.792-3.328 2.944-7.168 2.944-11.136v-11.136c0-12.672-10.368-23.04-23.04-23.04H431.36c-12.672 0-23.04 10.368-23.04 23.04v11.136c0 4.096 1.024 7.808 2.944 11.136l-1.92 3.072-6.784 13.44c-6.4 12.672-6.656 28.032-0.384 38.144 4.608 7.552 12.416 11.904 21.504 11.904h1.792v94.336c-2.816-1.024-5.888-2.176-9.216-3.456-0.256-0.128-0.512-0.128-0.768-0.256L231.424 127.872s-0.128 0-0.128-0.128l-11.264-4.736c-0.384-0.128-0.896-0.384-1.28-0.384-7.936-2.432-16.128-3.712-24.576-3.712-37.12 0-63.36 18.944-77.696 56.192-6.784 17.536-25.344 53.504-25.472 53.76l-0.384 0.768c-2.816 6.656-2.816 14.08-0.128 20.736 2.688 6.656 7.936 11.904 14.592 14.72 0.128 0 0.256 0.128 0.384 0.128l297.984 112.128c0.384 0.128 0.896 0.256 1.28 0.384 1.664 0.384 3.2 1.024 4.608 1.92 0.128 0 0.128 0.128 0.256 0.128 4.736 3.072 7.552 8.192 7.552 13.696v135.936c0 17.92 3.84 35.072 10.752 50.56-0.64 15.616-4.736 97.536-16.768 163.456-6.4 34.944-16.64 76.288-24.832 109.44-14.592 59.136-17.152 71.424-14.208 78.848 1.408 3.584 5.888 14.592 17.152 16.256 0.896 0.128 1.792 0.256 2.688 0.256 11.136 0 20.608-9.984 27.904-18.944 20.736-25.728 72.448-138.112 85.248-272.128 0.384 31.488 1.536 100.736 4.352 169.344 2.176 54.4 4.864 97.792 8.064 128.896 1.92 19.072 3.968 33.408 6.272 43.648 1.792 8.064 5.632 24.96 18.944 24.96 3.712 0 7.296-1.536 10.112-4.352 5.76-5.76 16.384-16.384 20.608-201.088 1.664-72.576 1.664-144.256 1.664-168.832 1.792-0.512 3.584-1.024 5.376-1.664C591.616 785.92 645.12 902.912 666.368 929.28c7.168 8.96 16.768 18.944 27.904 18.944 0.896 0 1.792-0.128 2.688-0.256 11.136-1.664 15.616-12.672 17.152-16.256 3.072-7.424 0.384-19.712-14.208-78.848-8.192-33.152-18.304-74.368-24.832-109.44-13.312-72.832-16.896-165.12-16.896-166.016 0-0.896-0.128-1.792-0.384-2.56 5.504-14.08 8.576-29.312 8.576-45.312v-61.824c0-88.192 39.04-171.136 107.008-227.456 0.128-0.128 0.256-0.128 0.384-0.256 2.432-2.048 10.112-8.192 20.864-16.896 22.528-18.048 56.448-45.44 85.248-69.12 16-13.056 28.416-23.424 36.864-30.72 4.992-4.352 8.704-7.552 11.264-9.984 3.84-3.456 11.264-10.368 5.504-18.816zM431.104 27.264c0-0.128 0.128-0.128 0.128-0.128h11.136c0.128 0 0.128 0.128 0.128 0.128V38.4c0 0.128-0.128 0.128-0.128 0.128H431.36c-0.128 0-0.128-0.128-0.128-0.128v-11.136zM421.504 92.16c-1.792-2.944-1.792-9.728 1.28-15.872l6.784-13.44c0.384-0.64 1.792-1.536 2.816-1.536h8.704c1.024 0 2.56 0.896 2.816 1.536l6.784 13.44c3.072 6.016 3.072 12.928 1.28 15.872-0.384 0.512-0.512 0.896-2.048 0.896h-26.624c-1.152 0-1.408-0.256-1.792-0.896z m-19.456 822.656c-3.584 4.48-6.272 7.168-8.064 8.576 0.768-9.088 8.064-38.784 14.592-65.152 8.192-33.408 18.56-75.008 25.088-110.72 8.576-46.464 13.184-100.608 15.36-134.912 9.728 10.88 21.504 20.096 34.56 27.008-10.112 142.976-66.944 257.152-81.536 275.2z m148.608-101.376c-1.92 85.632-5.248 132.992-8.192 159.104-3.456-26.24-7.424-73.728-10.624-159.872-2.432-66.56-3.456-131.584-3.84-159.36 4.608 0.512 9.216 0.768 13.824 0.768 3.456 0 6.912-0.128 10.368-0.512 0 27.136-0.128 92.672-1.536 159.872z m102.016-65.92c6.528 35.712 16.768 77.312 25.088 110.72 6.528 26.368 13.824 56.064 14.592 65.152-1.792-1.536-4.48-4.096-8.064-8.576-14.592-18.176-71.808-133.12-81.536-276.608 13.184-7.424 24.832-17.024 34.432-28.544 2.048 34.176 6.656 90.112 15.488 137.856z m127.744-542.208c-10.368 8.32-17.92 14.464-20.736 16.768-0.128 0.128-0.256 0.128-0.384 0.256-73.472 60.672-115.712 150.144-115.712 245.376v61.824c0 56.064-45.696 101.76-101.76 101.76-7.04 0-13.824-0.768-20.48-2.048-1.536-0.768-3.2-1.152-4.992-1.152-29.44-7.68-53.76-28.16-66.56-55.296-6.144-13.056-9.6-27.776-9.6-43.136V393.6c0-13.696-6.912-26.112-18.688-33.408-0.128-0.128-0.256-0.128-0.512-0.256-3.2-1.92-6.528-3.328-10.112-4.224L113.664 243.968c-1.28-0.64-1.92-1.664-2.048-2.176-0.256-0.512-0.512-1.664-0.128-2.816 2.432-4.864 19.456-37.888 26.24-55.552 11.008-28.288 28.928-41.6 56.448-41.6 6.016 0 11.904 0.896 17.536 2.688l10.624 4.48h0.128l184.192 78.72c0.128 0.128 0.384 0.128 0.512 0.256l0.896 0.384c19.968 7.552 30.08 11.136 35.072 12.928 0.128 0 0.256 0.128 0.384 0.128 36.224 12.672 74.112 19.072 112.896 19.072 47.36 0 93.184-9.472 136.32-28.16 0.256-0.128 0.512-0.256 0.64-0.384 0.128-0.128 0.256-0.128 0.384-0.256l167.68-93.568c1.408-0.64 2.816-1.408 4.224-2.048-30.08 24.704-66.304 53.888-85.248 69.248z" fill="#2c2c2c" p-id="8748"></path><path d="M539.904 350.72c-6.272 0-11.392 5.12-11.392 11.392v130.304c0 6.272 5.12 11.392 11.392 11.392s11.392-5.12 11.392-11.392V362.24c0.128-6.4-4.992-11.52-11.392-11.52z" fill="#2c2c2c" p-id="8749"></path></svg>