<?xml version="1.0" standalone="no"?><!DOCTYPE svg PUBLIC "-//W3C//DTD SVG 1.1//EN" "http://www.w3.org/Graphics/SVG/1.1/DTD/svg11.dtd"><svg t="1618392064927" class="icon" viewBox="0 0 1024 1024" version="1.1" xmlns="http://www.w3.org/2000/svg" p-id="21836" xmlns:xlink="http://www.w3.org/1999/xlink" width="200" height="200"><defs><style type="text/css"></style></defs><path d="M648.00768 481.0752L533.85216 169.20576a23.16288 23.16288 0 0 0-43.88864 0l-113.9712 311.95136a23.2448 23.2448 0 0 0 9.03168 27.52512l55.95136 36.864A48.29184 48.29184 0 0 1 462.62272 585.728v168.73472h-7.29088a23.47008 23.47008 0 0 0-23.38816 23.38816v136.56064h160.11264v-136.4992a23.47008 23.47008 0 0 0-23.38816-23.38816h-7.18848v-168.91904a47.98464 47.98464 0 0 1 21.58592-40.12032l55.84896-36.864a23.20384 23.20384 0 0 0 9.09312-27.5456z m-171.08992 388.42368V800.768h70.16448v68.8128zM558.32576 507.904a93.12256 93.12256 0 0 0-41.73824 77.824v168.83712h-8.99072V585.728a92.83584 92.83584 0 0 0-41.84064-77.7216l-41.63584-27.5456L512 240.08704l88.064 240.4352z" fill="#231815" p-id="21837"></path></svg>