<?xml version="1.0" standalone="no"?><!DOCTYPE svg PUBLIC "-//W3C//DTD SVG 1.1//EN" "http://www.w3.org/Graphics/SVG/1.1/DTD/svg11.dtd"><svg t="1618392055585" class="icon" viewBox="0 0 1024 1024" version="1.1" xmlns="http://www.w3.org/2000/svg" p-id="21691" xmlns:xlink="http://www.w3.org/1999/xlink" width="200" height="200"><defs><style type="text/css"></style></defs><path d="M966.9 539.2c-0.4-0.1-42-7-83.4-27.8-37.8-18.9-61.6-42.2-70.9-69.3h79.5c15.6 0 28.6-12 29.9-27.6 1.3-15.6-9.6-29.5-25.1-32-0.4-0.1-42-7-83.4-27.8-37.6-18.8-61.3-41.9-70.7-68.7h79.3c15.6 0 28.6-12 29.9-27.5 1.3-15.6-9.6-29.5-25-32.1-1.6-0.3-158.9-27.6-158.9-124.5 0-16.6-13.4-30-30-30-1.8 0-3.5 0.2-5.2 0.5-1.7-0.3-3.5-0.5-5.2-0.5H398.1c-2 0-4 0.2-5.9 0.6-3.2-0.6-6.5-0.8-9.9-0.3-16.4 2.2-27.9 17.3-25.7 33.7 0 0.1 0.1 14.9-13.2 34.4-16.8 24.5-56.3 59.5-149.6 86.9-14.3 4.2-23.4 18.3-21.2 33.1 2.1 14.8 14.8 25.7 29.7 25.7h77.3c-2.3 4.6-5.4 9.7-9.6 15.1-17.7 23.1-57.4 56.1-146.2 82.2-14.3 4.2-23.4 18.3-21.2 33.1 2.1 14.8 14.8 25.7 29.7 25.7h77.6c-2.4 4.7-5.6 10-9.9 15.6-17.7 23.1-57.4 56.1-146.2 82.2-14.3 4.2-23.4 18.3-21.2 33.1s14.8 25.7 29.7 25.7h36c0 0.6-0.1 1.3-0.1 1.9v320.9c0 16.6 13.4 30 30 30h768.1c16.6 0 30-13.4 30-30V600.7c0-0.6 0-1.3-0.1-1.9h36c15.6 0 28.6-12 29.9-27.6 1.1-15.5-9.8-29.5-25.2-32z m-574.1-365c10-14.7 16.3-29.3 19.8-42.3h198.5c6.2 30.1 23.4 64 62.8 94.1H340.3c22-15.5 39.5-32.8 52.5-51.8z m-70 156.2c11.3-16.5 17.2-31.7 20.3-44.3h337.6c5.9 30.6 22.9 65.3 63.3 96.1H270.3c22-15.6 39.5-32.9 52.5-51.8z m-70 156.6c11.4-16.7 17.4-32.2 20.5-44.8h477.4c5.8 30.7 22.8 65.7 63.4 96.7H200.3c22-15.7 39.5-33 52.5-51.9z m77.4 398V708.3h82V885h-82z m281.8 0V708.3h82V885h-82z m254.2-284.3v290.9H754V678.3c0-16.6-13.4-30-30-30H582c-16.6 0-30 13.4-30 30v213.3h-79.8V678.3c0-16.6-13.4-30-30-30h-142c-16.6 0-30 13.4-30 30v213.3H158V600.7c0-0.6 0-1.3-0.1-1.9h708.3v1.9z" fill="" p-id="21692"></path></svg>