<?xml version="1.0" standalone="no"?><!DOCTYPE svg PUBLIC "-//W3C//DTD SVG 1.1//EN" "http://www.w3.org/Graphics/SVG/1.1/DTD/svg11.dtd"><svg t="1618392070748" class="icon" viewBox="0 0 1024 1024" version="1.1" xmlns="http://www.w3.org/2000/svg" p-id="21977" xmlns:xlink="http://www.w3.org/1999/xlink" width="200" height="200"><defs><style type="text/css"></style></defs><path d="M986.496 37.504a128 128 0 0 1-89.429333 218.453333l-128.341334 134.954667 1.408 3.498667a225.066667 225.066667 0 0 1 5.461334 145.450666 37.76 37.76 0 0 1 8.021333 3.114667l4.650667 2.773333 1.066666 0.768 4.266667 3.498667 2.986667 2.986667 147.626666 166.4c4.522667 5.12 7.765333 11.221333 9.642667 18.517333l1.109333 5.76 0.298667 4.778667v95.104c0 24.576-20.309333 44.202667-45.013333 44.202666-20.992 0-39.04-14.208-43.904-34.986666l-0.896-5.290667-0.213334-3.925333-0.042666-78.549334-136.533334-153.898666-2.474666-3.2c-2.346667 0.426667-4.693333 0.64-7.125334 0.682666l-5.418666-0.213333-4.394667-0.256a48.213333 48.213333 0 0 0-34.986667 14.08c-18.048 18.090667-18.688 47.146667-2.304 67.157333l3.541334 3.84 5.205333 4.949334c11.861333 12.202667 16.426667 29.610667 12.074667 45.482666l-1.749334 5.248-19.712 48.170667c-64.768 158.208-247.466667 229.461333-407.978666 159.189333a328.32 328.32 0 0 1-89.386667-58.026666l-11.093333-10.666667-22.016-21.973333c-124.501333-124.501333-127.914667-322.986667-7.68-443.221334A298.581333 298.581333 0 0 1 217.770667 363.093333l13.653333-5.973333 47.957333-19.626667c15.658667-6.4 33.749333-3.541333 47.146667 7.168l7.210667 6.613334c20.010667 17.450667 49.92 17.152 68.309333-1.28 8.32-8.32 13.098667-19.072 13.952-30.592l0.128-9.6c0.597333-14.506667 7.936-27.52 19.626667-35.413334L272.64 94.336a43.648 43.648 0 0 1 4.266667-62.933333A45.653333 45.653333 0 0 1 326.826667 25.6l4.693333 2.730667 5.376 4.224 2.986667 2.986666 172.245333 190.165334c5.248 5.802667 8.661333 12.544 10.282667 19.626666a226.346667 226.346667 0 0 1 110.634666 12.544L768 128.768a128 128 0 0 1 218.496-91.306667z m-477.44 298.368l-7.253333 2.730667-2.56 1.024-0.853334 4.48c-4.693333 22.058667-14.933333 42.666667-30.122666 59.904l-5.930667 6.314666c-45.141333 45.141333-114.346667 51.029333-168.362667 17.066667l-3.413333-2.304-26.88 11.008c-22.613333 9.258667-43.306667 22.186667-61.354667 38.272l-8.789333 8.32c-84.309333 84.309333-84.053333 223.701333 0.938667 315.562667l6.698666 6.954666 22.016 22.016a243.285333 243.285333 0 0 0 74.368 50.858667c114.090667 49.92 241.621333 2.56 291.029334-104.746667l3.754666-8.576 10.453334-25.514666-2.389334-3.029334c-36.352-50.816-34.304-121.088 8.234667-168.704l5.290667-5.589333a131.669333 131.669333 0 0 1 71.253333-36.736l5.461333-0.810667 2.133334-5.717333c5.888-17.493333 8.106667-36.053333 6.528-54.613333l-286.421334 301.226666c-4.437333 5.162667-9.813333 9.130667-15.701333 11.861334 0.597333 52.181333-30.634667 82.218667-82.090667 73.813333a32.426667 32.426667 0 0 1-26.88-36.394667 30.933333 30.933333 0 0 1 31.616-26.538666l4.309334 0.426666 6.058666 0.938667c2.816 0.256 3.754667-0.512 3.882667-3.84v-2.261333l-0.426667-9.344a31.274667 31.274667 0 0 1 1.536-11.264l-73.813333-73.728a58.026667 58.026667 0 0 1-10.581333-14.506667 30.378667 30.378667 0 0 1-8.064 1.109333h-9.301334c-5.290667 0.170667-6.4 0.853333-5.930666 4.266667l1.28 5.973333a31.018667 31.018667 0 0 1-24.234667 37.248 32.426667 32.426667 0 0 1-37.717333-24.96c-11.434667-52.48 19.029333-85.632 74.325333-85.930666a32 32 0 0 1 16.554667 4.48l0.682666-0.768 2.645334-2.474667 297.728-284.629333a135.125333 135.125333 0 0 0-49.664 7.125333z m137.386667 27.178667l-301.781334 288.426666 29.994667 30.037334 287.872-302.805334a149.76 149.76 0 0 0-16.128-15.658666z m143.018666-136.746667L708.309333 303.786667c4.565333 4.096 8.96 8.405333 13.184 12.928l76.288-80.256-8.32-10.24z m76.373334-128.469333a42.666667 42.666667 0 1 0 60.330666 60.330666 42.666667 42.666667 0 0 0-60.330666-60.330666z" fill="#333333" p-id="21978"></path></svg>