<?xml version="1.0" standalone="no"?><!DOCTYPE svg PUBLIC "-//W3C//DTD SVG 1.1//EN" "http://www.w3.org/Graphics/SVG/1.1/DTD/svg11.dtd"><svg t="1618392109290" class="icon" viewBox="0 0 1024 1024" version="1.1" xmlns="http://www.w3.org/2000/svg" p-id="22675" xmlns:xlink="http://www.w3.org/1999/xlink" width="200" height="200"><defs><style type="text/css"></style></defs><path d="M256 747.52H92.16v81.92h125.61408zM835.85024 829.44H942.08v-81.92H798.72zM307.2 634.88H153.6v81.92h115.05664zM784.90624 716.8H880.64v-81.92H747.52zM358.4 522.24H235.52v81.92h85.1968zM722.19648 604.16H788.48v-81.92H686.08zM409.6 409.6h-92.16v81.92h55.808zM673.6896 491.52H716.8v-81.92h-81.92zM460.53376 314.51136l6.3488-13.71136 8.6016-18.47296h4.25984v-64.3584h95.232v64.3584h4.27008l8.59136 18.47296 6.3488 13.7216L624.06656 378.88H686.08l-15.872-64.36864h-31.744v-96.54272h31.744V153.6h-285.696v64.36864h31.744v96.54272h-31.744L368.64 378.88h62.01344z" fill="#000000" p-id="22676"></path><path d="M793.96864 828.23168L808.96 860.16H235.52l14.99136-31.92832 37.4784-79.81056 14.99136-31.91808 37.4784-79.8208 14.99136-31.91808 37.4784-79.81056 15.0016-31.92832 37.46816-79.81056 15.0016-31.92832L490.3936 317.44h63.71328l29.98272 63.8464 15.0016 31.92832 37.46816 79.81056 15.0016 31.92832 37.4784 79.81056 14.99136 31.91808 37.4784 79.8208 14.99136 31.91808 37.4784 79.81056z m-74.6496-45.16864l-30.4128-64.75776-12.15488-25.9072-30.4128-64.74752-12.15488-25.9072-30.4128-64.74752-12.17536-25.9072-30.39232-64.74752-12.17536-25.9072L524.70784 368.64l-24.81152 51.80416-12.1856 25.9072-30.39232 64.74752-12.16512 25.9072-30.4128 64.74752-12.16512 25.9072-30.4128 64.74752-12.15488 25.9072-30.4128 64.74752L317.44 808.96h414.04416l-12.16512-25.9072z" fill="#000000" p-id="22677"></path></svg>