<?xml version="1.0" standalone="no"?><!DOCTYPE svg PUBLIC "-//W3C//DTD SVG 1.1//EN" "http://www.w3.org/Graphics/SVG/1.1/DTD/svg11.dtd"><svg t="1618392081269" class="icon" viewBox="0 0 1024 1024" version="1.1" xmlns="http://www.w3.org/2000/svg" p-id="22124" xmlns:xlink="http://www.w3.org/1999/xlink" width="200" height="200"><defs><style type="text/css"></style></defs><path d="M865.28 33.938286a86.503619 86.503619 0 1 1 65.340952 147.553524l-1.316571 1.706666-140.678095 162.840381a235.129905 235.129905 0 0 1 11.215238 206.433524h-0.024381l-5.144381 12.092952 138.849524 161.987048a24.380952 24.380952 0 0 1 5.607619 12.409905l0.243809 3.462095v101.351619a24.380952 24.380952 0 0 1-48.591238 2.82819l-0.170666-2.82819V751.420952l-127.951239-149.235809a48.664381 48.664381 0 0 1-21.577142 3.120762l-4.583619-0.170667a52.589714 52.589714 0 0 0-36.912762 89.770667l5.363809 5.071238a48.761905 48.761905 0 0 1 9.898667 52.931047l-21.504 50.834286c-70.753524 166.960762-263.41181 244.931048-430.372572 174.201905a328.289524 328.289524 0 0 1-104.057904-70.144l-22.674286-22.674286C8.045714 756.931048 8.045714 549.059048 136.265143 420.864a328.289524 328.289524 0 0 1 104.082286-70.144l50.590476-21.430857a48.761905 48.761905 0 0 1 53.711238 10.630095l2.998857 2.828191a52.589714 52.589714 0 0 0 87.015619-40.96l0.073143-3.974096a48.761905 48.761905 0 0 1 29.671619-42.057143l5.997714-2.535619-156.476952-178.834285a24.380952 24.380952 0 0 1 32.182857-36.156953l2.364952 1.852953 2.145524 2.194285 168.277334 192.316953a234.691048 234.691048 0 0 1 168.764952 15.408762l154.89219-133.851429a86.454857 86.454857 0 0 1 22.747429-82.212571z m-218.697143 251.513904a185.685333 185.685333 0 0 0-135.94819 3.681524l-27.257905 11.532191a101.351619 101.351619 0 0 1-172.982857 73.99619l-0.463238-0.487619-50.590477 21.455238a279.527619 279.527619 0 0 0-88.60038 59.733334c-109.153524 109.153524-109.153524 286.134857 0 395.288381l22.674285 22.674285a279.527619 279.527619 0 0 0 88.600381 59.733334c142.140952 60.220952 306.200381-6.192762 366.445714-148.333715l21.47962-50.809904a101.351619 101.351619 0 0 1 75.093333-177.200762l-4.876191-0.292572a24.210286 24.210286 0 0 1 4.754286-7.728762l2.194286-2.145523c1.024-0.877714 2.096762-1.633524 3.218286-2.316191l4.608-10.800762a186.343619 186.343619 0 0 0-0.877715-147.382857L419.644952 773.046857a55.198476 55.198476 0 0 1-22.113523 15.530667c0.902095 2.389333 1.462857 4.973714 1.536 7.655619 1.584762 42.520381-22.893714 67.510857-63.561143 61.244952a24.380952 24.380952 0 0 1 7.411809-48.201143l4.632381 0.682667c2.633143 0.195048 3.120762-0.658286 3.072-4.729905l-0.26819-7.192381a24.283429 24.283429 0 0 1 2.486857-11.702857 54.345143 54.345143 0 0 1-11.410286-7.582476l-2.925714-2.755048-78.189714-78.165333a55.198476 55.198476 0 0 1-14.019048-23.649524 23.722667 23.722667 0 0 1-13.604571 4.461715l-7.168 0.097523c-4.071619 0.146286-4.924952 0.707048-4.58362 3.291429l0.926477 4.608a24.380952 24.380952 0 0 1-47.737905 9.923048c-8.387048-40.277333 15.286857-66.023619 57.807238-66.681905a24.30781 24.30781 0 0 1 16.847238 6.41219c2.681905-6.095238 6.509714-11.849143 11.532191-16.871619l2.950095-2.730666z m46.250667 24.454096L295.15581 653.58019l-1.316572 1.536a6.680381 6.680381 0 0 0 0.975238 8.240762l78.506667 78.506667a6.680381 6.680381 0 0 0 9.411047-0.707048l344.600381-398.799238a185.344 185.344 0 0 0-34.499047-32.426666z m175.006476-151.186286l-137.313524 118.613333c10.386286 8.313905 20.114286 17.554286 29.062095 27.696762l118.00381-136.557714-9.752381-9.752381z m85.284571-90.307048a37.741714 37.741714 0 1 0-53.369904 53.394286l-0.853334-0.975238 1.901715 1.950476c13.848381 12.848762 35.011048 13.409524 49.468952 1.584762l2.852571-2.584381a37.741714 37.741714 0 0 0 0-53.369905z" fill="#2c2c2c" p-id="22125" data-spm-anchor-id="a313x.7781069.0.i169" class="selected"></path></svg>